<?xml version="1.0" encoding="UTF-8" standalone="no"?>
<!-- Created with Inkscape (http://www.inkscape.org/) -->

<svg
   xmlns:dc="http://purl.org/dc/elements/1.1/"
   xmlns:cc="http://creativecommons.org/ns#"
   xmlns:rdf="http://www.w3.org/1999/02/22-rdf-syntax-ns#"
   xmlns:svg="http://www.w3.org/2000/svg"
   xmlns="http://www.w3.org/2000/svg"
   xmlns:sodipodi="http://sodipodi.sourceforge.net/DTD/sodipodi-0.dtd"
   xmlns:inkscape="http://www.inkscape.org/namespaces/inkscape"
   id="svg2"
   version="1.1"
   inkscape:version="0.91 r13725"
   xml:space="preserve"
   width="450"
   height="270"
   viewBox="0 0 450 270"
   sodipodi:docname="Histogram.svg"><metadata
     id="metadata8"><rdf:RDF><cc:Work
         rdf:about=""><dc:format>image/svg+xml</dc:format><dc:type
           rdf:resource="http://purl.org/dc/dcmitype/StillImage" /><dc:title></dc:title></cc:Work></rdf:RDF></metadata><defs
     id="defs6" /><sodipodi:namedview
     pagecolor="#ffffff"
     bordercolor="#666666"
     borderopacity="1"
     objecttolerance="10"
     gridtolerance="10"
     guidetolerance="10"
     inkscape:pageopacity="0"
     inkscape:pageshadow="2"
     inkscape:window-width="1367"
     inkscape:window-height="554"
     id="namedview4"
     showgrid="false"
     inkscape:zoom="0.73777778"
     inkscape:cx="225"
     inkscape:cy="135"
     inkscape:window-x="0"
     inkscape:window-y="300"
     inkscape:window-maximized="0"
     inkscape:current-layer="g10" /><g
     id="g10"
     inkscape:groupmode="layer"
     inkscape:label="Histogram"
     transform="matrix(1.25,0,0,-1.25,0,270)"><text
       transform="matrix(1,0,0,-1,169.1299,13.6973)"
       style="font-variant:normal;font-weight:500;font-stretch:normal;font-size:6.14669991px;font-family:DINOT-Medium;-inkscape-font-specification:DINOT-Medium;writing-mode:lr-tb;fill:#34495e;fill-opacity:1;fill-rule:nonzero;stroke:none"
       id="text12"><tspan
         x="0 3.70646 6.7736635 8.8758345 10.498564 15.889219 19.146971 21.249142 24.562214 27.961338 29.436546 33.063099 36.376171 39.867496 41.969669 43.592396 48.983051 52.296124 55.787449"
         y="0"
         sodipodi:role="line"
         id="tspan14">Estimated Sentiment</tspan></text>
<text
       transform="matrix(1,0,0,-1,7.7529,196.1221)"
       style="font-variant:normal;font-weight:bold;font-stretch:normal;font-size:10px;font-family:DINOT-Bold;-inkscape-font-specification:DINOT-Bold;writing-mode:lr-tb;fill:#34495e;fill-opacity:1;fill-rule:nonzero;stroke:none"
       id="text16"><tspan
         x="0 6.2800002 9.0299997 12.55 17.35 23.040001 26.459999 31.889999 36.439999 42.029999 45.119999 47.439999 53.490002 58.5 62.02 64.769997 73.529999 78.870003 82.389999 87.870003 93.480003 95.800003 101.71 107.19 112.92 116.44 119.19 127.95 133.42999 139.16 142.67999 145 150.89999 155.45 160.92999 166.53999 172.27 177.75 183.48 188.28 193.22 195.53999 198.96001 204.39 208.94 211.25999 217.64 220.89 226.49001 232.22 240.98 245.99001 248.31 254.85001 260.32999 265.13 270.60999 273.35999 278.29001 281.04001 286.76999 292.32001 294.64001 299.98001 302.29999 307.73001 310.57999 316.01001 318.32999 324.23999 329.04001 334.47 339.01999"
         y="0"
         sodipodi:role="line"
         id="tspan18">Pitchfork: Estimated Sentiment Frequency for Albums Receiving a 7.5 Score</tspan></text>
<text
       transform="matrix(1,0,0,-1,294.978,10.1055)"
       style="font-variant:normal;font-weight:300;font-stretch:normal;font-size:5px;font-family:DINOT-Light;-inkscape-font-specification:DINOT-Light;writing-mode:lr-tb;fill:#34495e;fill-opacity:1;fill-rule:nonzero;stroke:none"
       id="text20"><tspan
         x="0 3.3900001 6.0100002 7.6350002 10.255 11.53 14 16.629999 19.424999 21.469999 23.934999 26.549999 28.01 29.285 32.439999 33.665001 35.290001 37.755001 40.549999 42.07 44.700001 46.744999 49.380001 50.700001 53.165001 55.794998"
         y="0"
         sodipodi:role="line"
         id="tspan22">Data source: Pitchfork.com</tspan><tspan
         x="-10.415 -7.0250001 -4.4099998 -1.9450001 -0.72000003 1.98 4.5949998 6.0300002 8.5 11.12 13.915 16.615 19.315001 21.93 24.395 25.620001 30.01 32.630001 34.064999 36.535 37.855 40.32 42.950001 47.34 48.630001 49.904999 52.474998 55.044998 57.615002"
         y="6"
         sodipodi:role="line"
         id="tspan24">Decibelsanddecimals.com, 2015</tspan></text>
<g
       id="g26"
       transform="translate(23.5989,77.0976)"><path
         d="M 0,0 320.061,0 0,0 Z"
         style="fill:#e7e8e9;fill-opacity:1;fill-rule:nonzero;stroke:none"
         id="path28"
         inkscape:connector-curvature="0" /></g><g
       id="g30"
       transform="translate(23.5991,77.0979)"><path
         d="M 0,0 320.061,0"
         style="fill:none;stroke:#e7e8e9;stroke-width:0.75400001;stroke-linecap:round;stroke-linejoin:round;stroke-miterlimit:10;stroke-dasharray:none;stroke-opacity:1"
         id="path32"
         inkscape:connector-curvature="0" /></g><g
       id="g34"
       transform="translate(23.5989,126.126)"><path
         d="M 0,0 320.061,0 0,0 Z"
         style="fill:#e7e8e9;fill-opacity:1;fill-rule:nonzero;stroke:none"
         id="path36"
         inkscape:connector-curvature="0" /></g><g
       id="g38"
       transform="translate(23.5991,126.1258)"><path
         d="M 0,0 320.061,0"
         style="fill:none;stroke:#e7e8e9;stroke-width:0.75400001;stroke-linecap:round;stroke-linejoin:round;stroke-miterlimit:10;stroke-dasharray:none;stroke-opacity:1"
         id="path40"
         inkscape:connector-curvature="0" /></g><g
       id="g42"
       transform="translate(23.5989,175.158)"><path
         d="M 0,0 320.061,0 0,0 Z"
         style="fill:#e7e8e9;fill-opacity:1;fill-rule:nonzero;stroke:none"
         id="path44"
         inkscape:connector-curvature="0" /></g><g
       id="g46"
       transform="translate(23.5991,175.158)"><path
         d="M 0,0 320.061,0"
         style="fill:none;stroke:#e7e8e9;stroke-width:0.75400001;stroke-linecap:round;stroke-linejoin:round;stroke-miterlimit:10;stroke-dasharray:none;stroke-opacity:1"
         id="path48"
         inkscape:connector-curvature="0" /></g><path
       d="m 26.391,28.07 16.747,0 0,3.92 -16.747,0 0,-3.92 z"
       style="fill:#34495e;fill-opacity:1;fill-rule:nonzero;stroke:none"
       id="path50"
       inkscape:connector-curvature="0" /><path
       d="m 44.999,28.07 16.747,0 0,6.375 -16.747,0 0,-6.375 z"
       style="fill:#34495e;fill-opacity:1;fill-rule:nonzero;stroke:none"
       id="path52"
       inkscape:connector-curvature="0" /><path
       d="m 63.607,28.07 16.747,0 0,9.807 -16.747,0 0,-9.807 z"
       style="fill:#34495e;fill-opacity:1;fill-rule:nonzero;stroke:none"
       id="path54"
       inkscape:connector-curvature="0" /><path
       d="m 82.215,28.07 16.747,0 0,17.16 -16.747,0 0,-17.16 z"
       style="fill:#34495e;fill-opacity:1;fill-rule:nonzero;stroke:none"
       id="path56"
       inkscape:connector-curvature="0" /><path
       d="m 100.824,28.07 16.747,0 0,33.338 -16.747,0 0,-33.338 z"
       style="fill:#34495e;fill-opacity:1;fill-rule:nonzero;stroke:none"
       id="path58"
       inkscape:connector-curvature="0" /><path
       d="m 119.432,28.07 16.747,0 0,48.047 -16.747,0 0,-48.047 z"
       style="fill:#34495e;fill-opacity:1;fill-rule:nonzero;stroke:none"
       id="path60"
       inkscape:connector-curvature="0" /><path
       d="m 138.04,28.07 16.747,0 0,77.464 -16.747,0 0,-77.464 z"
       style="fill:#34495e;fill-opacity:1;fill-rule:nonzero;stroke:none"
       id="path62"
       inkscape:connector-curvature="0" /><path
       d="m 156.648,28.07 16.747,0 0,93.647 -16.747,0 0,-93.647 z"
       style="fill:#34495e;fill-opacity:1;fill-rule:nonzero;stroke:none"
       id="path64"
       inkscape:connector-curvature="0" /><path
       d="m 175.256,28.07 16.747,0 0,127.474 -16.747,0 0,-127.474 z"
       style="fill:#3b97d3;fill-opacity:1;fill-rule:nonzero;stroke:none"
       id="path66"
       inkscape:connector-curvature="0" /><path
       d="m 193.864,28.07 16.747,0 0,152.478 -16.747,0 0,-152.478 z"
       style="fill:#3b97d3;fill-opacity:1;fill-rule:nonzero;stroke:none"
       id="path68"
       inkscape:connector-curvature="0" /><path
       d="m 212.472,28.07 16.747,0 0,119.633 -16.747,0 0,-119.633 z"
       style="fill:#34495e;fill-opacity:1;fill-rule:nonzero;stroke:none"
       id="path70"
       inkscape:connector-curvature="0" /><path
       d="m 231.08,28.07 16.747,0 0,82.859 -16.747,0 0,-82.859 z"
       style="fill:#34495e;fill-opacity:1;fill-rule:nonzero;stroke:none"
       id="path72"
       inkscape:connector-curvature="0" /><path
       d="m 249.689,28.07 16.747,0 0,84.821 -16.747,0 0,-84.821 z"
       style="fill:#e64c3c;fill-opacity:1;fill-rule:nonzero;stroke:none"
       id="path74"
       inkscape:connector-curvature="0" /><path
       d="m 268.297,28.07 16.747,0 0,64.718 -16.747,0 0,-64.718 z"
       style="fill:#34495e;fill-opacity:1;fill-rule:nonzero;stroke:none"
       id="path76"
       inkscape:connector-curvature="0" /><path
       d="m 286.905,28.07 16.747,0 0,81.389 -16.747,0 0,-81.389 z"
       style="fill:#34495e;fill-opacity:1;fill-rule:nonzero;stroke:none"
       id="path78"
       inkscape:connector-curvature="0" /><path
       d="m 305.513,28.07 16.747,0 0,52.953 -16.747,0 0,-52.953 z"
       style="fill:#34495e;fill-opacity:1;fill-rule:nonzero;stroke:none"
       id="path80"
       inkscape:connector-curvature="0" /><path
       d="m 324.121,28.07 16.746,0 0,0.489 -16.746,0 0,-0.489 z"
       style="fill:#34495e;fill-opacity:1;fill-rule:nonzero;stroke:none"
       id="path82"
       inkscape:connector-curvature="0" /><text
       transform="matrix(1,0,0,-1,19.0547,26.5576)"
       style="font-variant:normal;font-weight:500;font-stretch:normal;font-size:6px;font-family:DINOT-Medium;-inkscape-font-specification:DINOT-Medium;writing-mode:lr-tb;fill:#808080;fill-opacity:1;fill-rule:nonzero;stroke:none"
       id="text84"><tspan
         x="0"
         y="0"
         id="tspan86">0</tspan><tspan
         x="-7.4640002 -4.2659998 -1.068"
         y="-48.372002"
         sodipodi:role="line"
         id="tspan88">100</tspan><tspan
         x="-7.4640002 -4.2659998 -1.068"
         y="-97.398003"
         sodipodi:role="line"
         id="tspan90">200</tspan><tspan
         x="-7.4640002 -4.2659998 -1.068"
         y="-146.42999"
         sodipodi:role="line"
         id="tspan92">300</tspan></text>
<text
       transform="matrix(1,0,0,-1,31.8389,21.9043)"
       style="font-variant:normal;font-weight:500;font-stretch:normal;font-size:5.7329998px;font-family:DINOT-Medium;-inkscape-font-specification:DINOT-Medium;writing-mode:lr-tb;fill:#808080;fill-opacity:1;fill-rule:nonzero;stroke:none"
       id="text94"><tspan
         x="0 3.0556891 4.6494632 20.363617 37.218636 40.274326 41.868099 57.582253 74.431541 77.487228 79.081001 94.795158 111.64444 114.70013 116.29391 132.00806 148.85735 151.91304 153.50681 169.22096 186.07025 189.12593 190.71971 206.43387 223.28888 226.34457 227.93835 243.6525 260.50751 263.5632 265.15698 280.87112 297.72043 300.77612 302.36987"
         y="0"
         sodipodi:role="line"
         id="tspan96">1.522.533.544.555.566.577.588.599.5</tspan></text>
</g></svg>