<?xml version="1.0" encoding="UTF-8" standalone="no"?>
<!-- Created with Inkscape (http://www.inkscape.org/) -->

<svg
   xmlns:dc="http://purl.org/dc/elements/1.1/"
   xmlns:cc="http://creativecommons.org/ns#"
   xmlns:rdf="http://www.w3.org/1999/02/22-rdf-syntax-ns#"
   xmlns:svg="http://www.w3.org/2000/svg"
   xmlns="http://www.w3.org/2000/svg"
   xmlns:sodipodi="http://sodipodi.sourceforge.net/DTD/sodipodi-0.dtd"
   xmlns:inkscape="http://www.inkscape.org/namespaces/inkscape"
   id="svg2"
   version="1.1"
   inkscape:version="0.91 r13725"
   xml:space="preserve"
   width="75"
   height="75"
   viewBox="0 0 75 75"
   sodipodi:docname="About Page.ai.svg"><metadata
     id="metadata8"><rdf:RDF><cc:Work
         rdf:about=""><dc:format>image/svg+xml</dc:format><dc:type
           rdf:resource="http://purl.org/dc/dcmitype/StillImage" /><dc:title></dc:title></cc:Work></rdf:RDF></metadata><defs
     id="defs6"><clipPath
       clipPathUnits="userSpaceOnUse"
       id="clipPath18"><path
         d="M 0,60 60,60 60,0 0,0 0,60 Z"
         id="path20"
         inkscape:connector-curvature="0" /></clipPath></defs><sodipodi:namedview
     pagecolor="#ffffff"
     bordercolor="#666666"
     borderopacity="1"
     objecttolerance="10"
     gridtolerance="10"
     guidetolerance="10"
     inkscape:pageopacity="0"
     inkscape:pageshadow="2"
     inkscape:window-width="697"
     inkscape:window-height="480"
     id="namedview4"
     showgrid="false"
     inkscape:zoom="3.1466667"
     inkscape:cx="37.5"
     inkscape:cy="37.5"
     inkscape:window-x="0"
     inkscape:window-y="764"
     inkscape:window-maximized="0"
     inkscape:current-layer="g10" /><g
     id="g10"
     inkscape:groupmode="layer"
     inkscape:label="About Page"
     transform="matrix(1.25,0,0,-1.25,0,75)"><path
       d="m 48.506,5.21 -33.122,0 0,48.619 33.122,0 0,-48.619 z"
       style="fill:none;stroke:#2b3e50;stroke-width:1.5;stroke-linecap:butt;stroke-linejoin:miter;stroke-miterlimit:10;stroke-dasharray:none;stroke-opacity:1"
       id="path12"
       inkscape:connector-curvature="0" /><g
       id="g14"><g
         id="g16"
         clip-path="url(#clipPath18)"><g
           id="g22"
           transform="translate(35.9224,43.1231)"><path
             d="m 0,0 c 0,-2.123 -1.721,-3.845 -3.845,-3.845 -2.123,0 -3.844,1.722 -3.844,3.845 0,2.123 1.721,3.845 3.844,3.845 C -1.721,3.845 0,2.123 0,0 Z"
             style="fill:none;stroke:#2b3e50;stroke-width:1.5;stroke-linecap:butt;stroke-linejoin:miter;stroke-miterlimit:10;stroke-dasharray:none;stroke-opacity:1"
             id="path24"
             inkscape:connector-curvature="0" /></g><g
           id="g26"
           transform="translate(37.5788,38.748)"><path
             d="M 0,0 C 2.279,2.308 2.051,6.222 -0.51,8.75"
             style="fill:none;stroke:#ea6253;stroke-width:1.5;stroke-linecap:round;stroke-linejoin:miter;stroke-miterlimit:10;stroke-dasharray:none;stroke-opacity:1"
             id="path28"
             inkscape:connector-curvature="0" /></g><g
           id="g30"
           transform="translate(39.7742,37.5073)"><path
             d="M 0,0 C 2.925,2.963 2.632,7.987 -0.655,11.232"
             style="fill:none;stroke:#ea6253;stroke-width:1.5;stroke-linecap:round;stroke-linejoin:miter;stroke-miterlimit:10;stroke-dasharray:none;stroke-opacity:1"
             id="path32"
             inkscape:connector-curvature="0" /></g><g
           id="g34"
           transform="translate(42.5577,36.2831)"><path
             d="M 0,0 C 3.563,3.609 3.206,9.728 -0.798,13.68"
             style="fill:none;stroke:#ea6253;stroke-width:1.5;stroke-linecap:round;stroke-linejoin:miter;stroke-miterlimit:10;stroke-dasharray:none;stroke-opacity:1"
             id="path36"
             inkscape:connector-curvature="0" /></g><g
           id="g38"
           transform="translate(45.9004,35.2562)"><path
             d="M 0,0 C 4.098,4.151 3.687,11.188 -0.918,15.734"
             style="fill:none;stroke:#ea6253;stroke-width:1.5;stroke-linecap:round;stroke-linejoin:miter;stroke-miterlimit:10;stroke-dasharray:none;stroke-opacity:1"
             id="path40"
             inkscape:connector-curvature="0" /></g><g
           id="g42"
           transform="translate(49.6117,35.2562)"><path
             d="M 0,0 C 4.098,4.151 3.687,11.188 -0.918,15.734"
             style="fill:none;stroke:#ea6253;stroke-width:1.5;stroke-linecap:round;stroke-linejoin:miter;stroke-miterlimit:10;stroke-dasharray:none;stroke-opacity:1"
             id="path44"
             inkscape:connector-curvature="0" /></g><g
           id="g46"
           transform="translate(41.423,18.4032)"><path
             d="m 0,0 c 0,-5.161 -4.184,-9.345 -9.345,-9.345 -5.161,0 -9.345,4.184 -9.345,9.345 0,5.161 4.184,9.345 9.345,9.345 C -4.184,9.345 0,5.161 0,0 Z"
             style="fill:none;stroke:#2b3e50;stroke-width:1.5;stroke-linecap:butt;stroke-linejoin:miter;stroke-miterlimit:10;stroke-dasharray:none;stroke-opacity:1"
             id="path48"
             inkscape:connector-curvature="0" /></g><g
           id="g50"
           transform="translate(43.4047,12.7591)"><path
             d="M 0,0 C 2.94,2.978 2.645,8.027 -0.658,11.288"
             style="fill:none;stroke:#ea6253;stroke-width:1.5;stroke-linecap:round;stroke-linejoin:miter;stroke-miterlimit:10;stroke-dasharray:none;stroke-opacity:1"
             id="path52"
             inkscape:connector-curvature="0" /></g><g
           id="g54"
           transform="translate(46.2369,11.1586)"><path
             d="M 0,0 C 3.773,3.822 3.396,10.303 -0.845,14.489"
             style="fill:none;stroke:#ea6253;stroke-width:1.5;stroke-linecap:round;stroke-linejoin:miter;stroke-miterlimit:10;stroke-dasharray:none;stroke-opacity:1"
             id="path56"
             inkscape:connector-curvature="0" /></g><g
           id="g58"
           transform="translate(49.8277,9.5793)"><path
             d="M 0,0 C 4.596,4.656 4.136,12.549 -1.029,17.648"
             style="fill:none;stroke:#ea6253;stroke-width:1.5;stroke-linecap:round;stroke-linejoin:miter;stroke-miterlimit:10;stroke-dasharray:none;stroke-opacity:1"
             id="path60"
             inkscape:connector-curvature="0" /></g><g
           id="g62"
           transform="translate(54.14,8.2545)"><path
             d="M 0,0 C 5.286,5.355 4.757,14.433 -1.184,20.297"
             style="fill:none;stroke:#ea6253;stroke-width:1.5;stroke-linecap:round;stroke-linejoin:miter;stroke-miterlimit:10;stroke-dasharray:none;stroke-opacity:1"
             id="path64"
             inkscape:connector-curvature="0" /></g><text
           transform="matrix(0,0.9600074,1,0,12.583,8.8359)"
           style="font-variant:normal;font-weight:normal;font-stretch:normal;font-size:12.9673996px;;font-family:DINOT, 'Liberation Sans', Helvetica, Arial, sans-serif;-inkscape-font-specification:DINOT;writing-mode:lr-tb;fill:#ea6253;fill-opacity:1;fill-rule:nonzero;stroke:none"
           id="text66"><tspan
             x="0 8.5325489 16.689043 26.609104 35.699253"
             y="0"
             sodipodi:role="line"
             id="tspan68">ABOUT</tspan></text>
</g></g></g></svg>