<?xml version="1.0" encoding="UTF-8" standalone="no"?>
<!-- Created with Inkscape (http://www.inkscape.org/) -->

<svg
   xmlns:dc="http://purl.org/dc/elements/1.1/"
   xmlns:cc="http://creativecommons.org/ns#"
   xmlns:rdf="http://www.w3.org/1999/02/22-rdf-syntax-ns#"
   xmlns:svg="http://www.w3.org/2000/svg"
   xmlns="http://www.w3.org/2000/svg"
   xmlns:sodipodi="http://sodipodi.sourceforge.net/DTD/sodipodi-0.dtd"
   xmlns:inkscape="http://www.inkscape.org/namespaces/inkscape"
   id="svg3722"
   version="1.1"
   inkscape:version="0.91 r13725"
   xml:space="preserve"
   width="450"
   height="270"
   viewBox="0 0 450 270"
   sodipodi:docname="General Stats.svg"><metadata
     id="metadata3728"><rdf:RDF><cc:Work
         rdf:about=""><dc:format>image/svg+xml</dc:format><dc:type
           rdf:resource="http://purl.org/dc/dcmitype/StillImage" /><dc:title></dc:title></cc:Work></rdf:RDF></metadata><defs
     id="defs3726" /><sodipodi:namedview
     pagecolor="#ffffff"
     bordercolor="#666666"
     borderopacity="1"
     objecttolerance="10"
     gridtolerance="10"
     guidetolerance="10"
     inkscape:pageopacity="0"
     inkscape:pageshadow="2"
     inkscape:window-width="697"
     inkscape:window-height="480"
     id="namedview3724"
     showgrid="false"
     inkscape:zoom="0.77111111"
     inkscape:cx="225"
     inkscape:cy="135"
     inkscape:window-x="0"
     inkscape:window-y="300"
     inkscape:window-maximized="0"
     inkscape:current-layer="g3730" /><g
     id="g3730"
     inkscape:groupmode="layer"
     inkscape:label="General Stats"
     transform="matrix(1.25,0,0,-1.25,0,270)"><text
       transform="matrix(1,0,0,-1,165.3662,8.7656)"
       style="font-variant:normal;font-weight:500;font-stretch:normal;font-size:6.43289995px;font-family:DINOT;-inkscape-font-specification:DINOT;writing-mode:lr-tb;fill:#34495e;fill-opacity:1;fill-rule:nonzero;stroke:none"
       id="text3732"><tspan
         x="0 3.4994977 6.9668307 10.376267 13.200311 14.744206 18.198673 20.308666 21.852562 26.066111 29.533443 32.563339 34.261627 37.728958"
         y="0"
         sodipodi:role="line"
         id="tspan3734">Year of Review</tspan></text>
<text
       transform="matrix(1,0,0,-1,4.5918,180.8345)"
       style="font-variant:normal;font-weight:500;font-stretch:normal;font-size:7.50509977px;font-family:DINOT;-inkscape-font-specification:DINOT;writing-mode:lr-tb;fill:#34495e;fill-opacity:1;fill-rule:nonzero;stroke:none"
       id="text3736"><tspan
         x="0 5.043427 6.8446512 11.760491 15.80574 19.340643 21.321989 25.367237 30.943527 301.78757 306.47827 310.01315 314.05841 317.35315 321.33087 325.45114 329.4964 331.29764 335.72565 339.3656 343.39584 346.69058"
         y="0"
         sodipodi:role="line"
         id="tspan3738"># ReviewsAverage Score</tspan></text>
<text
       transform="matrix(1,0,0,-1,49.729,198.1221)"
       style="font-variant:normal;font-weight:bold;font-stretch:normal;font-size:11px;font-family:DINOT-Bold;-inkscape-font-specification:DINOT-Bold;writing-mode:lr-tb;fill:#34495e;fill-opacity:1;fill-rule:nonzero;stroke:none"
       id="text3740"><tspan
         x="0 6.908 9.9329996 13.805 19.084999 25.344 29.106001 35.078999 40.084 46.233002 49.632 52.183998 59.377998 65.405998 70.829002 73.853996 79.882004 88.231003 90.782997 97.866997 104.17 108.042 114.202 120.505 124.377 126.929 132.80299 139.106 145.27699 147.82899 154.847 160.27 166.298 171.30299 177.177 183.282 189.31 191.862 198.36301 203.64301 209.616 214.621 220.649 223.201 229.36099 234.795 237.347 243.63901 249.66701 255.541"
         y="0"
         sodipodi:role="line"
         id="tspan3742">Pitchfork: Review Output and Average Score by Year</tspan></text>
<text
       transform="matrix(1,0,0,-1,33.1138,135.9468)"
       style="font-variant:normal;font-weight:300;font-stretch:normal;font-size:5.97020006px;font-family:DINOT;-inkscape-font-specification:DINOT;writing-mode:lr-tb;fill:#2c3e50;fill-opacity:1;fill-rule:nonzero;stroke:none"
       id="text3744"><tspan
         x="0 3.5940604 6.1612463 9.2836609 11.725472 14.853858 18.077766 21.20018 22.722582 26.227089 29.170397 32.310722 34.752533"
         y="0"
         sodipodi:role="line"
         id="tspan3746">Average Score</tspan></text>
<text
       transform="matrix(0.87636766,0,0,-1,16.4512,35.4248)"
       style="font-variant:normal;font-weight:500;font-stretch:normal;font-size:6.77250004px;font-family:DINOT;-inkscape-font-specification:DINOT;writing-mode:lr-tb;fill:#7f8c8d;fill-opacity:1;fill-rule:nonzero;stroke:none"
       id="text3748"><tspan
         x="0"
         y="0"
         id="tspan3750">0</tspan><tspan
         x="-7.2194848 -3.6097424 0"
         y="-19.430302"
         sodipodi:role="line"
         id="tspan3752">200</tspan><tspan
         x="-7.2194848 -3.6097424 0"
         y="-39.009602"
         sodipodi:role="line"
         id="tspan3754">400</tspan><tspan
         x="-7.2194848 -3.6097424 0"
         y="-58.744663"
         sodipodi:role="line"
         id="tspan3756">600</tspan><tspan
         x="-7.2194848 -3.6097424 0"
         y="-77.788933"
         sodipodi:role="line"
         id="tspan3758">800</tspan><tspan
         x="-12.671348 -9.0616055 -7.2194848 -3.6097424 0"
         y="-97.551086"
         sodipodi:role="line"
         id="tspan3760">1,000</tspan><tspan
         x="-12.671348 -9.0616055 -7.2194848 -3.6097424 0"
         y="-117.46901"
         sodipodi:role="line"
         id="tspan3762">1,200</tspan></text>
<g
       id="g3764"
       transform="translate(39.6767,59.529)"><path
         d="m 0,0 18.369,12.252 18.369,11.367 18.368,46.548 18.365,15.387 18.368,4.704 18.369,3.917 18.369,-0.097 18.364,3.135 18.369,-1.565 18.369,-2.843 18.369,-0.097 18.368,-0.491 18.365,1.958 18.368,1.473 18.369,-3.723 18.369,-49.687"
         style="fill:none;stroke:#4eba6f;stroke-width:2.10599995;stroke-linecap:round;stroke-linejoin:round;stroke-miterlimit:10;stroke-dasharray:none;stroke-opacity:1"
         id="path3766"
         inkscape:connector-curvature="0" /></g><g
       id="g3768"
       transform="translate(39.6765,32.0904)"><path
         d="M 0,0 293.887,0 0,0 Z"
         style="fill:#7f8c8d;fill-opacity:1;fill-rule:nonzero;stroke:none"
         id="path3770"
         inkscape:connector-curvature="0" /></g><g
       id="g3772"
       transform="translate(39.6767,32.09)"><path
         d="M 0,0 293.887,0"
         style="fill:none;stroke:#7f8c8d;stroke-width:0.79000002;stroke-linecap:round;stroke-linejoin:round;stroke-miterlimit:10;stroke-dasharray:none;stroke-opacity:1"
         id="path3774"
         inkscape:connector-curvature="0" /></g><g
       id="g3776"
       transform="translate(58.0455,28.4085)"><path
         d="M 0,0 0,3.682 0,0 Z"
         style="fill:#7f8c8d;fill-opacity:1;fill-rule:nonzero;stroke:none"
         id="path3778"
         inkscape:connector-curvature="0" /></g><g
       id="g3780"
       transform="translate(58.0455,32.09)"><path
         d="M 0,0 0,-3.682"
         style="fill:none;stroke:#7f8c8d;stroke-width:0.79000002;stroke-linecap:round;stroke-linejoin:round;stroke-miterlimit:10;stroke-dasharray:none;stroke-opacity:1"
         id="path3782"
         inkscape:connector-curvature="0" /></g><g
       id="g3784"
       transform="translate(149.8851,28.4085)"><path
         d="M 0,0 0,3.682 0,0 Z"
         style="fill:#7f8c8d;fill-opacity:1;fill-rule:nonzero;stroke:none"
         id="path3786"
         inkscape:connector-curvature="0" /></g><g
       id="g3788"
       transform="translate(149.8849,32.09)"><path
         d="M 0,0 0,-3.682"
         style="fill:none;stroke:#7f8c8d;stroke-width:0.79000002;stroke-linecap:round;stroke-linejoin:round;stroke-miterlimit:10;stroke-dasharray:none;stroke-opacity:1"
         id="path3790"
         inkscape:connector-curvature="0" /></g><g
       id="g3792"
       transform="translate(241.7247,28.4085)"><path
         d="M 0,0 0,3.682 0,0 Z"
         style="fill:#7f8c8d;fill-opacity:1;fill-rule:nonzero;stroke:none"
         id="path3794"
         inkscape:connector-curvature="0" /></g><g
       id="g3796"
       transform="translate(241.7243,32.09)"><path
         d="M 0,0 0,-3.682"
         style="fill:none;stroke:#7f8c8d;stroke-width:0.79000002;stroke-linecap:round;stroke-linejoin:round;stroke-miterlimit:10;stroke-dasharray:none;stroke-opacity:1"
         id="path3798"
         inkscape:connector-curvature="0" /></g><g
       id="g3800"
       transform="translate(333.5634,28.4085)"><path
         d="M 0,0 0,3.682 0,0 Z"
         style="fill:#7f8c8d;fill-opacity:1;fill-rule:nonzero;stroke:none"
         id="path3802"
         inkscape:connector-curvature="0" /></g><g
       id="g3804"
       transform="translate(333.5637,32.09)"><path
         d="M 0,0 0,-3.682"
         style="fill:none;stroke:#7f8c8d;stroke-width:0.79000002;stroke-linecap:round;stroke-linejoin:round;stroke-miterlimit:10;stroke-dasharray:none;stroke-opacity:1"
         id="path3806"
         inkscape:connector-curvature="0" /></g><text
       transform="matrix(0.87636766,0,0,-1,52.0679,18.8359)"
       style="font-variant:normal;font-weight:500;font-stretch:normal;font-size:6.77250004px;font-family:DINOT;-inkscape-font-specification:DINOT;writing-mode:lr-tb;fill:#7f8c8d;fill-opacity:1;fill-rule:nonzero;stroke:none"
       id="text3808"><tspan
         x="0 3.6097424 7.2194848 10.829227 104.79767 108.40741 112.01715 115.62689 209.58856 213.1983 216.80804 220.41779 314.38623 317.99597 321.60571 325.21545"
         y="0"
         sodipodi:role="line"
         id="tspan3810">2000200520102015</tspan><tspan
         x="-53.313122 -49.703377 -47.861256 -44.251514 -40.641773"
         y="-153.98633"
         sodipodi:role="line"
         id="tspan3812">1,400</tspan></text>
<g
       id="g3814"
       transform="translate(27.9225,37.5768)"><path
         d="M 0,0 0,137.201 0,0 Z"
         style="fill:#7f8c8d;fill-opacity:1;fill-rule:nonzero;stroke:none"
         id="path3816"
         inkscape:connector-curvature="0" /></g><g
       id="g3818"
       transform="translate(27.9223,37.5768)"><path
         d="M 0,0 0,137.2"
         style="fill:none;stroke:#7f8c8d;stroke-width:0.79000002;stroke-linecap:round;stroke-linejoin:round;stroke-miterlimit:10;stroke-dasharray:none;stroke-opacity:1"
         id="path3820"
         inkscape:connector-curvature="0" /></g><g
       id="g3822"
       transform="translate(24.696,37.5768)"><path
         d="M 0,0 3.227,0 0,0 Z"
         style="fill:#7f8c8d;fill-opacity:1;fill-rule:nonzero;stroke:none"
         id="path3824"
         inkscape:connector-curvature="0" /></g><g
       id="g3826"
       transform="translate(27.9223,37.5768)"><path
         d="M 0,0 -3.227,0"
         style="fill:none;stroke:#7f8c8d;stroke-width:0.79000002;stroke-linecap:round;stroke-linejoin:round;stroke-miterlimit:10;stroke-dasharray:none;stroke-opacity:1"
         id="path3828"
         inkscape:connector-curvature="0" /></g><g
       id="g3830"
       transform="translate(24.696,57.177)"><path
         d="M 0,0 3.227,0 0,0 Z"
         style="fill:#7f8c8d;fill-opacity:1;fill-rule:nonzero;stroke:none"
         id="path3832"
         inkscape:connector-curvature="0" /></g><g
       id="g3834"
       transform="translate(27.9223,57.1768)"><path
         d="M 0,0 -3.227,0"
         style="fill:none;stroke:#7f8c8d;stroke-width:0.79000002;stroke-linecap:round;stroke-linejoin:round;stroke-miterlimit:10;stroke-dasharray:none;stroke-opacity:1"
         id="path3836"
         inkscape:connector-curvature="0" /></g><g
       id="g3838"
       transform="translate(24.696,76.7772)"><path
         d="M 0,0 3.227,0 0,0 Z"
         style="fill:#7f8c8d;fill-opacity:1;fill-rule:nonzero;stroke:none"
         id="path3840"
         inkscape:connector-curvature="0" /></g><g
       id="g3842"
       transform="translate(27.9223,76.7769)"><path
         d="M 0,0 -3.227,0"
         style="fill:none;stroke:#7f8c8d;stroke-width:0.79000002;stroke-linecap:round;stroke-linejoin:round;stroke-miterlimit:10;stroke-dasharray:none;stroke-opacity:1"
         id="path3844"
         inkscape:connector-curvature="0" /></g><g
       id="g3846"
       transform="translate(24.696,96.3765)"><path
         d="M 0,0 3.227,0 0,0 Z"
         style="fill:#7f8c8d;fill-opacity:1;fill-rule:nonzero;stroke:none"
         id="path3848"
         inkscape:connector-curvature="0" /></g><g
       id="g3850"
       transform="translate(27.9223,96.3769)"><path
         d="M 0,0 -3.227,0"
         style="fill:none;stroke:#7f8c8d;stroke-width:0.79000002;stroke-linecap:round;stroke-linejoin:round;stroke-miterlimit:10;stroke-dasharray:none;stroke-opacity:1"
         id="path3852"
         inkscape:connector-curvature="0" /></g><g
       id="g3854"
       transform="translate(24.696,115.9767)"><path
         d="M 0,0 3.227,0 0,0 Z"
         style="fill:#7f8c8d;fill-opacity:1;fill-rule:nonzero;stroke:none"
         id="path3856"
         inkscape:connector-curvature="0" /></g><g
       id="g3858"
       transform="translate(27.9223,115.977)"><path
         d="M 0,0 -3.227,0"
         style="fill:none;stroke:#7f8c8d;stroke-width:0.79000002;stroke-linecap:round;stroke-linejoin:round;stroke-miterlimit:10;stroke-dasharray:none;stroke-opacity:1"
         id="path3860"
         inkscape:connector-curvature="0" /></g><g
       id="g3862"
       transform="translate(24.696,135.5769)"><path
         d="M 0,0 3.227,0 0,0 Z"
         style="fill:#7f8c8d;fill-opacity:1;fill-rule:nonzero;stroke:none"
         id="path3864"
         inkscape:connector-curvature="0" /></g><g
       id="g3866"
       transform="translate(27.9223,135.577)"><path
         d="M 0,0 -3.227,0"
         style="fill:none;stroke:#7f8c8d;stroke-width:0.79000002;stroke-linecap:round;stroke-linejoin:round;stroke-miterlimit:10;stroke-dasharray:none;stroke-opacity:1"
         id="path3868"
         inkscape:connector-curvature="0" /></g><g
       id="g3870"
       transform="translate(24.696,155.1771)"><path
         d="M 0,0 3.227,0 0,0 Z"
         style="fill:#7f8c8d;fill-opacity:1;fill-rule:nonzero;stroke:none"
         id="path3872"
         inkscape:connector-curvature="0" /></g><g
       id="g3874"
       transform="translate(27.9223,155.1771)"><path
         d="M 0,0 -3.227,0"
         style="fill:none;stroke:#7f8c8d;stroke-width:0.79000002;stroke-linecap:round;stroke-linejoin:round;stroke-miterlimit:10;stroke-dasharray:none;stroke-opacity:1"
         id="path3876"
         inkscape:connector-curvature="0" /></g><g
       id="g3878"
       transform="translate(24.696,174.7773)"><path
         d="M 0,0 3.227,0 0,0 Z"
         style="fill:#7f8c8d;fill-opacity:1;fill-rule:nonzero;stroke:none"
         id="path3880"
         inkscape:connector-curvature="0" /></g><g
       id="g3882"
       transform="translate(27.9223,174.7772)"><path
         d="M 0,0 -3.227,0"
         style="fill:none;stroke:#7f8c8d;stroke-width:0.79000002;stroke-linecap:round;stroke-linejoin:round;stroke-miterlimit:10;stroke-dasharray:none;stroke-opacity:1"
         id="path3884"
         inkscape:connector-curvature="0" /></g><g
       id="g3886"
       transform="translate(39.6765,28.4085)"><path
         d="M 0,0 0,3.682 0,0 Z"
         style="fill:#7f8c8d;fill-opacity:1;fill-rule:nonzero;stroke:none"
         id="path3888"
         inkscape:connector-curvature="0" /></g><g
       id="g3890"
       transform="translate(39.6767,32.09)"><path
         d="M 0,0 0,-3.682"
         style="fill:none;stroke:#7f8c8d;stroke-width:0.79000002;stroke-linecap:round;stroke-linejoin:round;stroke-miterlimit:10;stroke-dasharray:none;stroke-opacity:1"
         id="path3892"
         inkscape:connector-curvature="0" /></g><g
       id="g3894"
       transform="translate(58.0455,28.4085)"><path
         d="M 0,0 0,3.682 0,0 Z"
         style="fill:#7f8c8d;fill-opacity:1;fill-rule:nonzero;stroke:none"
         id="path3896"
         inkscape:connector-curvature="0" /></g><g
       id="g3898"
       transform="translate(58.0455,32.09)"><path
         d="M 0,0 0,-3.682"
         style="fill:none;stroke:#7f8c8d;stroke-width:0.79000002;stroke-linecap:round;stroke-linejoin:round;stroke-miterlimit:10;stroke-dasharray:none;stroke-opacity:1"
         id="path3900"
         inkscape:connector-curvature="0" /></g><g
       id="g3902"
       transform="translate(76.4145,28.4085)"><path
         d="M 0,0 0,3.682 0,0 Z"
         style="fill:#7f8c8d;fill-opacity:1;fill-rule:nonzero;stroke:none"
         id="path3904"
         inkscape:connector-curvature="0" /></g><g
       id="g3906"
       transform="translate(76.4142,32.09)"><path
         d="M 0,0 0,-3.682"
         style="fill:none;stroke:#7f8c8d;stroke-width:0.79000002;stroke-linecap:round;stroke-linejoin:round;stroke-miterlimit:10;stroke-dasharray:none;stroke-opacity:1"
         id="path3908"
         inkscape:connector-curvature="0" /></g><g
       id="g3910"
       transform="translate(94.7826,28.4085)"><path
         d="M 0,0 0,3.682 0,0 Z"
         style="fill:#7f8c8d;fill-opacity:1;fill-rule:nonzero;stroke:none"
         id="path3912"
         inkscape:connector-curvature="0" /></g><g
       id="g3914"
       transform="translate(94.783,32.09)"><path
         d="M 0,0 0,-3.682"
         style="fill:none;stroke:#7f8c8d;stroke-width:0.79000002;stroke-linecap:round;stroke-linejoin:round;stroke-miterlimit:10;stroke-dasharray:none;stroke-opacity:1"
         id="path3916"
         inkscape:connector-curvature="0" /></g><g
       id="g3918"
       transform="translate(113.1471,28.4085)"><path
         d="M 0,0 0,3.682 0,0 Z"
         style="fill:#7f8c8d;fill-opacity:1;fill-rule:nonzero;stroke:none"
         id="path3920"
         inkscape:connector-curvature="0" /></g><g
       id="g3922"
       transform="translate(113.1473,32.09)"><path
         d="M 0,0 0,-3.682"
         style="fill:none;stroke:#7f8c8d;stroke-width:0.79000002;stroke-linecap:round;stroke-linejoin:round;stroke-miterlimit:10;stroke-dasharray:none;stroke-opacity:1"
         id="path3924"
         inkscape:connector-curvature="0" /></g><g
       id="g3926"
       transform="translate(131.5161,28.4085)"><path
         d="M 0,0 0,3.682 0,0 Z"
         style="fill:#7f8c8d;fill-opacity:1;fill-rule:nonzero;stroke:none"
         id="path3928"
         inkscape:connector-curvature="0" /></g><g
       id="g3930"
       transform="translate(131.5161,32.09)"><path
         d="M 0,0 0,-3.682"
         style="fill:none;stroke:#7f8c8d;stroke-width:0.79000002;stroke-linecap:round;stroke-linejoin:round;stroke-miterlimit:10;stroke-dasharray:none;stroke-opacity:1"
         id="path3932"
         inkscape:connector-curvature="0" /></g><g
       id="g3934"
       transform="translate(149.8851,28.4085)"><path
         d="M 0,0 0,3.682 0,0 Z"
         style="fill:#7f8c8d;fill-opacity:1;fill-rule:nonzero;stroke:none"
         id="path3936"
         inkscape:connector-curvature="0" /></g><g
       id="g3938"
       transform="translate(149.8849,32.09)"><path
         d="M 0,0 0,-3.682"
         style="fill:none;stroke:#7f8c8d;stroke-width:0.79000002;stroke-linecap:round;stroke-linejoin:round;stroke-miterlimit:10;stroke-dasharray:none;stroke-opacity:1"
         id="path3940"
         inkscape:connector-curvature="0" /></g><g
       id="g3942"
       transform="translate(168.2541,28.4085)"><path
         d="M 0,0 0,3.682 0,0 Z"
         style="fill:#7f8c8d;fill-opacity:1;fill-rule:nonzero;stroke:none"
         id="path3944"
         inkscape:connector-curvature="0" /></g><g
       id="g3946"
       transform="translate(168.2537,32.09)"><path
         d="M 0,0 0,-3.682"
         style="fill:none;stroke:#7f8c8d;stroke-width:0.79000002;stroke-linecap:round;stroke-linejoin:round;stroke-miterlimit:10;stroke-dasharray:none;stroke-opacity:1"
         id="path3948"
         inkscape:connector-curvature="0" /></g><g
       id="g3950"
       transform="translate(186.6177,28.4085)"><path
         d="M 0,0 0,3.682 0,0 Z"
         style="fill:#7f8c8d;fill-opacity:1;fill-rule:nonzero;stroke:none"
         id="path3952"
         inkscape:connector-curvature="0" /></g><g
       id="g3954"
       transform="translate(186.618,32.09)"><path
         d="M 0,0 0,-3.682"
         style="fill:none;stroke:#7f8c8d;stroke-width:0.79000002;stroke-linecap:round;stroke-linejoin:round;stroke-miterlimit:10;stroke-dasharray:none;stroke-opacity:1"
         id="path3956"
         inkscape:connector-curvature="0" /></g><g
       id="g3958"
       transform="translate(204.9867,28.4085)"><path
         d="M 0,0 0,3.682 0,0 Z"
         style="fill:#7f8c8d;fill-opacity:1;fill-rule:nonzero;stroke:none"
         id="path3960"
         inkscape:connector-curvature="0" /></g><g
       id="g3962"
       transform="translate(204.9867,32.09)"><path
         d="M 0,0 0,-3.682"
         style="fill:none;stroke:#7f8c8d;stroke-width:0.79000002;stroke-linecap:round;stroke-linejoin:round;stroke-miterlimit:10;stroke-dasharray:none;stroke-opacity:1"
         id="path3964"
         inkscape:connector-curvature="0" /></g><g
       id="g3966"
       transform="translate(223.3557,28.4085)"><path
         d="M 0,0 0,3.682 0,0 Z"
         style="fill:#7f8c8d;fill-opacity:1;fill-rule:nonzero;stroke:none"
         id="path3968"
         inkscape:connector-curvature="0" /></g><g
       id="g3970"
       transform="translate(223.3555,32.09)"><path
         d="M 0,0 0,-3.682"
         style="fill:none;stroke:#7f8c8d;stroke-width:0.79000002;stroke-linecap:round;stroke-linejoin:round;stroke-miterlimit:10;stroke-dasharray:none;stroke-opacity:1"
         id="path3972"
         inkscape:connector-curvature="0" /></g><g
       id="g3974"
       transform="translate(241.7247,28.4085)"><path
         d="M 0,0 0,3.682 0,0 Z"
         style="fill:#7f8c8d;fill-opacity:1;fill-rule:nonzero;stroke:none"
         id="path3976"
         inkscape:connector-curvature="0" /></g><g
       id="g3978"
       transform="translate(241.7243,32.09)"><path
         d="M 0,0 0,-3.682"
         style="fill:none;stroke:#7f8c8d;stroke-width:0.79000002;stroke-linecap:round;stroke-linejoin:round;stroke-miterlimit:10;stroke-dasharray:none;stroke-opacity:1"
         id="path3980"
         inkscape:connector-curvature="0" /></g><g
       id="g3982"
       transform="translate(260.0928,28.4085)"><path
         d="M 0,0 0,3.682 0,0 Z"
         style="fill:#7f8c8d;fill-opacity:1;fill-rule:nonzero;stroke:none"
         id="path3984"
         inkscape:connector-curvature="0" /></g><g
       id="g3986"
       transform="translate(260.0931,32.09)"><path
         d="M 0,0 0,-3.682"
         style="fill:none;stroke:#7f8c8d;stroke-width:0.79000002;stroke-linecap:round;stroke-linejoin:round;stroke-miterlimit:10;stroke-dasharray:none;stroke-opacity:1"
         id="path3988"
         inkscape:connector-curvature="0" /></g><g
       id="g3990"
       transform="translate(278.4573,28.4085)"><path
         d="M 0,0 0,3.682 0,0 Z"
         style="fill:#7f8c8d;fill-opacity:1;fill-rule:nonzero;stroke:none"
         id="path3992"
         inkscape:connector-curvature="0" /></g><g
       id="g3994"
       transform="translate(278.4574,32.09)"><path
         d="M 0,0 0,-3.682"
         style="fill:none;stroke:#7f8c8d;stroke-width:0.79000002;stroke-linecap:round;stroke-linejoin:round;stroke-miterlimit:10;stroke-dasharray:none;stroke-opacity:1"
         id="path3996"
         inkscape:connector-curvature="0" /></g><g
       id="g3998"
       transform="translate(296.8263,28.4085)"><path
         d="M 0,0 0,3.682 0,0 Z"
         style="fill:#7f8c8d;fill-opacity:1;fill-rule:nonzero;stroke:none"
         id="path4000"
         inkscape:connector-curvature="0" /></g><g
       id="g4002"
       transform="translate(296.8261,32.09)"><path
         d="M 0,0 0,-3.682"
         style="fill:none;stroke:#7f8c8d;stroke-width:0.79000002;stroke-linecap:round;stroke-linejoin:round;stroke-miterlimit:10;stroke-dasharray:none;stroke-opacity:1"
         id="path4004"
         inkscape:connector-curvature="0" /></g><g
       id="g4006"
       transform="translate(315.1953,28.4085)"><path
         d="M 0,0 0,3.682 0,0 Z"
         style="fill:#7f8c8d;fill-opacity:1;fill-rule:nonzero;stroke:none"
         id="path4008"
         inkscape:connector-curvature="0" /></g><g
       id="g4010"
       transform="translate(315.1949,32.09)"><path
         d="M 0,0 0,-3.682"
         style="fill:none;stroke:#7f8c8d;stroke-width:0.79000002;stroke-linecap:round;stroke-linejoin:round;stroke-miterlimit:10;stroke-dasharray:none;stroke-opacity:1"
         id="path4012"
         inkscape:connector-curvature="0" /></g><g
       id="g4014"
       transform="translate(333.5634,28.4085)"><path
         d="M 0,0 0,3.682 0,0 Z"
         style="fill:#7f8c8d;fill-opacity:1;fill-rule:nonzero;stroke:none"
         id="path4016"
         inkscape:connector-curvature="0" /></g><g
       id="g4018"
       transform="translate(333.5637,32.09)"><path
         d="M 0,0 0,-3.682"
         style="fill:none;stroke:#7f8c8d;stroke-width:0.79000002;stroke-linecap:round;stroke-linejoin:round;stroke-miterlimit:10;stroke-dasharray:none;stroke-opacity:1"
         id="path4020"
         inkscape:connector-curvature="0" /></g><text
       transform="matrix(0.87636766,0,0,-1,33.6987,18.8359)"
       style="font-variant:normal;font-weight:500;font-stretch:normal;font-size:6.77250004px;font-family:DINOT;-inkscape-font-specification:DINOT;writing-mode:lr-tb;fill:#7f8c8d;fill-opacity:1;fill-rule:nonzero;stroke:none"
       id="text4022"><tspan
         x="0 3.6097424 7.2194848 10.829227 41.915001 45.524746 49.134487 52.744228 62.875889 66.485634 70.095375 73.705116 83.836777 87.446518 91.056259 94.666008 104.79767 108.40741 112.01715 115.62689 146.71266 150.3224 153.93216 157.5419 167.67355 171.28329 174.89304 178.50278 188.63445 192.24419 195.85393 199.46367 209.59534 213.20508 216.81482 220.42456 251.51033 255.12007 258.72983 262.33957 272.47122 276.08096 279.6907 283.30045 293.4321 297.04184 300.65158 304.26132 314.39301 318.00275 321.61249 325.22223"
         y="0"
         sodipodi:role="line"
         id="tspan4024">1999200120022003200420062007200820092011201220132014</tspan></text>
<g
       id="g4026"
       transform="translate(39.6767,131.9567)"><path
         d="m 0,0 18.369,-0.992 18.369,4.674 18.368,-4.48 18.365,1.514 18.368,3.395 18.369,-1.825 18.369,-0.849 18.364,-1.36 18.369,-0.021 18.369,-0.859 18.369,2.163 18.368,0.813 18.365,-0.347 18.368,0.521 18.369,0.44 18.369,-0.736"
         style="fill:none;stroke:#2c3e50;stroke-width:2.10599995;stroke-linecap:round;stroke-linejoin:round;stroke-miterlimit:10;stroke-dasharray:none;stroke-opacity:1"
         id="path4028"
         inkscape:connector-curvature="0" /></g><g
       id="g4030"
       transform="translate(345.3183,37.5768)"><path
         d="M 0,0 0,137.201 0,0 Z"
         style="fill:#7f8c8d;fill-opacity:1;fill-rule:nonzero;stroke:none"
         id="path4032"
         inkscape:connector-curvature="0" /></g><g
       id="g4034"
       transform="translate(345.3181,37.5768)"><path
         d="M 0,0 0,137.2"
         style="fill:none;stroke:#7f8c8d;stroke-width:0.79000002;stroke-linecap:round;stroke-linejoin:round;stroke-miterlimit:10;stroke-dasharray:none;stroke-opacity:1"
         id="path4036"
         inkscape:connector-curvature="0" /></g><g
       id="g4038"
       transform="translate(345.3183,37.5768)"><path
         d="M 0,0 3.227,0 0,0 Z"
         style="fill:#7f8c8d;fill-opacity:1;fill-rule:nonzero;stroke:none"
         id="path4040"
         inkscape:connector-curvature="0" /></g><g
       id="g4042"
       transform="translate(345.3181,37.5768)"><path
         d="M 0,0 3.227,0"
         style="fill:none;stroke:#7f8c8d;stroke-width:0.79000002;stroke-linecap:round;stroke-linejoin:round;stroke-miterlimit:10;stroke-dasharray:none;stroke-opacity:1"
         id="path4044"
         inkscape:connector-curvature="0" /></g><g
       id="g4046"
       transform="translate(345.3183,65.016)"><path
         d="M 0,0 3.227,0 0,0 Z"
         style="fill:#7f8c8d;fill-opacity:1;fill-rule:nonzero;stroke:none"
         id="path4048"
         inkscape:connector-curvature="0" /></g><g
       id="g4050"
       transform="translate(345.3181,65.0158)"><path
         d="M 0,0 3.227,0"
         style="fill:none;stroke:#7f8c8d;stroke-width:0.79000002;stroke-linecap:round;stroke-linejoin:round;stroke-miterlimit:10;stroke-dasharray:none;stroke-opacity:1"
         id="path4052"
         inkscape:connector-curvature="0" /></g><g
       id="g4054"
       transform="translate(345.3183,92.4552)"><path
         d="M 0,0 3.227,0 0,0 Z"
         style="fill:#7f8c8d;fill-opacity:1;fill-rule:nonzero;stroke:none"
         id="path4056"
         inkscape:connector-curvature="0" /></g><g
       id="g4058"
       transform="translate(345.3181,92.4549)"><path
         d="M 0,0 3.227,0"
         style="fill:none;stroke:#7f8c8d;stroke-width:0.79000002;stroke-linecap:round;stroke-linejoin:round;stroke-miterlimit:10;stroke-dasharray:none;stroke-opacity:1"
         id="path4060"
         inkscape:connector-curvature="0" /></g><g
       id="g4062"
       transform="translate(345.3183,119.8989)"><path
         d="M 0,0 3.227,0 0,0 Z"
         style="fill:#7f8c8d;fill-opacity:1;fill-rule:nonzero;stroke:none"
         id="path4064"
         inkscape:connector-curvature="0" /></g><g
       id="g4066"
       transform="translate(345.3181,119.899)"><path
         d="M 0,0 3.227,0"
         style="fill:none;stroke:#7f8c8d;stroke-width:0.79000002;stroke-linecap:round;stroke-linejoin:round;stroke-miterlimit:10;stroke-dasharray:none;stroke-opacity:1"
         id="path4068"
         inkscape:connector-curvature="0" /></g><g
       id="g4070"
       transform="translate(345.3183,147.3381)"><path
         d="M 0,0 3.227,0 0,0 Z"
         style="fill:#7f8c8d;fill-opacity:1;fill-rule:nonzero;stroke:none"
         id="path4072"
         inkscape:connector-curvature="0" /></g><g
       id="g4074"
       transform="translate(345.3181,147.3381)"><path
         d="M 0,0 3.227,0"
         style="fill:none;stroke:#7f8c8d;stroke-width:0.79000002;stroke-linecap:round;stroke-linejoin:round;stroke-miterlimit:10;stroke-dasharray:none;stroke-opacity:1"
         id="path4076"
         inkscape:connector-curvature="0" /></g><g
       id="g4078"
       transform="translate(345.3183,174.7773)"><path
         d="M 0,0 3.227,0 0,0 Z"
         style="fill:#7f8c8d;fill-opacity:1;fill-rule:nonzero;stroke:none"
         id="path4080"
         inkscape:connector-curvature="0" /></g><g
       id="g4082"
       transform="translate(345.3181,174.7772)"><path
         d="M 0,0 3.227,0"
         style="fill:none;stroke:#7f8c8d;stroke-width:0.79000002;stroke-linecap:round;stroke-linejoin:round;stroke-miterlimit:10;stroke-dasharray:none;stroke-opacity:1"
         id="path4084"
         inkscape:connector-curvature="0" /></g><text
       transform="matrix(0.87636766,0,0,-1,351.5332,36.1465)"
       style="font-variant:normal;font-weight:500;font-stretch:normal;font-size:6.77250004px;font-family:DINOT;-inkscape-font-specification:DINOT;writing-mode:lr-tb;fill:#7f8c8d;fill-opacity:1;fill-rule:nonzero;stroke:none"
       id="text4086"><tspan
         x="0"
         y="0"
         id="tspan4088">0</tspan><tspan
         x="0"
         y="-27.442169"
         id="tspan4090">2</tspan><tspan
         x="0"
         y="-54.884338"
         id="tspan4092">4</tspan><tspan
         x="0"
         y="-82.31974"
         id="tspan4094">6</tspan><tspan
         x="0"
         y="-109.75513"
         id="tspan4096">8</tspan><tspan
         x="-1.95048 1.6592625"
         y="-137.19731"
         sodipodi:role="line"
         id="tspan4098">10</tspan></text>
<text
       transform="matrix(0.83830735,0.54519793,0.54519793,-0.83830735,42.0969,64.7299)"
       style="font-variant:normal;font-weight:300;font-stretch:normal;font-size:5.9701252px;font-family:DINOT;-inkscape-font-specification:DINOT;writing-mode:lr-tb;fill:#4eba6f;fill-opacity:1;fill-rule:nonzero;stroke:none"
       id="text4100"><tspan
         x="0 3.8149102 5.3372922 9.2596645 12.38204 14.949194 16.411875 19.53425 23.784979"
         y="0"
         sodipodi:role="line"
         id="tspan4102"># Reviews</tspan></text>
<text
       transform="matrix(0.87636766,0,0,-1,56.6514,50.2207)"
       style="font-variant:normal;font-weight:normal;font-stretch:normal;font-size:6.77250004px;font-family:DINOT;-inkscape-font-specification:DINOT;writing-mode:lr-tb;fill:#7f8c8d;fill-opacity:1;fill-rule:nonzero;stroke:none"
       id="text4104"><tspan
         x="0 5.52636 9.1157846 12.143092 15.732517 19.423531 21.109882 23.358353 26.947777 28.63413 32.948212 36.754356 38.4678 41.786324 45.34866 49.026127 52.615551"
         y="0"
         sodipodi:role="line"
         id="tspan4106">Moved to Chicago.</tspan><tspan
         x="49.649197 53.360527 56.21175 59.774086 61.90065 65.706795 69.025322 70.71167 74.301094 77.538353 81.229362 83.240799 86.830223 90.521233 94.110657 97.469818 99.156174 101.28274 104.13396 107.72339 113.67641 115.36276 118.89801 122.43326 124.22119 127.75644 131.29169 134.82693"
         y="-45.998821"
         sodipodi:role="line"
         id="tspan4108">Traffc explodes from 30,000 </tspan><tspan
         x="49.649197 51.897667 55.487091 57.173447 60.708691 64.243935 67.779182 69.567123 73.102364 76.637611 80.172852 81.859207 84.886513 86.59996 89.959114 91.672562 93.921028 97.28019 98.966545 102.65755 106.24698 109.09821 110.78455 114.47557 118.0379 121.06521"
         y="-37.871819"
         sodipodi:role="line"
         id="tspan4110">to 150,000 visits per day.</tspan></text>
<g
       id="g4112"
       transform="translate(52.2612,52.8417)"><path
         d="M 0,0 3.335,0 0,0 Z"
         style="fill:#7f8c8d;fill-opacity:1;fill-rule:nonzero;stroke:none"
         id="path4114"
         inkscape:connector-curvature="0" /></g><g
       id="g4116"
       transform="translate(55.5953,52.8414)"><path
         d="M 0,0 -3.334,0"
         style="fill:none;stroke:#7f8c8d;stroke-width:0.79000002;stroke-linecap:round;stroke-linejoin:round;stroke-miterlimit:10;stroke-dasharray:none;stroke-opacity:1"
         id="path4118"
         inkscape:connector-curvature="0" /></g><g
       id="g4120"
       transform="translate(52.2615,52.8414)"><path
         d="M 0,0 -8.159,5.343"
         style="fill:none;stroke:#7f8c8d;stroke-width:0.79000002;stroke-linecap:round;stroke-linejoin:round;stroke-miterlimit:10;stroke-dasharray:none;stroke-opacity:1"
         id="path4122"
         inkscape:connector-curvature="0" /></g><g
       id="g4124"
       transform="translate(94.7826,98.5689)"><path
         d="M 0,0 3.334,0 0,0 Z"
         style="fill:#7f8c8d;fill-opacity:1;fill-rule:nonzero;stroke:none"
         id="path4126"
         inkscape:connector-curvature="0" /></g><g
       id="g4128"
       transform="translate(98.1169,98.5685)"><path
         d="M 0,0 -3.334,0"
         style="fill:none;stroke:#7f8c8d;stroke-width:0.79000002;stroke-linecap:round;stroke-linejoin:round;stroke-miterlimit:10;stroke-dasharray:none;stroke-opacity:1"
         id="path4130"
         inkscape:connector-curvature="0" /></g><g
       id="g4132"
       transform="translate(94.783,98.5685)"><path
         d="M 0,0 -11.991,-12.573"
         style="fill:none;stroke:#7f8c8d;stroke-width:0.79000002;stroke-linecap:round;stroke-linejoin:round;stroke-miterlimit:10;stroke-dasharray:none;stroke-opacity:1"
         id="path4134"
         inkscape:connector-curvature="0" /></g><text
       transform="matrix(0.87636766,0,0,-1,271.6035,100.499)"
       style="font-variant:normal;font-weight:normal;font-stretch:normal;font-size:6.77250004px;font-family:DINOT;-inkscape-font-specification:DINOT;writing-mode:lr-tb;fill:#7f8c8d;fill-opacity:1;fill-rule:nonzero;stroke:none"
       id="text4136"><tspan
         x="0 4.266675 7.82901 10.680232 12.928702 14.642145 18.204479 20.215912 21.902266 24.929573 28.518997 32.081333 34.932556 36.618908 40.309921 43.872253 46.120724 49.68306"
         y="0"
         sodipodi:role="line"
         id="tspan4138">Partial year data.</tspan></text>
<g
       id="g4140"
       transform="translate(318.7053,102.2706)"><path
         d="M 0,0 9.782,0 0,0 Z"
         style="fill:#7f8c8d;fill-opacity:1;fill-rule:nonzero;stroke:none"
         id="path4142"
         inkscape:connector-curvature="0" /></g><g
       id="g4144"
       transform="translate(328.4879,102.2702)"><path
         d="M 0,0 -9.782,0"
         style="fill:none;stroke:#7f8c8d;stroke-width:0.79000002;stroke-linecap:round;stroke-linejoin:round;stroke-miterlimit:10;stroke-dasharray:none;stroke-opacity:1"
         id="path4146"
         inkscape:connector-curvature="0" /></g><text
       transform="matrix(1,0,0,-1,294.978,10.1055)"
       style="font-variant:normal;font-weight:300;font-stretch:normal;font-size:5px;font-family:DINOT;-inkscape-font-specification:DINOT;writing-mode:lr-tb;fill:#34495e;fill-opacity:1;fill-rule:nonzero;stroke:none"
       id="text4148"><tspan
         x="0 3.3900001 6.0100002 7.6350002 10.255 11.53 14 16.629999 19.424999 21.469999 23.934999 26.549999 28.01 29.285 32.439999 33.665001 35.290001 37.755001 40.549999 42.07 44.700001 46.744999 49.380001 50.700001 53.165001 55.794998"
         y="0"
         sodipodi:role="line"
         id="tspan4150">Data source: Pitchfork.com</tspan><tspan
         x="-10.415 -7.0250001 -4.4099998 -1.9450001 -0.72000003 1.98 4.5949998 6.0300002 8.5 11.12 13.915 16.615 19.315001 21.93 24.395 25.620001 30.01 32.630001 34.064999 36.535 37.855 40.32 42.950001 47.34 48.630001 49.904999 52.474998 55.044998 57.615002"
         y="6"
         sodipodi:role="line"
         id="tspan4152">Decibelsanddecimals.com, 2015</tspan></text>
</g></svg>