<?xml version="1.0" encoding="UTF-8" standalone="no"?>
<!-- Created with Inkscape (http://www.inkscape.org/) -->

<svg
   xmlns:dc="http://purl.org/dc/elements/1.1/"
   xmlns:cc="http://creativecommons.org/ns#"
   xmlns:rdf="http://www.w3.org/1999/02/22-rdf-syntax-ns#"
   xmlns:svg="http://www.w3.org/2000/svg"
   xmlns="http://www.w3.org/2000/svg"
   xmlns:sodipodi="http://sodipodi.sourceforge.net/DTD/sodipodi-0.dtd"
   xmlns:inkscape="http://www.inkscape.org/namespaces/inkscape"
   id="svg4154"
   version="1.1"
   inkscape:version="0.91 r13725"
   xml:space="preserve"
   width="450"
   height="270"
   viewBox="0 0 450 270"
   sodipodi:docname="New Artists.ai.svg"><metadata
     id="metadata4160"><rdf:RDF><cc:Work
         rdf:about=""><dc:format>image/svg+xml</dc:format><dc:type
           rdf:resource="http://purl.org/dc/dcmitype/StillImage" /><dc:title></dc:title></cc:Work></rdf:RDF></metadata><defs
     id="defs4158"><clipPath
       clipPathUnits="userSpaceOnUse"
       id="clipPath4168"><path
         d="M 0,216 360,216 360,0 0,0 0,216 Z"
         id="path4170"
         inkscape:connector-curvature="0" /></clipPath></defs><sodipodi:namedview
     pagecolor="#ffffff"
     bordercolor="#666666"
     borderopacity="1"
     objecttolerance="10"
     gridtolerance="10"
     guidetolerance="10"
     inkscape:pageopacity="0"
     inkscape:pageshadow="2"
     inkscape:window-width="697"
     inkscape:window-height="480"
     id="namedview4156"
     showgrid="false"
     inkscape:zoom="0.75333333"
     inkscape:cx="225"
     inkscape:cy="135"
     inkscape:window-x="0"
     inkscape:window-y="300"
     inkscape:window-maximized="0"
     inkscape:current-layer="g4162" /><g
     id="g4162"
     inkscape:groupmode="layer"
     inkscape:label="New Artists"
     transform="matrix(1.25,0,0,-1.25,0,270)"><g
       id="g4164"><g
         id="g4166"
         clip-path="url(#clipPath4168)"><text
           transform="matrix(0,1,1,0,13.417,71.834)"
           style="font-variant:normal;font-weight:500;font-stretch:normal;font-size:7.81470013px;font-family:DINOT;-inkscape-font-specification:DINOT;writing-mode:lr-tb;fill:#34495e;fill-opacity:1;fill-rule:nonzero;stroke:none"
           id="text4172"><tspan
             x="0 5.6422133 10.080963 16.934454 21.255983 25.468107 28.89876 30.774288 34.970783 37.534004 39.409531 45.051746 49.26387 55.07019 56.945721 61.829906 65.260559 67.933189 69.996269 73.895805 76.568428"
             y="0"
             sodipodi:role="line"
             id="tspan4174">Number of New Artists</tspan></text>
</g></g><text
       transform="matrix(1,0,0,-1,150.1709,13.0166)"
       style="font-variant:normal;font-weight:500;font-stretch:normal;font-size:7.81470013px;font-family:DINOT;-inkscape-font-specification:DINOT;writing-mode:lr-tb;fill:#34495e;fill-opacity:1;fill-rule:nonzero;stroke:none"
       id="text4176"><tspan
         x="0 5.2045903 9.3463812 12.019009 16.231133 18.106661 22.303154 24.866375 26.741903 31.313503 33.376583 36.807236 40.706772 43.379398 45.254929 50.373558 54.585678 58.266403 60.329483 64.541611"
         y="0"
         sodipodi:role="line"
         id="tspan4178">Date of First Review</tspan></text>
<text
       transform="matrix(1,0,0,-1,43.0688,198.7324)"
       style="font-variant:normal;font-weight:bold;font-stretch:normal;font-size:11px;font-family:DINOT-Bold;-inkscape-font-specification:DINOT-Bold;writing-mode:lr-tb;fill:#34495e;fill-opacity:1;fill-rule:nonzero;stroke:none"
       id="text4180"><tspan
         x="0 6.908 9.9329996 13.805 19.084999 25.344 29.106001 35.078999 40.084 46.233002 49.632 52.183998 60.005001 66.307999 75.944 82.103996 88.132004 93.137001 95.689003 103.51 109.538 117.887 120.439 127.457 132.46201 136.334 139.35899 144.87 148.742 154.25301 156.80499 162.965 168.399 170.951 178.2 184.07401 187.946 193.974 196.526 202.49899 206.261 208.813 215.30299 218.328 223.33299 228.84399 232.716 235.26801 242.46201 248.49001 253.91299 256.93799 262.966 271.315"
         y="0"
         sodipodi:role="line"
         id="tspan4182">Pitchfork: Number New Artists by Date of First Review </tspan></text>
<text
       transform="matrix(1,0,0,-1,175.5332,7.8105)"
       style="font-variant:normal;font-weight:300;font-stretch:normal;font-size:4.16499996px;font-family:DINOT;-inkscape-font-specification:DINOT;writing-mode:lr-tb;fill:#34495e;fill-opacity:1;fill-rule:nonzero;stroke:none"
       id="text4184"><tspan
         x="0 1.18286 3.9775751 5.7685251 6.8305998 10.23757 12.42836 14.756595 16.11022 18.438456"
         y="0"
         sodipodi:role="line"
         id="tspan4186">(By Month)</tspan></text>
<path
       d="m 24.857,34.481 322.544,0 0,151.628 -322.544,0 0,-151.628 z"
       style="fill:none;stroke:#808080;stroke-width:0.176;stroke-linecap:butt;stroke-linejoin:miter;stroke-miterlimit:10;stroke-dasharray:none;stroke-opacity:1"
       id="path4188"
       inkscape:connector-curvature="0" /><g
       id="g4190"
       transform="translate(23.2868,53.4329)"><path
         d="M 0,0 324.114,0"
         style="fill:none;stroke:#808080;stroke-width:0.185;stroke-linecap:butt;stroke-linejoin:miter;stroke-miterlimit:10;stroke-dasharray:none;stroke-opacity:1"
         id="path4192"
         inkscape:connector-curvature="0" /></g><g
       id="g4194"
       transform="translate(23.2868,91.3408)"><path
         d="M 0,0 324.114,0"
         style="fill:none;stroke:#808080;stroke-width:0.185;stroke-linecap:butt;stroke-linejoin:miter;stroke-miterlimit:10;stroke-dasharray:none;stroke-opacity:1"
         id="path4196"
         inkscape:connector-curvature="0" /></g><g
       id="g4198"
       transform="translate(23.2868,129.2487)"><path
         d="M 0,0 324.114,0"
         style="fill:none;stroke:#808080;stroke-width:0.185;stroke-linecap:butt;stroke-linejoin:miter;stroke-miterlimit:10;stroke-dasharray:none;stroke-opacity:1"
         id="path4200"
         inkscape:connector-curvature="0" /></g><g
       id="g4202"
       transform="translate(23.2868,167.1566)"><path
         d="M 0,0 324.114,0"
         style="fill:none;stroke:#808080;stroke-width:0.185;stroke-linecap:butt;stroke-linejoin:miter;stroke-miterlimit:10;stroke-dasharray:none;stroke-opacity:1"
         id="path4204"
         inkscape:connector-curvature="0" /></g><g
       id="g4206"
       transform="translate(23.2868,34.4808)"><path
         d="M 0,0 324.114,0"
         style="fill:none;stroke:#808080;stroke-width:0.185;stroke-linecap:butt;stroke-linejoin:miter;stroke-miterlimit:10;stroke-dasharray:none;stroke-opacity:1"
         id="path4208"
         inkscape:connector-curvature="0" /></g><g
       id="g4210"
       transform="translate(23.2868,72.3887)"><path
         d="M 0,0 324.114,0"
         style="fill:none;stroke:#808080;stroke-width:0.185;stroke-linecap:butt;stroke-linejoin:miter;stroke-miterlimit:10;stroke-dasharray:none;stroke-opacity:1"
         id="path4212"
         inkscape:connector-curvature="0" /></g><g
       id="g4214"
       transform="translate(23.2868,110.2966)"><path
         d="M 0,0 324.114,0"
         style="fill:none;stroke:#808080;stroke-width:0.185;stroke-linecap:butt;stroke-linejoin:miter;stroke-miterlimit:10;stroke-dasharray:none;stroke-opacity:1"
         id="path4216"
         inkscape:connector-curvature="0" /></g><g
       id="g4218"
       transform="translate(23.2868,148.2045)"><path
         d="M 0,0 324.114,0"
         style="fill:none;stroke:#808080;stroke-width:0.185;stroke-linecap:butt;stroke-linejoin:miter;stroke-miterlimit:10;stroke-dasharray:none;stroke-opacity:1"
         id="path4220"
         inkscape:connector-curvature="0" /></g><g
       id="g4222"
       transform="translate(23.2868,186.1087)"><path
         d="M 0,0 324.114,0"
         style="fill:none;stroke:#808080;stroke-width:0.185;stroke-linecap:butt;stroke-linejoin:miter;stroke-miterlimit:10;stroke-dasharray:none;stroke-opacity:1"
         id="path4224"
         inkscape:connector-curvature="0" /></g><g
       id="g4226"
       transform="translate(45.3194,32.7002)"><path
         d="M 0,0 0,153.256"
         style="fill:none;stroke:#808080;stroke-width:0.177;stroke-linecap:butt;stroke-linejoin:miter;stroke-miterlimit:10;stroke-dasharray:none;stroke-opacity:1"
         id="path4228"
         inkscape:connector-curvature="0" /></g><g
       id="g4230"
       transform="translate(64.8108,32.7002)"><path
         d="M 0,0 0,153.256"
         style="fill:none;stroke:#808080;stroke-width:0.177;stroke-linecap:butt;stroke-linejoin:miter;stroke-miterlimit:10;stroke-dasharray:none;stroke-opacity:1"
         id="path4232"
         inkscape:connector-curvature="0" /></g><g
       id="g4234"
       transform="translate(84.2985,32.7002)"><path
         d="M 0,0 0,153.256"
         style="fill:none;stroke:#808080;stroke-width:0.177;stroke-linecap:butt;stroke-linejoin:miter;stroke-miterlimit:10;stroke-dasharray:none;stroke-opacity:1"
         id="path4236"
         inkscape:connector-curvature="0" /></g><g
       id="g4238"
       transform="translate(103.7899,32.7002)"><path
         d="M 0,0 0,153.256"
         style="fill:none;stroke:#808080;stroke-width:0.177;stroke-linecap:butt;stroke-linejoin:miter;stroke-miterlimit:10;stroke-dasharray:none;stroke-opacity:1"
         id="path4240"
         inkscape:connector-curvature="0" /></g><g
       id="g4242"
       transform="translate(123.2775,32.7002)"><path
         d="M 0,0 0,153.256"
         style="fill:none;stroke:#808080;stroke-width:0.177;stroke-linecap:butt;stroke-linejoin:miter;stroke-miterlimit:10;stroke-dasharray:none;stroke-opacity:1"
         id="path4244"
         inkscape:connector-curvature="0" /></g><g
       id="g4246"
       transform="translate(142.7652,32.7002)"><path
         d="M 0,0 0,153.256"
         style="fill:none;stroke:#808080;stroke-width:0.177;stroke-linecap:butt;stroke-linejoin:miter;stroke-miterlimit:10;stroke-dasharray:none;stroke-opacity:1"
         id="path4248"
         inkscape:connector-curvature="0" /></g><g
       id="g4250"
       transform="translate(162.2566,32.7002)"><path
         d="M 0,0 0,153.256"
         style="fill:none;stroke:#808080;stroke-width:0.177;stroke-linecap:butt;stroke-linejoin:miter;stroke-miterlimit:10;stroke-dasharray:none;stroke-opacity:1"
         id="path4252"
         inkscape:connector-curvature="0" /></g><g
       id="g4254"
       transform="translate(181.7443,32.7002)"><path
         d="M 0,0 0,153.256"
         style="fill:none;stroke:#808080;stroke-width:0.177;stroke-linecap:butt;stroke-linejoin:miter;stroke-miterlimit:10;stroke-dasharray:none;stroke-opacity:1"
         id="path4256"
         inkscape:connector-curvature="0" /></g><g
       id="g4258"
       transform="translate(201.232,32.7002)"><path
         d="M 0,0 0,153.256"
         style="fill:none;stroke:#808080;stroke-width:0.177;stroke-linecap:butt;stroke-linejoin:miter;stroke-miterlimit:10;stroke-dasharray:none;stroke-opacity:1"
         id="path4260"
         inkscape:connector-curvature="0" /></g><g
       id="g4262"
       transform="translate(220.7234,32.7002)"><path
         d="M 0,0 0,153.256"
         style="fill:none;stroke:#808080;stroke-width:0.177;stroke-linecap:butt;stroke-linejoin:miter;stroke-miterlimit:10;stroke-dasharray:none;stroke-opacity:1"
         id="path4264"
         inkscape:connector-curvature="0" /></g><g
       id="g4266"
       transform="translate(240.2111,32.7002)"><path
         d="M 0,0 0,153.256"
         style="fill:none;stroke:#808080;stroke-width:0.177;stroke-linecap:butt;stroke-linejoin:miter;stroke-miterlimit:10;stroke-dasharray:none;stroke-opacity:1"
         id="path4268"
         inkscape:connector-curvature="0" /></g><g
       id="g4270"
       transform="translate(259.7025,32.7108)"><path
         d="M 0,0 0,153.245"
         style="fill:none;stroke:#808080;stroke-width:0.177;stroke-linecap:butt;stroke-linejoin:miter;stroke-miterlimit:10;stroke-dasharray:none;stroke-opacity:1"
         id="path4272"
         inkscape:connector-curvature="0" /></g><g
       id="g4274"
       transform="translate(279.1901,32.7108)"><path
         d="M 0,0 0,153.245"
         style="fill:none;stroke:#808080;stroke-width:0.177;stroke-linecap:butt;stroke-linejoin:miter;stroke-miterlimit:10;stroke-dasharray:none;stroke-opacity:1"
         id="path4276"
         inkscape:connector-curvature="0" /></g><g
       id="g4278"
       transform="translate(298.6778,32.7108)"><path
         d="M 0,0 0,153.245"
         style="fill:none;stroke:#808080;stroke-width:0.177;stroke-linecap:butt;stroke-linejoin:miter;stroke-miterlimit:10;stroke-dasharray:none;stroke-opacity:1"
         id="path4280"
         inkscape:connector-curvature="0" /></g><g
       id="g4282"
       transform="translate(318.1692,32.7108)"><path
         d="M 0,0 0,153.245"
         style="fill:none;stroke:#808080;stroke-width:0.177;stroke-linecap:butt;stroke-linejoin:miter;stroke-miterlimit:10;stroke-dasharray:none;stroke-opacity:1"
         id="path4284"
         inkscape:connector-curvature="0" /></g><g
       id="g4286"
       transform="translate(337.6569,32.6229)"><path
         d="M 0,0 0,153.333"
         style="fill:none;stroke:#808080;stroke-width:0.177;stroke-linecap:butt;stroke-linejoin:miter;stroke-miterlimit:10;stroke-dasharray:none;stroke-opacity:1"
         id="path4288"
         inkscape:connector-curvature="0" /></g><g
       id="g4290"
       transform="translate(347.4008,32.6229)"><path
         d="M 0,0 0,153.333"
         style="fill:none;stroke:#808080;stroke-width:0.177;stroke-linecap:butt;stroke-linejoin:miter;stroke-miterlimit:10;stroke-dasharray:none;stroke-opacity:1"
         id="path4292"
         inkscape:connector-curvature="0" /></g><g
       id="g4294"
       transform="translate(25.8317,43.9587)"><path
         d="M 0,0 1.625,32.22 3.247,17.057 4.872,0 l 1.625,20.847 1.625,9.478 1.622,9.478 1.625,-32.224 1.625,28.43 1.622,-9.474 1.625,-13.267 1.625,36.009 1.622,-15.162 1.625,5.688 1.625,-22.746 1.625,-5.688 1.622,13.268 1.625,24.64 1.625,-9.474 1.622,-3.794 1.625,-3.789 1.625,-11.373 1.622,-5.685 1.625,28.43 1.625,-39.802 1.625,113.723 1.622,-20.85 1.625,-17.057 1.625,-60.654 1.622,17.057 1.625,-22.741 1.625,7.579 1.622,-3.79 1.625,-1.895 1.625,-9.477 1.622,47.385 1.625,73.918 1.625,-45.488 1.625,-9.478 1.622,-9.477 1.625,34.118 1.625,7.583 1.622,-9.478 1.625,5.684 1.625,0 1.622,-5.684 1.625,-7.583 1.625,1.895 1.625,-7.58 1.622,17.058 1.625,-34.119 1.625,-37.904 1.622,89.08 1.625,-7.579 1.625,-9.478 1.622,-17.058 1.625,20.847 1.625,7.583 1.625,5.685 1.622,-18.952 1.625,-1.895 1.625,-18.956 1.622,3.794 1.625,-15.167 1.625,28.434 1.621,9.474 1.626,-13.267 1.625,-3.79 1.625,7.583 1.622,3.79 1.625,7.583 1.625,-20.851 1.622,-17.057 1.625,0 1.625,5.684 1.621,-45.487 1.626,49.277 1.625,13.268 1.621,-17.058 1.626,5.685 1.625,20.851 1.625,9.478 1.621,-22.746 1.626,-20.851 1.625,18.956 1.621,15.163 1.626,-30.325 1.625,-43.596 1.621,47.385 1.626,22.746 1.625,-26.535 1.625,-7.583 1.621,15.162 1.626,-7.579 1.625,1.895 1.621,-3.79 1.626,37.908 1.625,-45.491 1.621,5.684 1.626,-36.009 1.625,53.07 1.625,9.478 1.621,-9.478 1.626,3.79 1.625,-9.478 1.621,-11.373 1.626,24.641 1.625,-18.952 1.621,11.372 1.625,-18.955 1.626,-1.895 1.625,-39.803 1.621,54.965 1.626,-1.895 1.625,-7.579 1.621,20.847 1.626,-18.952 1.625,15.162 1.621,0 1.625,-9.478 1.626,-9.478 1.621,-26.535 1.625,13.268 1.626,-24.637 1.625,47.382 1.621,15.163 1.626,-9.474 1.625,-28.434 1.621,20.85 1.625,24.641 1.626,-36.013 1.621,-3.79 1.625,13.268 1.626,11.372 1.625,-26.535 1.621,-32.223 1.625,53.07 1.626,9.478 1.621,-13.268 1.625,-1.894 1.626,-3.79 1.621,9.474 1.625,5.688 1.626,-54.965 1.625,41.698 1.621,1.895 1.625,-3.79 1.626,-41.701 1.621,41.701 1.625,17.057 1.626,-28.43 1.621,9.474 1.625,13.268 1.626,-5.685 1.621,-3.789 1.625,5.684 1.625,3.79 1.626,-13.268 1.621,1.899 1.625,-24.64 1.626,28.43 1.621,32.219 1.625,-9.474 1.625,1.895 1.622,-15.162 1.625,-22.746 1.625,32.22 1.626,-43.593 1.621,26.535 1.625,-5.684 1.626,-17.061 1.621,-1.895 1.625,11.373 1.625,22.745 1.622,-17.061 1.625,9.478 1.625,-7.579 1.626,1.895 1.621,32.219 1.625,-45.487 1.626,5.685 1.621,-5.685 1.625,-18.956 1.625,-3.789 1.622,49.28 1.625,0 1.625,13.268 1.626,-28.43 1.621,18.952 1.625,11.373 1.625,-47.386 1.622,26.535 1.625,-26.535 1.625,30.329 1.622,11.372 1.625,-5.688 1.625,-11.373 1.622,24.641 1.625,-70.128"
         style="fill:none;stroke:#2f3f52;stroke-width:1.10800004;stroke-linecap:round;stroke-linejoin:round;stroke-miterlimit:10;stroke-dasharray:none;stroke-opacity:1"
         id="path4296"
         inkscape:connector-curvature="0" /></g><g
       id="g4298"
       transform="translate(25.8317,99.0236)"><path
         d="m 0,0 1.625,0.115 1.622,0.114 1.625,0.115 1.625,0.11 1.625,0.115 1.622,0.114 1.625,0.115 1.625,0.114 1.622,0.115 1.625,0.114 1.625,0.115 1.622,0.114 1.625,0.115 1.625,0.114 1.625,0.115 1.622,0.114 1.625,0.115 1.625,0.114 1.622,0.115 1.625,0.114 1.625,0.115 1.622,0.114 1.625,0.115 1.625,0.114 1.625,0.115 1.622,0.114 1.625,0.115 1.625,0.111 1.622,0.114 1.625,0.115 1.625,0.114 1.622,0.115 1.625,0.114 1.625,0.115 1.622,0.114 1.625,0.115 1.625,0.114 1.625,0.115 1.622,0.114 1.625,0.115 1.625,0.114 1.622,0.115 1.625,0.114 1.625,0.115 1.622,0.114 1.625,0.115 1.625,0.114 1.625,0.115 1.622,0.114 1.625,0.115 1.625,0.114 1.622,0.111 1.625,0.115 1.625,0.114 1.622,0.115 1.625,0.114 1.625,0.115 1.625,0.114 1.622,0.115 1.625,0.114 1.625,0.115 1.622,0.114 1.625,0.115 1.625,0.114 1.621,0.115 1.626,0.114 1.625,0.115 1.625,0.114 1.622,0.115 1.625,0.114 1.625,0.115 1.622,0.114 1.625,0.115 1.625,0.114 1.621,0.115 1.626,0.11 1.625,0.115 1.621,0.114 1.626,0.115 1.625,0.114 1.625,0.115 1.621,0.114 1.626,0.115 1.625,0.114 1.621,0.115 1.626,0.115 1.625,0.114 1.621,0.115 1.626,0.114 1.625,0.115 1.625,0.114 1.621,0.115 1.626,0.114 1.625,0.115 1.621,0.114 1.626,0.115 1.625,0.114 1.621,0.115 1.626,0.114 1.625,0.111 1.625,0.114 1.621,0.115 1.626,0.114 1.625,0.115 1.621,0.114 1.626,0.115 1.625,0.114 1.621,0.115 1.625,0.114 1.626,0.115 1.625,0.114 1.621,0.115 1.626,0.114 1.625,0.115 1.621,0.114 1.626,0.115 1.625,0.114 1.621,0.115 1.625,0.114 1.626,0.115 1.621,0.114 1.625,0.115 1.626,0.114 1.625,0.111 1.621,0.115 1.626,0.114 1.625,0.115 1.621,0.114 1.625,0.115 1.626,0.114 1.621,0.115 1.625,0.114 1.626,0.115 1.625,0.114 1.621,0.115 1.625,0.114 1.626,0.115 1.621,0.114 1.625,0.115 1.626,0.114 1.621,0.115 1.625,0.114 1.626,0.115 1.625,0.114 1.621,0.115 1.625,0.114 1.626,0.115 1.621,0.111 1.625,0.114 1.626,0.115 1.621,0.114 1.625,0.115 1.626,0.114 1.621,0.115 1.625,0.114 1.625,0.115 1.626,0.114 1.621,0.115 1.625,0.114 1.626,0.115 1.621,0.114 1.625,0.115 1.625,0.114 1.622,0.115 1.625,0.114 1.625,0.115 1.626,0.114 1.621,0.115 1.625,0.114 1.626,0.115 1.621,0.114 1.625,0.111 1.625,0.114 1.622,0.115 1.625,0.114 1.625,0.115 1.626,0.115 1.621,0.114 1.625,0.115 1.626,0.114 1.621,0.115 1.625,0.114 1.625,0.115 1.622,0.114 1.625,0.115 1.625,0.114 1.626,0.115 1.621,0.114 1.625,0.115 1.625,0.114 1.622,0.115 1.625,0.114 1.625,0.115 1.622,0.114 1.625,0.115 1.625,0.11 1.622,0.115 1.625,0.114"
         style="fill:none;stroke:#70c282;stroke-width:1.5;stroke-linecap:butt;stroke-linejoin:miter;stroke-miterlimit:10;stroke-dasharray:none;stroke-opacity:1"
         id="path4300"
         inkscape:connector-curvature="0" /></g><text
       transform="matrix(1,0,0,-1,20.1875,33.1553)"
       style="font-variant:normal;font-weight:normal;font-stretch:normal;font-size:3.69370008px;font-family:Arial;-inkscape-font-specification:ArialMT;writing-mode:lr-tb;fill:#808080;fill-opacity:1;fill-rule:nonzero;stroke:none"
       id="text4302"><tspan
         x="0"
         y="0"
         id="tspan4304">0</tspan><tspan
         x="-2.0536971 0"
         y="-37.908443"
         sodipodi:role="line"
         id="tspan4306">20</tspan><tspan
         x="-2.0536971 0"
         y="-57.200638"
         sodipodi:role="line"
         id="tspan4308">30</tspan><tspan
         x="-2.0536971 0"
         y="-19.292194"
         sodipodi:role="line"
         id="tspan4310">10</tspan><tspan
         x="-2.0536971 0"
         y="-75.816887"
         sodipodi:role="line"
         id="tspan4312">40</tspan><tspan
         x="-2.0536971 0"
         y="-95.109077"
         sodipodi:role="line"
         id="tspan4314">50</tspan><tspan
         x="-2.0536971 0"
         y="-113.72533"
         sodipodi:role="line"
         id="tspan4316">60</tspan><tspan
         x="-2.0536971 0"
         y="-133.02122"
         sodipodi:role="line"
         id="tspan4318">60</tspan><tspan
         x="-2.0536971 0"
         y="-151.63008"
         sodipodi:role="line"
         id="tspan4320">80</tspan></text>
<text
       transform="matrix(0.86602869,0.49999431,0.49999431,-0.86602869,15.4165,23.0363)"
       style="font-variant:normal;font-weight:normal;font-stretch:normal;font-size:3.69364214px;font-family:Arial;-inkscape-font-specification:ArialMT;writing-mode:lr-tb;fill:#808080;fill-opacity:1;fill-rule:nonzero;stroke:none"
       id="text4322"><tspan
         x="0 2.0536649 4.1073298 6.160995 8.2146597 10.371747"
         y="0"
         sodipodi:role="line"
         id="tspan4324">1999−1</tspan><tspan
         x="16.876251 18.929916 20.98358 23.037245 25.09091 27.247997"
         y="9.7438278"
         sodipodi:role="line"
         id="tspan4326">2000−1</tspan><tspan
         x="33.756195 35.80986 37.863525 39.917191 41.970856 44.127941"
         y="19.491348"
         sodipodi:role="line"
         id="tspan4328">2001−1</tspan><tspan
         x="50.632446 52.686111 54.739777 56.793442 58.847107 61.004192"
         y="29.235176"
         sodipodi:role="line"
         id="tspan4330">2002−1</tspan><tspan
         x="67.51239 69.566055 71.61972 73.673386 75.727051 77.88414"
         y="38.982697"
         sodipodi:role="line"
         id="tspan4332">2003−1</tspan><tspan
         x="84.388641 86.442307 88.495972 90.549637 92.603302 94.760384"
         y="48.726524"
         sodipodi:role="line"
         id="tspan4334">2004−1</tspan><tspan
         x="101.26489 103.31856 105.37222 107.42589 109.47955 111.63663"
         y="58.470352"
         sodipodi:role="line"
         id="tspan4336">2005−1</tspan><tspan
         x="118.14484 120.1985 122.25217 124.30583 126.3595 128.51659"
         y="68.217873"
         sodipodi:role="line"
         id="tspan4338">2006−1</tspan><tspan
         x="135.02109 137.07475 139.12842 141.18208 143.23575 145.39284"
         y="77.9617"
         sodipodi:role="line"
         id="tspan4340">2007−1</tspan><tspan
         x="151.89734 153.951 156.00467 158.05833 160.112 162.26909"
         y="87.705528"
         sodipodi:role="line"
         id="tspan4342">2008−1</tspan><tspan
         x="168.77728 170.83095 172.88461 174.93828 176.99194 179.14903"
         y="97.453049"
         sodipodi:role="line"
         id="tspan4344">2009−1</tspan><tspan
         x="185.65353 187.7072 189.76086 191.81453 193.86819 196.02528"
         y="107.19688"
         sodipodi:role="line"
         id="tspan4346">2010−1</tspan><tspan
         x="202.53348 204.58714 206.64081 208.69447 210.74814 212.90523"
         y="116.94071"
         sodipodi:role="line"
         id="tspan4348">2011−1</tspan><tspan
         x="219.40973 221.46339 223.51706 225.57072 227.62439 229.78148"
         y="126.68454"
         sodipodi:role="line"
         id="tspan4350">2012−1</tspan><tspan
         x="236.28598 238.33965 240.39331 242.44698 244.50064 246.65773"
         y="136.42836"
         sodipodi:role="line"
         id="tspan4352">2013−1</tspan><tspan
         x="253.16592 255.21959 257.27325 259.3269 261.38058 263.53766"
         y="146.17587"
         sodipodi:role="line"
         id="tspan4354">2014−1</tspan><tspan
         x="270.04218 272.09583 274.14951 276.20316 278.25684 280.41391"
         y="155.92342"
         sodipodi:role="line"
         id="tspan4356">2015−1</tspan><tspan
         x="280.08148 282.13516 284.18881 286.24249 288.29614 290.45325"
         y="161.71504"
         sodipodi:role="line"
         id="tspan4358">2015−7</tspan></text>
<g
       id="g4360"
       transform="translate(24.8566,32.7002)"><path
         d="M 0,0 0,153.256"
         style="fill:none;stroke:#808080;stroke-width:0.177;stroke-linecap:butt;stroke-linejoin:miter;stroke-miterlimit:10;stroke-dasharray:none;stroke-opacity:1"
         id="path4362"
         inkscape:connector-curvature="0" /></g><text
       transform="matrix(1,0,0,-1,289.2119,12.8486)"
       style="font-variant:normal;font-weight:300;font-stretch:normal;font-size:5px;font-family:DINOT;-inkscape-font-specification:DINOT;writing-mode:lr-tb;fill:#34495e;fill-opacity:1;fill-rule:nonzero;stroke:none"
       id="text4364"><tspan
         x="0 3.3900001 6.0100002 7.6350002 10.255 11.53 14 16.629999 19.424999 21.469999 23.934999 26.549999 28.01 29.285 32.439999 33.665001 35.290001 37.755001 40.549999 42.07 44.700001 46.744999 49.380001 50.700001 53.165001 55.794998"
         y="0"
         sodipodi:role="line"
         id="tspan4366">Data source: Pitchfork.com</tspan><tspan
         x="-10.415 -7.0250001 -4.4099998 -1.9450001 -0.72000003 1.98 4.5949998 6.0300002 8.5 11.12 13.915 16.615 19.315001 21.93 24.395 25.620001 30.01 32.630001 34.064999 36.535 37.855 40.32 42.950001 47.34 48.630001 49.904999 52.474998 55.044998 57.615002"
         y="6"
         sodipodi:role="line"
         id="tspan4368">Decibelsanddecimals.com, 2015</tspan></text>
</g></svg>