<?xml version="1.0" encoding="UTF-8" standalone="no"?>
<!-- Created with Inkscape (http://www.inkscape.org/) -->

<svg
   xmlns:dc="http://purl.org/dc/elements/1.1/"
   xmlns:cc="http://creativecommons.org/ns#"
   xmlns:rdf="http://www.w3.org/1999/02/22-rdf-syntax-ns#"
   xmlns:svg="http://www.w3.org/2000/svg"
   xmlns="http://www.w3.org/2000/svg"
   xmlns:sodipodi="http://sodipodi.sourceforge.net/DTD/sodipodi-0.dtd"
   xmlns:inkscape="http://www.inkscape.org/namespaces/inkscape"
   id="svg2"
   version="1.1"
   inkscape:version="0.91 r13725"
   xml:space="preserve"
   width="450"
   height="270"
   viewBox="0 0 450 270"
   sodipodi:docname="Tenure Stats.svg"><metadata
     id="metadata8"><rdf:RDF><cc:Work
         rdf:about=""><dc:format>image/svg+xml</dc:format><dc:type
           rdf:resource="http://purl.org/dc/dcmitype/StillImage" /><dc:title></dc:title></cc:Work></rdf:RDF></metadata><defs
     id="defs6"><clipPath
       clipPathUnits="userSpaceOnUse"
       id="clipPath32"><path
         d="M 0,216 360,216 360,0 0,0 0,216 Z"
         id="path34"
         inkscape:connector-curvature="0" /></clipPath><clipPath
       clipPathUnits="userSpaceOnUse"
       id="clipPath56"><path
         d="M 0,216 360,216 360,0 0,0 0,216 Z"
         id="path58"
         inkscape:connector-curvature="0" /></clipPath><clipPath
       clipPathUnits="userSpaceOnUse"
       id="clipPath78"><path
         d="M 0,216 360,216 360,0 0,0 0,216 Z"
         id="path80"
         inkscape:connector-curvature="0" /></clipPath><clipPath
       clipPathUnits="userSpaceOnUse"
       id="clipPath94"><path
         d="M 0,216 360,216 360,0 0,0 0,216 Z"
         id="path96"
         inkscape:connector-curvature="0" /></clipPath><clipPath
       clipPathUnits="userSpaceOnUse"
       id="clipPath116"><path
         d="M 0,216 360,216 360,0 0,0 0,216 Z"
         id="path118"
         inkscape:connector-curvature="0" /></clipPath><clipPath
       clipPathUnits="userSpaceOnUse"
       id="clipPath132"><path
         d="M 0,216 360,216 360,0 0,0 0,216 Z"
         id="path134"
         inkscape:connector-curvature="0" /></clipPath><clipPath
       clipPathUnits="userSpaceOnUse"
       id="clipPath148"><path
         d="M 0,216 360,216 360,0 0,0 0,216 Z"
         id="path150"
         inkscape:connector-curvature="0" /></clipPath><clipPath
       clipPathUnits="userSpaceOnUse"
       id="clipPath164"><path
         d="M 0,216 360,216 360,0 0,0 0,216 Z"
         id="path166"
         inkscape:connector-curvature="0" /></clipPath><clipPath
       clipPathUnits="userSpaceOnUse"
       id="clipPath180"><path
         d="M 0,216 360,216 360,0 0,0 0,216 Z"
         id="path182"
         inkscape:connector-curvature="0" /></clipPath><clipPath
       clipPathUnits="userSpaceOnUse"
       id="clipPath196"><path
         d="M 0,216 360,216 360,0 0,0 0,216 Z"
         id="path198"
         inkscape:connector-curvature="0" /></clipPath><clipPath
       clipPathUnits="userSpaceOnUse"
       id="clipPath212"><path
         d="M 0,216 360,216 360,0 0,0 0,216 Z"
         id="path214"
         inkscape:connector-curvature="0" /></clipPath><clipPath
       clipPathUnits="userSpaceOnUse"
       id="clipPath228"><path
         d="M 0,216 360,216 360,0 0,0 0,216 Z"
         id="path230"
         inkscape:connector-curvature="0" /></clipPath></defs><sodipodi:namedview
     pagecolor="#ffffff"
     bordercolor="#666666"
     borderopacity="1"
     objecttolerance="10"
     gridtolerance="10"
     guidetolerance="10"
     inkscape:pageopacity="0"
     inkscape:pageshadow="2"
     inkscape:window-width="697"
     inkscape:window-height="480"
     id="namedview4"
     showgrid="false"
     inkscape:zoom="0.76222222"
     inkscape:cx="225"
     inkscape:cy="135"
     inkscape:window-x="0"
     inkscape:window-y="300"
     inkscape:window-maximized="0"
     inkscape:current-layer="g10" /><g
     id="g10"
     inkscape:groupmode="layer"
     inkscape:label="Tenure Stats"
     transform="matrix(1.25,0,0,-1.25,0,270)"><text
       transform="matrix(0,1,0.98958809,0,12.4097,84.6201)"
       style="font-variant:normal;font-weight:500;font-stretch:normal;font-size:7.88520002px;font-family:DINOT;-inkscape-font-specification:DINOT;writing-mode:lr-tb;fill:#34495e;fill-opacity:1;fill-rule:nonzero;stroke:none"
       id="text12"><tspan
         x="0 4.9282498 8.6421795 12.892302 16.353905 20.53306 24.862036 29.112158 31.004606 35.656876 39.481197 43.715549 47.177151"
         y="0"
         sodipodi:role="line"
         id="tspan14">Average Score</tspan></text>
<text
       transform="matrix(1,0,0,-1,142.2515,9.7715)"
       style="font-variant:normal;font-weight:500;font-stretch:normal;font-size:7.50509977px;font-family:DINOT;-inkscape-font-specification:DINOT;writing-mode:lr-tb;fill:#34495e;fill-opacity:1;fill-rule:nonzero;stroke:none"
       id="text16"><tspan
         x="0 4.2028561 8.248105 12.511002 16.773899 20.068638 24.113886 25.91511 27.896456 32.159355 33.960579 38.958973 42.936676 46.449062"
         y="0"
         sodipodi:role="line"
         id="tspan18">Tenure in Days</tspan></text>
<text
       transform="matrix(1,0,0,-1,29.8032,198.7324)"
       style="font-variant:normal;font-weight:bold;font-stretch:normal;font-size:11px;font-family:DINOT-Bold;-inkscape-font-specification:DINOT-Bold;writing-mode:lr-tb;fill:#34495e;fill-opacity:1;fill-rule:nonzero;stroke:none"
       id="text20"><tspan
         x="0 6.908 9.9329996 13.805 19.084999 25.344 29.106001 35.078999 40.084 46.233002 49.632 52.183998 59.202 64.625 70.653 75.657997 81.531998 87.637001 93.665001 96.217003 102.718 107.998 113.971 118.976 125.004 127.556 133.52901 137.291 139.843 146.86099 150.436 154.011 156.563 163.757 169.785 175.20799 178.233 184.261 192.61 198.121 200.673 206.83299 212.267 214.819 222.013 228.041 233.464 236.489 242.517 250.866 256.89401 261.89899 264.45099 270.73199 276.76001 283.06299 289.366 294.371"
         y="0"
         sodipodi:role="line"
         id="tspan22">Pitchfork: Average Score of All Reviews by Reviewer Tenure</tspan></text>
<text
       transform="matrix(1,0,0,-1,134.8926,4.7715)"
       style="font-variant:normal;font-weight:300;font-stretch:normal;font-size:4px;font-family:DINOT;-inkscape-font-specification:DINOT;writing-mode:lr-tb;fill:#34495e;fill-opacity:1;fill-rule:nonzero;stroke:none"
       id="text24"><tspan
         x="0 1.136 4.408 6.5040002 8.3439999 9.3640003 11.992 14.084 15.804 16.784 18.875999 21.724001 22.743999 25.455999 27.552 28.851999 30.944 31.964001 33.667999 34.688 37.959999 38.939999 41.175999 42.195999 44.824001 46.916 48.636002 49.616001 51.708 54.556 55.576 58.287998 60.383999 61.683998 63.776001"
         y="0"
         sodipodi:role="line"
         id="tspan26">(Max Review Date - Min Review Date)</tspan></text>
<g
       id="g28"><g
         id="g30"
         clip-path="url(#clipPath32)"><g
           id="g36"
           transform="translate(314.1036,104.0594)"><path
             d="M 0,0 C 0,-4.507 -6.749,-4.507 -6.749,0 -6.749,4.501 0,4.501 0,0"
             style="fill:#6fc282;fill-opacity:1;fill-rule:nonzero;stroke:#ffffff;stroke-width:0.175;stroke-linecap:butt;stroke-linejoin:miter;stroke-miterlimit:10;stroke-dasharray:none;stroke-opacity:1"
             id="path38"
             inkscape:connector-curvature="0" /></g></g></g><text
       transform="matrix(1,0,0,-1,316.0879,102.9077)"
       style="font-variant:normal;font-weight:normal;font-stretch:normal;font-size:4.30989981px;font-family:DINOT;-inkscape-font-specification:DINOT;writing-mode:lr-tb;fill:#34495e;fill-opacity:1;fill-rule:nonzero;stroke:none"
       id="text40"><tspan
         x="0 2.8143647 3.8875299 6.7148242 8.9990711 10.925596 12.016001 14.300248 17.420616 19.558327"
         y="0"
         sodipodi:role="line"
         id="tspan42"># Reviews </tspan></text>
<text
       transform="matrix(1,0,0,-1,336.71939,102.9077)"
       style="font-variant:normal;font-weight:normal;font-stretch:normal;font-size:4.30989981px;font-family:Arial;-inkscape-font-specification:ArialMT;writing-mode:lr-tb;fill:#34495e;fill-opacity:1;fill-rule:nonzero;stroke:none"
       id="text44"><tspan
         x="0"
         y="0"
         id="tspan46">≤</tspan></text>
<text
       transform="matrix(1,0,0,-1,340.15869,102.9077)"
       style="font-variant:normal;font-weight:normal;font-stretch:normal;font-size:4.30989981px;font-family:DINOT;-inkscape-font-specification:DINOT;writing-mode:lr-tb;fill:#34495e;fill-opacity:1;fill-rule:nonzero;stroke:none"
       id="text48"><tspan
         x="0 3.5168784 5.8011255 8.1500206 9.2404261 11.507433"
         y="0"
         sodipodi:role="line"
         id="tspan50">Median</tspan></text>
<g
       id="g52"><g
         id="g54"
         clip-path="url(#clipPath56)"><g
           id="g60"
           transform="translate(314.1036,90.9649)"><path
             d="M 0,0 C 0,-4.507 -6.749,-4.507 -6.749,0 -6.749,4.501 0,4.501 0,0"
             style="fill:#2d3e52;fill-opacity:1;fill-rule:nonzero;stroke:#ffffff;stroke-width:0.175;stroke-linecap:butt;stroke-linejoin:miter;stroke-miterlimit:10;stroke-dasharray:none;stroke-opacity:1"
             id="path62"
             inkscape:connector-curvature="0" /></g></g></g><text
       transform="matrix(1,0,0,-1,316.0117,89.6289)"
       style="font-variant:normal;font-weight:normal;font-stretch:normal;font-size:4.30989981px;font-family:DINOT;-inkscape-font-specification:DINOT;writing-mode:lr-tb;fill:#34495e;fill-opacity:1;fill-rule:nonzero;stroke:none"
       id="text64"><tspan
         x="0 2.8143647 3.8875299 6.7148242 8.9990711 10.925596 12.016001 14.300248 17.420616 19.558327 20.631491 22.88126 23.954424 27.471302 29.75555 32.104446 33.194851 35.461857"
         y="0"
         sodipodi:role="line"
         id="tspan66"># Reviews &gt; Median</tspan><tspan
         x="-8.6585894 -5.5037422 -3.0815785 0.70682359 3.0557191 5.3399663 7.1544342 8.2275991 11.054893 13.339141 15.265666 16.35607 18.640318 21.760685 23.898396 24.971561 28.652216 30.466682 31.557087 32.987976 34.418861 36.70311 39.125271"
         y="-39.763138"
         sodipodi:role="line"
         id="tspan68">Number Reviews Written:</tspan><tspan
         x="-8.6585894 -4.3659286 -0.84905028 1.4351968 3.702204 6.1243677 7.404408 11.697068 14.020104 16.269873"
         y="-34.591255"
         sodipodi:role="line"
         id="tspan70"> Mean: ~53</tspan><tspan
         x="-8.6585894 -4.3659286 -0.84905028 1.4351968 3.7840922 4.8744969 7.1415043 9.5636683 10.843708 11.916874 14.239909 16.489677"
         y="-29.419376"
         sodipodi:role="line"
         id="tspan72"> Median: ~13</tspan></text>
<g
       id="g74"><g
         id="g76"
         clip-path="url(#clipPath78)"><g
           id="g82"
           transform="translate(275.2385,28.6256)"><path
             d="M 0,0 0,-2.826 M -35.456,0 l 0,-2.826 M -70.906,0 l 0,-2.826 M -106.362,0 l 0,-2.826 M -141.817,0 l 0,-2.826 M -177.273,0 l 0,-2.826 M -212.728,0 l 0,-2.826 M -248.184,0 l 0,-2.826"
             style="fill:none;stroke:#7f8c8c;stroke-width:0.498;stroke-linecap:butt;stroke-linejoin:miter;stroke-miterlimit:10;stroke-dasharray:none;stroke-opacity:1"
             id="path84"
             inkscape:connector-curvature="0" /></g></g></g><text
       transform="matrix(0.86724,0,0,-1,25.6353,19.3955)"
       style="font-variant:normal;font-weight:500;font-stretch:normal;font-size:5px;font-family:DINOT;-inkscape-font-specification:DINOT;writing-mode:lr-tb;fill:#7f8c8c;fill-opacity:1;fill-rule:nonzero;stroke:none"
       id="text86"><tspan
         x="0 76.5 79.165001 80.525002 83.190002 85.855003 35.650002 38.314999 39.674999 42.34 45.005001 117.35 120.015 121.375 124.04 126.705 158.2 160.86501 162.22501 164.89 167.55499 199.05 201.715 203.075 205.74001 208.405 239.89999 242.565 243.925 246.59 249.255 281.44501 284.10999 285.47 288.13501 290.79999"
         y="0"
         sodipodi:role="line"
         id="tspan88">02,0001,0003,0004,0005,0006,0007,000</tspan></text>
<g
       id="g90"><g
         id="g92"
         clip-path="url(#clipPath94)"><path
           d="m 301.738,28.877 -274.684,0 0,161.106 274.684,0 0,-161.106 z"
           style="fill:none;stroke:#7f8c8c;stroke-width:0.51599997;stroke-linecap:butt;stroke-linejoin:miter;stroke-miterlimit:10;stroke-dasharray:none;stroke-opacity:1"
           id="path98"
           inkscape:connector-curvature="0" /><g
           id="g100"
           transform="translate(28.4331,123.2703)"><path
             d="m 0,0 c 0,0.73 -0.593,1.323 -1.323,1.323 -0.73,0 -1.323,-0.593 -1.323,-1.323 0,-0.73 0.593,-1.323 1.323,-1.323 C -0.593,-1.323 0,-0.73 0,0 m 0,9.129 c 0,0.731 -0.593,1.324 -1.323,1.324 -0.73,0 -1.323,-0.593 -1.323,-1.324 0,-0.73 0.593,-1.323 1.323,-1.323 C -0.593,7.806 0,8.399 0,9.129 M 0.397,0 c 0,0.73 -0.593,1.323 -1.323,1.323 -0.731,0 -1.323,-0.593 -1.323,-1.323 0,-0.73 0.592,-1.323 1.323,-1.323 0.73,0 1.323,0.593 1.323,1.323 m 3.44,-4.631 c 0,0.73 -0.593,1.323 -1.323,1.323 -0.731,0 -1.323,-0.593 -1.323,-1.323 0,-0.73 0.592,-1.323 1.323,-1.323 0.73,0 1.323,0.593 1.323,1.323 m 10.982,-19.317 c 0,0.73 -0.593,1.323 -1.323,1.323 -0.731,0 -1.323,-0.593 -1.323,-1.323 0,-0.731 0.592,-1.323 1.323,-1.323 0.73,0 1.323,0.592 1.323,1.323 M 1.455,10.32 c 0,0.731 -0.592,1.323 -1.323,1.323 -0.73,0 -1.323,-0.592 -1.323,-1.323 0,-0.73 0.593,-1.323 1.323,-1.323 0.731,0 1.323,0.593 1.323,1.323 M 3.837,2.911 c 0,0.73 -0.593,1.323 -1.323,1.323 -0.731,0 -1.323,-0.593 -1.323,-1.323 0,-0.731 0.592,-1.323 1.323,-1.323 0.73,0 1.323,0.592 1.323,1.323 m 14.29,-3.44 c 0,0.73 -0.593,1.323 -1.324,1.323 -0.73,0 -1.323,-0.593 -1.323,-1.323 0,-0.731 0.593,-1.323 1.323,-1.323 0.731,0 1.324,0.592 1.324,1.323 M 9.328,0.132 c 0,0.731 -0.593,1.323 -1.323,1.323 -0.731,0 -1.323,-0.592 -1.323,-1.323 0,-0.73 0.592,-1.323 1.323,-1.323 0.73,0 1.323,0.593 1.323,1.323 m 7.475,-4.234 c 0,0.731 -0.592,1.323 -1.323,1.323 -0.73,0 -1.323,-0.592 -1.323,-1.323 0,-0.73 0.593,-1.323 1.323,-1.323 0.731,0 1.323,0.593 1.323,1.323 M 0,13.76 c 0,0.731 -0.593,1.323 -1.323,1.323 -0.73,0 -1.323,-0.592 -1.323,-1.323 0,-0.73 0.593,-1.323 1.323,-1.323 0.73,0 1.323,0.593 1.323,1.323 m 19.45,-46.838 c 0,0.73 -0.593,1.323 -1.323,1.323 -0.731,0 -1.324,-0.593 -1.324,-1.323 0,-0.73 0.593,-1.323 1.324,-1.323 0.73,0 1.323,0.593 1.323,1.323 M 11.643,5.689 c 0,0.731 -0.592,1.323 -1.323,1.323 -0.73,0 -1.323,-0.592 -1.323,-1.323 0,-0.73 0.593,-1.323 1.323,-1.323 0.731,0 1.323,0.593 1.323,1.323 M 0,-13.893 c 0,0.731 -0.593,1.323 -1.323,1.323 -0.73,0 -1.323,-0.592 -1.323,-1.323 0,-0.73 0.593,-1.323 1.323,-1.323 0.73,0 1.323,0.593 1.323,1.323 m 0.397,12.702 c 0,0.73 -0.593,1.323 -1.323,1.323 -0.731,0 -1.323,-0.593 -1.323,-1.323 0,-0.73 0.592,-1.323 1.323,-1.323 0.73,0 1.323,0.593 1.323,1.323 M 0,-34.533 c 0,0.73 -0.593,1.323 -1.323,1.323 -0.73,0 -1.323,-0.593 -1.323,-1.323 0,-0.731 0.593,-1.323 1.323,-1.323 0.73,0 1.323,0.592 1.323,1.323 m 4.631,23.022 c 0,0.73 -0.593,1.323 -1.323,1.323 -0.731,0 -1.323,-0.593 -1.323,-1.323 0,-0.731 0.592,-1.323 1.323,-1.323 0.73,0 1.323,0.592 1.323,1.323 m 10.982,1.455 c 0,0.731 -0.593,1.323 -1.323,1.323 -0.731,0 -1.324,-0.592 -1.324,-1.323 0,-0.73 0.593,-1.323 1.324,-1.323 0.73,0 1.323,0.593 1.323,1.323 M 1.985,19.185 c 0,0.73 -0.593,1.323 -1.324,1.323 -0.73,0 -1.323,-0.593 -1.323,-1.323 0,-0.73 0.593,-1.323 1.323,-1.323 0.731,0 1.324,0.593 1.324,1.323 M 4.366,7.806 c 0,0.731 -0.593,1.323 -1.323,1.323 -0.73,0 -1.323,-0.592 -1.323,-1.323 0,-0.73 0.593,-1.323 1.323,-1.323 0.73,0 1.323,0.593 1.323,1.323 m -1.124,3.705 c 0,0.73 -0.593,1.323 -1.323,1.323 -0.731,0 -1.324,-0.593 -1.324,-1.323 0,-0.73 0.593,-1.323 1.324,-1.323 0.73,0 1.323,0.593 1.323,1.323 M 5.028,-2.382 c 0,0.731 -0.593,1.323 -1.323,1.323 -0.731,0 -1.323,-0.592 -1.323,-1.323 0,-0.73 0.592,-1.323 1.323,-1.323 0.73,0 1.323,0.593 1.323,1.323 m 25.668,-7.938 c 0,0.73 -0.593,1.323 -1.323,1.323 -0.73,0 -1.323,-0.593 -1.323,-1.323 0,-0.731 0.593,-1.323 1.323,-1.323 0.73,0 1.323,0.592 1.323,1.323 M 4.234,-4.631 c 0,0.73 -0.593,1.323 -1.323,1.323 -0.731,0 -1.323,-0.593 -1.323,-1.323 0,-0.73 0.592,-1.323 1.323,-1.323 0.73,0 1.323,0.593 1.323,1.323 m 54.181,5.425 c 0,0.73 -0.592,1.323 -1.323,1.323 -0.73,0 -1.323,-0.593 -1.323,-1.323 0,-0.731 0.593,-1.323 1.323,-1.323 0.731,0 1.323,0.592 1.323,1.323 M 1.985,1.125 c 0,0.73 -0.593,1.323 -1.324,1.323 -0.73,0 -1.323,-0.593 -1.323,-1.323 0,-0.731 0.593,-1.324 1.323,-1.324 0.731,0 1.324,0.593 1.324,1.324 M 22.757,0.926 c 0,0.73 -0.592,1.323 -1.323,1.323 -0.73,0 -1.323,-0.593 -1.323,-1.323 0,-0.73 0.593,-1.323 1.323,-1.323 0.731,0 1.323,0.593 1.323,1.323 M 2.183,16.142 c 0,0.73 -0.593,1.323 -1.323,1.323 -0.73,0 -1.323,-0.593 -1.323,-1.323 0,-0.73 0.593,-1.323 1.323,-1.323 0.73,0 1.323,0.593 1.323,1.323 m 7.873,-36.915 c 0,0.73 -0.593,1.323 -1.324,1.323 -0.73,0 -1.323,-0.593 -1.323,-1.323 0,-0.73 0.593,-1.323 1.323,-1.323 0.731,0 1.324,0.593 1.324,1.323 m 92.088,12.305 c 0,0.73 -0.593,1.323 -1.323,1.323 -0.73,0 -1.323,-0.593 -1.323,-1.323 0,-0.73 0.593,-1.323 1.323,-1.323 0.73,0 1.323,0.593 1.323,1.323 M 2.911,10.849 c 0,0.731 -0.593,1.324 -1.323,1.324 -0.731,0 -1.323,-0.593 -1.323,-1.324 0,-0.73 0.592,-1.323 1.323,-1.323 0.73,0 1.323,0.593 1.323,1.323 M 0,59.805 c 0,0.73 -0.593,1.323 -1.323,1.323 -0.73,0 -1.323,-0.593 -1.323,-1.323 0,-0.731 0.593,-1.324 1.323,-1.324 0.73,0 1.323,0.593 1.323,1.324 M 0,-41.413 c 0,0.73 -0.593,1.323 -1.323,1.323 -0.73,0 -1.323,-0.593 -1.323,-1.323 0,-0.731 0.593,-1.324 1.323,-1.324 0.73,0 1.323,0.593 1.323,1.324 m 10.056,30.166 c 0,0.731 -0.593,1.324 -1.324,1.324 -0.73,0 -1.323,-0.593 -1.323,-1.324 0,-0.73 0.593,-1.323 1.323,-1.323 0.731,0 1.324,0.593 1.324,1.323 M 0,34.533 c 0,0.731 -0.593,1.323 -1.323,1.323 -0.73,0 -1.323,-0.592 -1.323,-1.323 0,-0.73 0.593,-1.323 1.323,-1.323 0.73,0 1.323,0.593 1.323,1.323 M 0.265,9.923 c 0,0.731 -0.593,1.323 -1.324,1.323 -0.73,0 -1.323,-0.592 -1.323,-1.323 0,-0.73 0.593,-1.323 1.323,-1.323 0.731,0 1.324,0.593 1.324,1.323 m 3.307,2.647 c 0,0.73 -0.592,1.323 -1.323,1.323 -0.73,0 -1.323,-0.593 -1.323,-1.323 0,-0.731 0.593,-1.324 1.323,-1.324 0.731,0 1.323,0.593 1.323,1.324 M 3.705,6.88 c 0,0.73 -0.593,1.323 -1.323,1.323 -0.731,0 -1.324,-0.593 -1.324,-1.323 0,-0.73 0.593,-1.323 1.324,-1.323 0.73,0 1.323,0.593 1.323,1.323 m 2.778,-21.302 c 0,0.73 -0.592,1.323 -1.323,1.323 -0.73,0 -1.323,-0.593 -1.323,-1.323 0,-0.73 0.593,-1.323 1.323,-1.323 0.731,0 1.323,0.593 1.323,1.323 m 4.631,9.923 c 0,0.731 -0.593,1.323 -1.323,1.323 -0.73,0 -1.323,-0.592 -1.323,-1.323 0,-0.73 0.593,-1.323 1.323,-1.323 0.73,0 1.323,0.593 1.323,1.323 M 1.323,-33.342 c 0,0.73 -0.593,1.323 -1.323,1.323 -0.73,0 -1.323,-0.593 -1.323,-1.323 0,-0.731 0.593,-1.324 1.323,-1.324 0.73,0 1.323,0.593 1.323,1.324 M 0.132,14.951 c 0,0.73 -0.593,1.323 -1.323,1.323 -0.73,0 -1.323,-0.593 -1.323,-1.323 0,-0.73 0.593,-1.323 1.323,-1.323 0.73,0 1.323,0.593 1.323,1.323 M 0,-34.533 c 0,0.73 -0.593,1.323 -1.323,1.323 -0.73,0 -1.323,-0.593 -1.323,-1.323 0,-0.731 0.593,-1.323 1.323,-1.323 0.73,0 1.323,0.592 1.323,1.323 m 0.132,-6.88 c 0,0.73 -0.593,1.323 -1.323,1.323 -0.73,0 -1.323,-0.593 -1.323,-1.323 0,-0.731 0.593,-1.324 1.323,-1.324 0.73,0 1.323,0.593 1.323,1.324 m 0.662,39.031 c 0,0.731 -0.593,1.323 -1.323,1.323 -0.731,0 -1.323,-0.592 -1.323,-1.323 0,-0.73 0.592,-1.323 1.323,-1.323 0.73,0 1.323,0.593 1.323,1.323 m 4.763,-11.775 c 0,0.73 -0.593,1.323 -1.323,1.323 -0.73,0 -1.323,-0.593 -1.323,-1.323 0,-0.731 0.593,-1.323 1.323,-1.323 0.73,0 1.323,0.592 1.323,1.323 m 4.499,0.926 c 0,0.73 -0.593,1.323 -1.324,1.323 -0.73,0 -1.323,-0.593 -1.323,-1.323 0,-0.731 0.593,-1.323 1.323,-1.323 0.731,0 1.324,0.592 1.324,1.323 m -6.484,8.997 c 0,0.73 -0.592,1.323 -1.323,1.323 -0.73,0 -1.323,-0.593 -1.323,-1.323 0,-0.73 0.593,-1.323 1.323,-1.323 0.731,0 1.323,0.593 1.323,1.323 M 0,5.689 c 0,0.731 -0.593,1.323 -1.323,1.323 -0.73,0 -1.323,-0.592 -1.323,-1.323 0,-0.73 0.593,-1.323 1.323,-1.323 0.73,0 1.323,0.593 1.323,1.323 m 0,3.44 c 0,0.731 -0.593,1.324 -1.323,1.324 -0.73,0 -1.323,-0.593 -1.323,-1.324 0,-0.73 0.593,-1.323 1.323,-1.323 0.73,0 1.323,0.593 1.323,1.323 m 0,-41.413 c 0,0.73 -0.593,1.323 -1.323,1.323 -0.73,0 -1.323,-0.593 -1.323,-1.323 0,-0.73 0.593,-1.323 1.323,-1.323 0.73,0 1.323,0.593 1.323,1.323 m 6.086,24.61 c 0,0.73 -0.593,1.323 -1.323,1.323 -0.73,0 -1.323,-0.593 -1.323,-1.323 0,-0.73 0.593,-1.323 1.323,-1.323 0.73,0 1.323,0.593 1.323,1.323 M 4.631,0 C 4.631,0.73 4.038,1.323 3.308,1.323 2.577,1.323 1.985,0.73 1.985,0 c 0,-0.73 0.592,-1.323 1.323,-1.323 0.73,0 1.323,0.593 1.323,1.323 m 15.877,19.582 c 0,0.73 -0.593,1.323 -1.323,1.323 -0.73,0 -1.323,-0.593 -1.323,-1.323 0,-0.73 0.593,-1.323 1.323,-1.323 0.73,0 1.323,0.593 1.323,1.323 M 6.483,-8.336 c 0,0.731 -0.592,1.323 -1.323,1.323 -0.73,0 -1.323,-0.592 -1.323,-1.323 0,-0.73 0.593,-1.323 1.323,-1.323 0.731,0 1.323,0.593 1.323,1.323 M 0,11.511 c 0,0.73 -0.593,1.323 -1.323,1.323 -0.73,0 -1.323,-0.593 -1.323,-1.323 0,-0.73 0.593,-1.323 1.323,-1.323 0.73,0 1.323,0.593 1.323,1.323 m 8.732,8.468 c 0,0.73 -0.592,1.323 -1.323,1.323 -0.73,0 -1.323,-0.593 -1.323,-1.323 0,-0.73 0.593,-1.323 1.323,-1.323 0.731,0 1.323,0.593 1.323,1.323 m -7.674,-31.49 c 0,0.73 -0.592,1.323 -1.323,1.323 -0.73,0 -1.323,-0.593 -1.323,-1.323 0,-0.731 0.593,-1.323 1.323,-1.323 0.731,0 1.323,0.592 1.323,1.323 m 35.195,6.615 c 0,0.731 -0.593,1.324 -1.323,1.324 -0.73,0 -1.323,-0.593 -1.323,-1.324 0,-0.73 0.593,-1.323 1.323,-1.323 0.73,0 1.323,0.593 1.323,1.323 M 3.969,-34.004 c 0,0.73 -0.593,1.323 -1.323,1.323 -0.73,0 -1.323,-0.593 -1.323,-1.323 0,-0.73 0.593,-1.323 1.323,-1.323 0.73,0 1.323,0.593 1.323,1.323 M 1.72,-23.022 c 0,0.73 -0.593,1.323 -1.323,1.323 -0.731,0 -1.323,-0.593 -1.323,-1.323 0,-0.731 0.592,-1.323 1.323,-1.323 0.73,0 1.323,0.592 1.323,1.323 m 1.191,11.511 c 0,0.73 -0.593,1.323 -1.323,1.323 -0.731,0 -1.323,-0.593 -1.323,-1.323 0,-0.731 0.592,-1.323 1.323,-1.323 0.73,0 1.323,0.592 1.323,1.323 m 1.191,-5.822 c 0,0.731 -0.593,1.323 -1.324,1.323 -0.73,0 -1.323,-0.592 -1.323,-1.323 0,-0.73 0.593,-1.323 1.323,-1.323 0.731,0 1.324,0.593 1.324,1.323 m -3.441,0.265 c 0,0.73 -0.592,1.323 -1.323,1.323 -0.73,0 -1.323,-0.593 -1.323,-1.323 0,-0.731 0.593,-1.323 1.323,-1.323 0.731,0 1.323,0.592 1.323,1.323 M 14.422,1.125 c 0,0.73 -0.593,1.323 -1.323,1.323 -0.731,0 -1.323,-0.593 -1.323,-1.323 0,-0.731 0.592,-1.324 1.323,-1.324 0.73,0 1.323,0.593 1.323,1.324 M 0,32.152 c 0,0.73 -0.593,1.323 -1.323,1.323 -0.73,0 -1.323,-0.593 -1.323,-1.323 0,-0.731 0.593,-1.324 1.323,-1.324 0.73,0 1.323,0.593 1.323,1.324 M 5.557,-5.954 c 0,0.73 -0.593,1.323 -1.323,1.323 -0.73,0 -1.323,-0.593 -1.323,-1.323 0,-0.73 0.593,-1.323 1.323,-1.323 0.73,0 1.323,0.593 1.323,1.323 M 54.38,-17.597 c 0,0.73 -0.593,1.323 -1.323,1.323 -0.731,0 -1.323,-0.593 -1.323,-1.323 0,-0.731 0.592,-1.324 1.323,-1.324 0.73,0 1.323,0.593 1.323,1.324 M 4.895,25.271 c 0,0.731 -0.592,1.324 -1.323,1.324 -0.73,0 -1.323,-0.593 -1.323,-1.324 0,-0.73 0.593,-1.323 1.323,-1.323 0.731,0 1.323,0.593 1.323,1.323 M 1.852,0 c 0,0.73 -0.592,1.323 -1.323,1.323 -0.73,0 -1.323,-0.593 -1.323,-1.323 0,-0.73 0.593,-1.323 1.323,-1.323 0.731,0 1.323,0.593 1.323,1.323 m 29.373,6.086 c 0,0.731 -0.592,1.323 -1.323,1.323 -0.73,0 -1.323,-0.592 -1.323,-1.323 0,-0.73 0.593,-1.323 1.323,-1.323 0.731,0 1.323,0.593 1.323,1.323 M 6.814,0 C 6.814,0.73 6.221,1.323 5.491,1.323 4.76,1.323 4.168,0.73 4.168,0 c 0,-0.73 0.592,-1.323 1.323,-1.323 0.73,0 1.323,0.593 1.323,1.323 M 0.397,6.88 c 0,0.73 -0.593,1.323 -1.323,1.323 -0.731,0 -1.323,-0.593 -1.323,-1.323 0,-0.73 0.592,-1.323 1.323,-1.323 0.73,0 1.323,0.593 1.323,1.323 M 8.468,-9.262 c 0,0.731 -0.593,1.323 -1.323,1.323 -0.731,0 -1.323,-0.592 -1.323,-1.323 0,-0.73 0.592,-1.323 1.323,-1.323 0.73,0 1.323,0.593 1.323,1.323 m 6.88,-18.92 c 0,0.73 -0.593,1.323 -1.323,1.323 -0.73,0 -1.323,-0.593 -1.323,-1.323 0,-0.731 0.593,-1.323 1.323,-1.323 0.73,0 1.323,0.592 1.323,1.323 m -3.837,15.745 c 0,0.73 -0.593,1.323 -1.323,1.323 -0.73,0 -1.323,-0.593 -1.323,-1.323 0,-0.731 0.593,-1.323 1.323,-1.323 0.73,0 1.323,0.592 1.323,1.323 M 3.175,13.76 c 0,0.731 -0.592,1.323 -1.323,1.323 -0.73,0 -1.323,-0.592 -1.323,-1.323 0,-0.73 0.593,-1.323 1.323,-1.323 0.731,0 1.323,0.593 1.323,1.323 M 1.191,-1.588 c 0,0.731 -0.593,1.323 -1.323,1.323 -0.731,0 -1.324,-0.592 -1.324,-1.323 0,-0.73 0.593,-1.323 1.324,-1.323 0.73,0 1.323,0.593 1.323,1.323 M 0,-2.382 c 0,0.731 -0.593,1.323 -1.323,1.323 -0.73,0 -1.323,-0.592 -1.323,-1.323 0,-0.73 0.593,-1.323 1.323,-1.323 0.73,0 1.323,0.593 1.323,1.323 m 4.498,-29.24 c 0,0.73 -0.592,1.323 -1.323,1.323 -0.73,0 -1.323,-0.593 -1.323,-1.323 0,-0.731 0.593,-1.324 1.323,-1.324 0.731,0 1.323,0.593 1.323,1.324 M 1.191,2.249 c 0,0.731 -0.593,1.323 -1.323,1.323 -0.731,0 -1.324,-0.592 -1.324,-1.323 0,-0.73 0.593,-1.323 1.324,-1.323 0.73,0 1.323,0.593 1.323,1.323 m 92.485,-27.917 c 0,0.73 -0.592,1.323 -1.323,1.323 -0.73,0 -1.323,-0.593 -1.323,-1.323 0,-0.731 0.593,-1.324 1.323,-1.324 0.731,0 1.323,0.593 1.323,1.324 M 7.145,3.043 c 0,0.73 -0.593,1.323 -1.323,1.323 -0.731,0 -1.324,-0.593 -1.324,-1.323 0,-0.73 0.593,-1.323 1.324,-1.323 0.73,0 1.323,0.593 1.323,1.323 m -2.25,12.305 c 0,0.73 -0.592,1.323 -1.323,1.323 -0.73,0 -1.323,-0.593 -1.323,-1.323 0,-0.73 0.593,-1.323 1.323,-1.323 0.731,0 1.323,0.593 1.323,1.323 m 15.812,-40.09 c 0,0.73 -0.593,1.323 -1.323,1.323 -0.731,0 -1.324,-0.593 -1.324,-1.323 0,-0.731 0.593,-1.323 1.324,-1.323 0.73,0 1.323,0.592 1.323,1.323 M 1.455,-40.09 c 0,0.73 -0.592,1.323 -1.323,1.323 -0.73,0 -1.323,-0.593 -1.323,-1.323 0,-0.731 0.593,-1.323 1.323,-1.323 0.731,0 1.323,0.592 1.323,1.323 M 24.61,-7.542 c 0,0.731 -0.593,1.323 -1.323,1.323 -0.731,0 -1.323,-0.592 -1.323,-1.323 0,-0.73 0.592,-1.323 1.323,-1.323 0.73,0 1.323,0.593 1.323,1.323 m 6.351,10.453 c 0,0.73 -0.593,1.323 -1.323,1.323 -0.731,0 -1.323,-0.593 -1.323,-1.323 0,-0.731 0.592,-1.323 1.323,-1.323 0.73,0 1.323,0.592 1.323,1.323 M 0.926,-1.191 c 0,0.73 -0.593,1.323 -1.323,1.323 -0.73,0 -1.323,-0.593 -1.323,-1.323 0,-0.73 0.593,-1.323 1.323,-1.323 0.73,0 1.323,0.593 1.323,1.323 m 38.635,3.308 c 0,0.73 -0.593,1.323 -1.323,1.323 -0.73,0 -1.323,-0.593 -1.323,-1.323 0,-0.73 0.593,-1.323 1.323,-1.323 0.73,0 1.323,0.593 1.323,1.323 M 0.265,-21.831 c 0,0.73 -0.593,1.323 -1.324,1.323 -0.73,0 -1.323,-0.593 -1.323,-1.323 0,-0.731 0.593,-1.324 1.323,-1.324 0.731,0 1.324,0.593 1.324,1.324 M 5.954,9.923 c 0,0.731 -0.593,1.323 -1.323,1.323 C 3.9,11.246 3.308,10.654 3.308,9.923 3.308,9.193 3.9,8.6 4.631,8.6 c 0.73,0 1.323,0.593 1.323,1.323 M 12.57,3.969 c 0,0.731 -0.593,1.323 -1.324,1.323 -0.73,0 -1.323,-0.592 -1.323,-1.323 0,-0.73 0.593,-1.323 1.323,-1.323 0.731,0 1.324,0.593 1.324,1.323 M 0,-16.142 c 0,0.73 -0.593,1.323 -1.323,1.323 -0.73,0 -1.323,-0.593 -1.323,-1.323 0,-0.73 0.593,-1.323 1.323,-1.323 0.73,0 1.323,0.593 1.323,1.323 M 0.265,3.44 c 0,0.73 -0.593,1.323 -1.324,1.323 -0.73,0 -1.323,-0.593 -1.323,-1.323 0,-0.73 0.593,-1.323 1.323,-1.323 0.731,0 1.324,0.593 1.324,1.323 m 1.19,-59.408 c 0,0.731 -0.592,1.323 -1.323,1.323 -0.73,0 -1.323,-0.592 -1.323,-1.323 0,-0.73 0.593,-1.323 1.323,-1.323 0.731,0 1.323,0.593 1.323,1.323 M 3.44,-4.102 c 0,0.731 -0.593,1.323 -1.323,1.323 -0.73,0 -1.323,-0.592 -1.323,-1.323 0,-0.73 0.593,-1.323 1.323,-1.323 0.73,0 1.323,0.593 1.323,1.323 M 2.778,-49.484 c 0,0.73 -0.592,1.323 -1.323,1.323 -0.73,0 -1.323,-0.593 -1.323,-1.323 0,-0.731 0.593,-1.324 1.323,-1.324 0.731,0 1.323,0.593 1.323,1.324 M 80.71,7.277 c 0,0.73 -0.593,1.323 -1.323,1.323 -0.731,0 -1.323,-0.593 -1.323,-1.323 0,-0.73 0.592,-1.323 1.323,-1.323 0.73,0 1.323,0.593 1.323,1.323 M 0,0 c 0,0.73 -0.593,1.323 -1.323,1.323 -0.73,0 -1.323,-0.593 -1.323,-1.323 0,-0.73 0.593,-1.323 1.323,-1.323 C -0.593,-1.323 0,-0.73 0,0 m 0,16.142 c 0,0.73 -0.593,1.323 -1.323,1.323 -0.73,0 -1.323,-0.593 -1.323,-1.323 0,-0.73 0.593,-1.323 1.323,-1.323 0.73,0 1.323,0.593 1.323,1.323 M 18.523,-3.043 c 0,0.73 -0.592,1.323 -1.323,1.323 -0.73,0 -1.323,-0.593 -1.323,-1.323 0,-0.73 0.593,-1.323 1.323,-1.323 0.731,0 1.323,0.593 1.323,1.323 M 0,-19.582 c 0,0.73 -0.593,1.323 -1.323,1.323 -0.73,0 -1.323,-0.593 -1.323,-1.323 0,-0.73 0.593,-1.323 1.323,-1.323 0.73,0 1.323,0.593 1.323,1.323 m 0.529,51.734 c 0,0.73 -0.593,1.323 -1.323,1.323 -0.73,0 -1.323,-0.593 -1.323,-1.323 0,-0.731 0.593,-1.324 1.323,-1.324 0.73,0 1.323,0.593 1.323,1.324 M 0,20.64 c 0,0.731 -0.593,1.324 -1.323,1.324 -0.73,0 -1.323,-0.593 -1.323,-1.324 0,-0.73 0.593,-1.323 1.323,-1.323 0.73,0 1.323,0.593 1.323,1.323 M 34.798,4.631 c 0,0.73 -0.593,1.323 -1.323,1.323 -0.731,0 -1.323,-0.593 -1.323,-1.323 0,-0.731 0.592,-1.323 1.323,-1.323 0.73,0 1.323,0.592 1.323,1.323 m -33.21,24.08 c 0,0.731 -0.593,1.324 -1.323,1.324 -0.731,0 -1.324,-0.593 -1.324,-1.324 0,-0.73 0.593,-1.323 1.324,-1.323 0.73,0 1.323,0.593 1.323,1.323 M 8.468,0.397 c 0,0.73 -0.593,1.323 -1.323,1.323 -0.731,0 -1.323,-0.593 -1.323,-1.323 0,-0.73 0.592,-1.323 1.323,-1.323 0.73,0 1.323,0.593 1.323,1.323 M 3.175,-8.865 c 0,0.73 -0.592,1.323 -1.323,1.323 -0.73,0 -1.323,-0.593 -1.323,-1.323 0,-0.73 0.593,-1.323 1.323,-1.323 0.731,0 1.323,0.593 1.323,1.323 M 0,4.631 c 0,0.73 -0.593,1.323 -1.323,1.323 -0.73,0 -1.323,-0.593 -1.323,-1.323 0,-0.731 0.593,-1.323 1.323,-1.323 C -0.593,3.308 0,3.9 0,4.631 m 1.455,5.292 c 0,0.731 -0.592,1.323 -1.323,1.323 -0.73,0 -1.323,-0.592 -1.323,-1.323 0,-0.73 0.593,-1.323 1.323,-1.323 0.731,0 1.323,0.593 1.323,1.323 m 4.499,-26.859 c 0,0.73 -0.593,1.323 -1.323,1.323 -0.731,0 -1.323,-0.593 -1.323,-1.323 0,-0.73 0.592,-1.323 1.323,-1.323 0.73,0 1.323,0.593 1.323,1.323 M 32.019,6.88 c 0,0.73 -0.593,1.323 -1.323,1.323 -0.73,0 -1.323,-0.593 -1.323,-1.323 0,-0.73 0.593,-1.323 1.323,-1.323 0.73,0 1.323,0.593 1.323,1.323 M 0.794,-10.056 c 0,0.731 -0.593,1.323 -1.323,1.323 -0.731,0 -1.323,-0.592 -1.323,-1.323 0,-0.73 0.592,-1.323 1.323,-1.323 0.73,0 1.323,0.593 1.323,1.323 m 26.33,24.412 c 0,0.73 -0.593,1.323 -1.323,1.323 -0.731,0 -1.324,-0.593 -1.324,-1.323 0,-0.731 0.593,-1.323 1.324,-1.323 0.73,0 1.323,0.592 1.323,1.323 M 11.114,-9.262 c 0,0.731 -0.593,1.323 -1.323,1.323 -0.73,0 -1.323,-0.592 -1.323,-1.323 0,-0.73 0.593,-1.323 1.323,-1.323 0.73,0 1.323,0.593 1.323,1.323 M 9.659,0.265 c 0,0.73 -0.593,1.323 -1.323,1.323 -0.731,0 -1.324,-0.593 -1.324,-1.323 0,-0.731 0.593,-1.324 1.324,-1.324 0.73,0 1.323,0.593 1.323,1.324 M 0,-9.262 c 0,0.731 -0.593,1.323 -1.323,1.323 -0.73,0 -1.323,-0.592 -1.323,-1.323 0,-0.73 0.593,-1.323 1.323,-1.323 0.73,0 1.323,0.593 1.323,1.323 m 0,43.795 c 0,0.731 -0.593,1.323 -1.323,1.323 -0.73,0 -1.323,-0.592 -1.323,-1.323 0,-0.73 0.593,-1.323 1.323,-1.323 0.73,0 1.323,0.593 1.323,1.323 M 21.037,-1.455 c 0,0.73 -0.592,1.323 -1.323,1.323 -0.73,0 -1.323,-0.593 -1.323,-1.323 0,-0.731 0.593,-1.324 1.323,-1.324 0.731,0 1.323,0.593 1.323,1.324 M 3.175,-33.078 c 0,0.73 -0.592,1.323 -1.323,1.323 -0.73,0 -1.323,-0.593 -1.323,-1.323 0,-0.73 0.593,-1.323 1.323,-1.323 0.731,0 1.323,0.593 1.323,1.323 m 44.192,22.361 c 0,0.73 -0.592,1.323 -1.323,1.323 -0.73,0 -1.323,-0.593 -1.323,-1.323 0,-0.731 0.593,-1.323 1.323,-1.323 0.731,0 1.323,0.592 1.323,1.323 M 2.117,16.671 c 0,0.731 -0.593,1.323 -1.323,1.323 -0.731,0 -1.323,-0.592 -1.323,-1.323 0,-0.73 0.592,-1.323 1.323,-1.323 0.73,0 1.323,0.593 1.323,1.323 M 4.366,9.129 c 0,0.731 -0.593,1.324 -1.323,1.324 -0.73,0 -1.323,-0.593 -1.323,-1.324 0,-0.73 0.593,-1.323 1.323,-1.323 0.73,0 1.323,0.593 1.323,1.323 M 0,2.249 c 0,0.731 -0.593,1.323 -1.323,1.323 -0.73,0 -1.323,-0.592 -1.323,-1.323 0,-0.73 0.593,-1.323 1.323,-1.323 C -0.593,0.926 0,1.519 0,2.249 M 0,13.76 c 0,0.731 -0.593,1.323 -1.323,1.323 -0.73,0 -1.323,-0.592 -1.323,-1.323 0,-0.73 0.593,-1.323 1.323,-1.323 0.73,0 1.323,0.593 1.323,1.323 M 3.44,0.794 c 0,0.73 -0.593,1.323 -1.323,1.323 -0.73,0 -1.323,-0.593 -1.323,-1.323 0,-0.731 0.593,-1.323 1.323,-1.323 0.73,0 1.323,0.592 1.323,1.323 M 5.028,6.88 c 0,0.73 -0.593,1.323 -1.323,1.323 -0.731,0 -1.323,-0.593 -1.323,-1.323 0,-0.73 0.592,-1.323 1.323,-1.323 0.73,0 1.323,0.593 1.323,1.323 m 16.671,-18.391 c 0,0.73 -0.593,1.323 -1.323,1.323 -0.731,0 -1.323,-0.593 -1.323,-1.323 0,-0.731 0.592,-1.323 1.323,-1.323 0.73,0 1.323,0.592 1.323,1.323 M 0,20.64 c 0,0.731 -0.593,1.324 -1.323,1.324 -0.73,0 -1.323,-0.593 -1.323,-1.324 0,-0.73 0.593,-1.323 1.323,-1.323 0.73,0 1.323,0.593 1.323,1.323 m 3.969,-50.013 c 0,0.73 -0.593,1.323 -1.323,1.323 -0.73,0 -1.323,-0.593 -1.323,-1.323 0,-0.731 0.593,-1.323 1.323,-1.323 0.73,0 1.323,0.592 1.323,1.323 m 0.662,14.819 c 0,0.73 -0.593,1.323 -1.323,1.323 -0.731,0 -1.323,-0.593 -1.323,-1.323 0,-0.731 0.592,-1.323 1.323,-1.323 0.73,0 1.323,0.592 1.323,1.323 m 3.44,5.954 c 0,0.73 -0.593,1.323 -1.323,1.323 -0.73,0 -1.323,-0.593 -1.323,-1.323 0,-0.731 0.593,-1.323 1.323,-1.323 0.73,0 1.323,0.592 1.323,1.323 m 7.674,-8.071 c 0,0.73 -0.593,1.323 -1.323,1.323 -0.731,0 -1.323,-0.593 -1.323,-1.323 0,-0.731 0.592,-1.323 1.323,-1.323 0.73,0 1.323,0.592 1.323,1.323 M 0.265,-47.632 c 0,0.73 -0.593,1.323 -1.324,1.323 -0.73,0 -1.323,-0.593 -1.323,-1.323 0,-0.73 0.593,-1.323 1.323,-1.323 0.731,0 1.324,0.593 1.324,1.323 m 0,46.044 c 0,0.731 -0.593,1.323 -1.324,1.323 -0.73,0 -1.323,-0.592 -1.323,-1.323 0,-0.73 0.593,-1.323 1.323,-1.323 0.731,0 1.324,0.593 1.324,1.323 m 0,-46.706 c 0,0.731 -0.593,1.323 -1.324,1.323 -0.73,0 -1.323,-0.592 -1.323,-1.323 0,-0.73 0.593,-1.323 1.323,-1.323 0.731,0 1.324,0.593 1.324,1.323 m 105.716,59.011 c 0,0.731 -0.593,1.323 -1.323,1.323 -0.73,0 -1.323,-0.592 -1.323,-1.323 0,-0.73 0.593,-1.323 1.323,-1.323 0.73,0 1.323,0.593 1.323,1.323 M 0.529,-52.924 c 0,0.73 -0.593,1.323 -1.323,1.323 -0.73,0 -1.323,-0.593 -1.323,-1.323 0,-0.731 0.593,-1.324 1.323,-1.324 0.73,0 1.323,0.593 1.323,1.324 M 0,18.391 c 0,0.731 -0.593,1.323 -1.323,1.323 -0.73,0 -1.323,-0.592 -1.323,-1.323 0,-0.73 0.593,-1.323 1.323,-1.323 0.73,0 1.323,0.593 1.323,1.323 m 0,13.761 c 0,0.73 -0.593,1.323 -1.323,1.323 -0.73,0 -1.323,-0.593 -1.323,-1.323 0,-0.731 0.593,-1.324 1.323,-1.324 0.73,0 1.323,0.593 1.323,1.324 m 0,-9.13 c 0,0.73 -0.593,1.323 -1.323,1.323 -0.73,0 -1.323,-0.593 -1.323,-1.323 0,-0.73 0.593,-1.323 1.323,-1.323 0.73,0 1.323,0.593 1.323,1.323 M 0,9.129 c 0,0.731 -0.593,1.324 -1.323,1.324 -0.73,0 -1.323,-0.593 -1.323,-1.324 0,-0.73 0.593,-1.323 1.323,-1.323 0.73,0 1.323,0.593 1.323,1.323 m 0,9.262 c 0,0.731 -0.593,1.323 -1.323,1.323 -0.73,0 -1.323,-0.592 -1.323,-1.323 0,-0.73 0.593,-1.323 1.323,-1.323 0.73,0 1.323,0.593 1.323,1.323 M 0,2.249 c 0,0.731 -0.593,1.323 -1.323,1.323 -0.73,0 -1.323,-0.592 -1.323,-1.323 0,-0.73 0.593,-1.323 1.323,-1.323 0.73,0 1.323,0.593 1.323,1.323 m 0.926,6.616 c 0,0.73 -0.593,1.323 -1.323,1.323 -0.73,0 -1.323,-0.593 -1.323,-1.323 0,-0.731 0.593,-1.323 1.323,-1.323 0.73,0 1.323,0.592 1.323,1.323 M 0,2.249 c 0,0.731 -0.593,1.323 -1.323,1.323 -0.73,0 -1.323,-0.592 -1.323,-1.323 0,-0.73 0.593,-1.323 1.323,-1.323 0.73,0 1.323,0.593 1.323,1.323 m 0,-85.076 c 0,0.73 -0.593,1.323 -1.323,1.323 -0.73,0 -1.323,-0.593 -1.323,-1.323 0,-0.73 0.593,-1.323 1.323,-1.323 0.73,0 1.323,0.593 1.323,1.323 m 13.628,69.464 c 0,0.73 -0.593,1.323 -1.323,1.323 -0.731,0 -1.323,-0.593 -1.323,-1.323 0,-0.731 0.592,-1.324 1.323,-1.324 0.73,0 1.323,0.593 1.323,1.324 M 1.588,21.831 c 0,0.731 -0.593,1.323 -1.323,1.323 -0.731,0 -1.324,-0.592 -1.324,-1.323 0,-0.73 0.593,-1.323 1.324,-1.323 0.73,0 1.323,0.593 1.323,1.323 M 2.646,-10.32 c 0,0.73 -0.593,1.323 -1.323,1.323 C 0.593,-8.997 0,-9.59 0,-10.32 c 0,-0.731 0.593,-1.323 1.323,-1.323 0.73,0 1.323,0.592 1.323,1.323 M 0,13.76 c 0,0.731 -0.593,1.323 -1.323,1.323 -0.73,0 -1.323,-0.592 -1.323,-1.323 0,-0.73 0.593,-1.323 1.323,-1.323 0.73,0 1.323,0.593 1.323,1.323 M 3.308,-6.616 c 0,0.731 -0.593,1.323 -1.323,1.323 -0.731,0 -1.324,-0.592 -1.324,-1.323 0,-0.73 0.593,-1.323 1.324,-1.323 0.73,0 1.323,0.593 1.323,1.323 m 0.926,21.302 c 0,0.731 -0.593,1.324 -1.323,1.324 -0.731,0 -1.323,-0.593 -1.323,-1.324 0,-0.73 0.592,-1.323 1.323,-1.323 0.73,0 1.323,0.593 1.323,1.323 M 10.717,4.102 c 0,0.73 -0.593,1.323 -1.323,1.323 -0.73,0 -1.323,-0.593 -1.323,-1.323 0,-0.731 0.593,-1.324 1.323,-1.324 0.73,0 1.323,0.593 1.323,1.324 M 0,-25.404 c 0,0.731 -0.593,1.323 -1.323,1.323 -0.73,0 -1.323,-0.592 -1.323,-1.323 0,-0.73 0.593,-1.323 1.323,-1.323 0.73,0 1.323,0.593 1.323,1.323 M 11.776,12.57 c 0,0.73 -0.593,1.323 -1.324,1.323 -0.73,0 -1.323,-0.593 -1.323,-1.323 0,-0.731 0.593,-1.324 1.323,-1.324 0.731,0 1.324,0.593 1.324,1.324 M 0.265,26.462 c 0,0.731 -0.593,1.323 -1.324,1.323 -0.73,0 -1.323,-0.592 -1.323,-1.323 0,-0.73 0.593,-1.323 1.323,-1.323 0.731,0 1.324,0.593 1.324,1.323 m 4.233,-51.866 c 0,0.731 -0.592,1.323 -1.323,1.323 -0.73,0 -1.323,-0.592 -1.323,-1.323 0,-0.73 0.593,-1.323 1.323,-1.323 0.731,0 1.323,0.593 1.323,1.323 M 0,-71.316 c 0,0.731 -0.593,1.323 -1.323,1.323 -0.73,0 -1.323,-0.592 -1.323,-1.323 0,-0.73 0.593,-1.323 1.323,-1.323 0.73,0 1.323,0.593 1.323,1.323 m 7.542,45.912 c 0,0.731 -0.593,1.323 -1.323,1.323 -0.731,0 -1.324,-0.592 -1.324,-1.323 0,-0.73 0.593,-1.323 1.324,-1.323 0.73,0 1.323,0.593 1.323,1.323 M 0,-20.773 c 0,0.73 -0.593,1.323 -1.323,1.323 -0.73,0 -1.323,-0.593 -1.323,-1.323 0,-0.73 0.593,-1.323 1.323,-1.323 0.73,0 1.323,0.593 1.323,1.323 m 0,-46.044 c 0,0.73 -0.593,1.323 -1.323,1.323 -0.73,0 -1.323,-0.593 -1.323,-1.323 0,-0.731 0.593,-1.323 1.323,-1.323 0.73,0 1.323,0.592 1.323,1.323 m 0,48.426 c 0,0.73 -0.593,1.323 -1.323,1.323 -0.73,0 -1.323,-0.593 -1.323,-1.323 0,-0.731 0.593,-1.323 1.323,-1.323 0.73,0 1.323,0.592 1.323,1.323 M 15.877,0 c 0,0.73 -0.592,1.323 -1.323,1.323 -0.73,0 -1.323,-0.593 -1.323,-1.323 0,-0.73 0.593,-1.323 1.323,-1.323 0.731,0 1.323,0.593 1.323,1.323"
             style="fill:#70c282;fill-opacity:1;fill-rule:nonzero;stroke:#ffffff;stroke-width:0.052;stroke-linecap:butt;stroke-linejoin:miter;stroke-miterlimit:10;stroke-dasharray:none;stroke-opacity:1"
             id="path102"
             inkscape:connector-curvature="0" /></g><g
           id="g104"
           transform="translate(48.1474,119.6979)"><path
             d="m 0,0 c 0,0.73 -0.593,1.323 -1.323,1.323 -0.73,0 -1.323,-0.593 -1.323,-1.323 0,-0.73 0.593,-1.323 1.323,-1.323 C -0.593,-1.323 0,-0.73 0,0 m 62.186,-7.806 c 0,0.73 -0.592,1.323 -1.323,1.323 -0.73,0 -1.323,-0.593 -1.323,-1.323 0,-0.731 0.593,-1.324 1.323,-1.324 0.731,0 1.323,0.593 1.323,1.324 M 25.536,8.203 c 0,0.731 -0.593,1.323 -1.323,1.323 -0.73,0 -1.323,-0.592 -1.323,-1.323 0,-0.73 0.593,-1.323 1.323,-1.323 0.73,0 1.323,0.593 1.323,1.323 m -1.852,-9.791 c 0,0.731 -0.593,1.323 -1.323,1.323 -0.731,0 -1.323,-0.592 -1.323,-1.323 0,-0.73 0.592,-1.323 1.323,-1.323 0.73,0 1.323,0.593 1.323,1.323 M -0.529,8.997 c 0,0.73 -0.593,1.323 -1.323,1.323 -0.731,0 -1.323,-0.593 -1.323,-1.323 0,-0.73 0.592,-1.323 1.323,-1.323 0.73,0 1.323,0.593 1.323,1.323 M 73.697,1.323 c 0,0.73 -0.592,1.323 -1.323,1.323 -0.73,0 -1.323,-0.593 -1.323,-1.323 0,-0.73 0.593,-1.323 1.323,-1.323 0.731,0 1.323,0.593 1.323,1.323 M 47.632,8.865 c 0,0.73 -0.593,1.323 -1.323,1.323 -0.73,0 -1.323,-0.593 -1.323,-1.323 0,-0.731 0.593,-1.323 1.323,-1.323 0.73,0 1.323,0.592 1.323,1.323 M 78.196,-4.631 c 0,0.73 -0.593,1.323 -1.323,1.323 -0.73,0 -1.323,-0.593 -1.323,-1.323 0,-0.73 0.593,-1.323 1.323,-1.323 0.73,0 1.323,0.593 1.323,1.323 m 34.93,14.554 c 0,0.731 -0.593,1.323 -1.323,1.323 -0.73,0 -1.323,-0.592 -1.323,-1.323 0,-0.73 0.593,-1.323 1.323,-1.323 0.73,0 1.323,0.593 1.323,1.323 m 1.323,-7.409 c 0,0.73 -0.593,1.323 -1.323,1.323 -0.73,0 -1.323,-0.593 -1.323,-1.323 0,-0.731 0.593,-1.323 1.323,-1.323 0.73,0 1.323,0.592 1.323,1.323 M 3.043,-7.145 c 0,0.73 -0.593,1.323 -1.323,1.323 -0.73,0 -1.323,-0.593 -1.323,-1.323 0,-0.73 0.593,-1.323 1.323,-1.323 0.73,0 1.323,0.593 1.323,1.323 m 139.324,7.542 c 0,0.73 -0.593,1.323 -1.323,1.323 -0.731,0 -1.323,-0.593 -1.323,-1.323 0,-0.73 0.592,-1.323 1.323,-1.323 0.73,0 1.323,0.593 1.323,1.323 M 1.985,0.661 c 0,0.731 -0.593,1.324 -1.323,1.324 -0.731,0 -1.323,-0.593 -1.323,-1.324 0,-0.73 0.592,-1.323 1.323,-1.323 0.73,0 1.323,0.593 1.323,1.323 M 91.824,0.397 c 0,0.73 -0.593,1.323 -1.323,1.323 -0.73,0 -1.323,-0.593 -1.323,-1.323 0,-0.73 0.593,-1.323 1.323,-1.323 0.73,0 1.323,0.593 1.323,1.323 m 1.191,17.068 c 0,0.73 -0.593,1.323 -1.323,1.323 -0.731,0 -1.323,-0.593 -1.323,-1.323 0,-0.73 0.592,-1.323 1.323,-1.323 0.73,0 1.323,0.593 1.323,1.323 M -5.425,0.661 c 0,0.731 -0.593,1.324 -1.323,1.324 -0.73,0 -1.323,-0.593 -1.323,-1.324 0,-0.73 0.593,-1.323 1.323,-1.323 0.73,0 1.323,0.593 1.323,1.323 m 22.758,-1.72 c 0,0.731 -0.593,1.324 -1.323,1.324 -0.731,0 -1.323,-0.593 -1.323,-1.324 0,-0.73 0.592,-1.323 1.323,-1.323 0.73,0 1.323,0.593 1.323,1.323 m 81.173,12.702 c 0,0.731 -0.593,1.323 -1.323,1.323 -0.731,0 -1.324,-0.592 -1.324,-1.323 0,-0.73 0.593,-1.323 1.324,-1.323 0.73,0 1.323,0.593 1.323,1.323 M 57.688,2.779 c 0,0.73 -0.593,1.323 -1.323,1.323 -0.731,0 -1.323,-0.593 -1.323,-1.323 0,-0.731 0.592,-1.324 1.323,-1.324 0.73,0 1.323,0.593 1.323,1.324 m 47.764,0 c 0,0.73 -0.593,1.323 -1.323,1.323 -0.73,0 -1.323,-0.593 -1.323,-1.323 0,-0.731 0.593,-1.324 1.323,-1.324 0.73,0 1.323,0.593 1.323,1.324 m -84.15,-7.675 c 0,0.731 -0.593,1.324 -1.323,1.324 -0.73,0 -1.323,-0.593 -1.323,-1.324 0,-0.73 0.593,-1.323 1.323,-1.323 0.73,0 1.323,0.593 1.323,1.323 m 107.569,3.441 c 0,0.73 -0.593,1.323 -1.323,1.323 -0.73,0 -1.323,-0.593 -1.323,-1.323 0,-0.731 0.593,-1.324 1.323,-1.324 0.73,0 1.323,0.593 1.323,1.324 M 0.529,12.437 c 0,0.731 -0.592,1.323 -1.323,1.323 -0.73,0 -1.323,-0.592 -1.323,-1.323 0,-0.73 0.593,-1.323 1.323,-1.323 0.731,0 1.323,0.593 1.323,1.323 M 15.348,3.308 c 0,0.73 -0.593,1.323 -1.323,1.323 -0.73,0 -1.323,-0.593 -1.323,-1.323 0,-0.731 0.593,-1.323 1.323,-1.323 0.73,0 1.323,0.592 1.323,1.323 m -22.89,-9.394 c 0,0.73 -0.592,1.323 -1.323,1.323 -0.73,0 -1.323,-0.593 -1.323,-1.323 0,-0.731 0.593,-1.323 1.323,-1.323 0.731,0 1.323,0.592 1.323,1.323 m 170.682,-6.881 c 0,0.731 -0.593,1.324 -1.323,1.324 -0.731,0 -1.323,-0.593 -1.323,-1.324 0,-0.73 0.592,-1.323 1.323,-1.323 0.73,0 1.323,0.593 1.323,1.323 M -2.779,-8.468 c 0,0.73 -0.592,1.323 -1.323,1.323 -0.73,0 -1.323,-0.593 -1.323,-1.323 0,-0.73 0.593,-1.323 1.323,-1.323 0.731,0 1.323,0.593 1.323,1.323 m 14.29,5.689 c 0,0.731 -0.593,1.324 -1.323,1.324 -0.73,0 -1.323,-0.593 -1.323,-1.324 0,-0.73 0.593,-1.323 1.323,-1.323 0.73,0 1.323,0.593 1.323,1.323 m 9.063,1.588 c 0,0.73 -0.592,1.323 -1.323,1.323 -0.73,0 -1.323,-0.593 -1.323,-1.323 0,-0.73 0.593,-1.323 1.323,-1.323 0.731,0 1.323,0.593 1.323,1.323 M -3.705,-6.748 c 0,0.73 -0.592,1.323 -1.323,1.323 -0.73,0 -1.323,-0.593 -1.323,-1.323 0,-0.73 0.593,-1.323 1.323,-1.323 0.731,0 1.323,0.593 1.323,1.323 M 3.44,5.557 c 0,0.73 -0.593,1.323 -1.323,1.323 -0.73,0 -1.323,-0.593 -1.323,-1.323 0,-0.73 0.593,-1.323 1.323,-1.323 0.73,0 1.323,0.593 1.323,1.323 m 118.022,10.056 c 0,0.73 -0.593,1.323 -1.323,1.323 -0.731,0 -1.324,-0.593 -1.324,-1.323 0,-0.731 0.593,-1.323 1.324,-1.323 0.73,0 1.323,0.592 1.323,1.323 M 9.526,-4.102 c 0,0.731 -0.592,1.323 -1.323,1.323 -0.73,0 -1.323,-0.592 -1.323,-1.323 0,-0.73 0.593,-1.323 1.323,-1.323 0.731,0 1.323,0.593 1.323,1.323 m 64.568,-2.381 c 0,0.73 -0.592,1.323 -1.323,1.323 -0.73,0 -1.323,-0.593 -1.323,-1.323 0,-0.731 0.593,-1.323 1.323,-1.323 0.731,0 1.323,0.592 1.323,1.323 m -40.752,3.44 c 0,0.73 -0.592,1.323 -1.323,1.323 -0.73,0 -1.323,-0.593 -1.323,-1.323 0,-0.73 0.593,-1.323 1.323,-1.323 0.731,0 1.323,0.593 1.323,1.323 M 4.631,-2.117 c 0,0.73 -0.593,1.323 -1.323,1.323 -0.731,0 -1.323,-0.593 -1.323,-1.323 0,-0.73 0.592,-1.323 1.323,-1.323 0.73,0 1.323,0.593 1.323,1.323 m 0.926,-2.117 c 0,0.73 -0.593,1.323 -1.323,1.323 -0.73,0 -1.323,-0.593 -1.323,-1.323 0,-0.73 0.593,-1.323 1.323,-1.323 0.73,0 1.323,0.593 1.323,1.323 m 98.572,13.893 c 0,0.73 -0.593,1.323 -1.323,1.323 -0.73,0 -1.323,-0.593 -1.323,-1.323 0,-0.731 0.593,-1.323 1.323,-1.323 0.73,0 1.323,0.592 1.323,1.323 M 18.788,-6.351 c 0,0.73 -0.592,1.323 -1.323,1.323 -0.73,0 -1.323,-0.593 -1.323,-1.323 0,-0.73 0.593,-1.323 1.323,-1.323 0.731,0 1.323,0.593 1.323,1.323 m 22.758,4.102 c 0,0.73 -0.593,1.323 -1.323,1.323 -0.731,0 -1.323,-0.593 -1.323,-1.323 0,-0.731 0.592,-1.323 1.323,-1.323 0.73,0 1.323,0.592 1.323,1.323 m 50.94,1.587 c 0,0.731 -0.593,1.323 -1.324,1.323 -0.73,0 -1.323,-0.592 -1.323,-1.323 0,-0.73 0.593,-1.323 1.323,-1.323 0.731,0 1.324,0.593 1.324,1.323 M 28.844,18.259 c 0,0.73 -0.593,1.323 -1.323,1.323 -0.731,0 -1.323,-0.593 -1.323,-1.323 0,-0.73 0.592,-1.323 1.323,-1.323 0.73,0 1.323,0.593 1.323,1.323 M 100.689,1.852 c 0,0.731 -0.593,1.323 -1.323,1.323 -0.731,0 -1.323,-0.592 -1.323,-1.323 0,-0.73 0.592,-1.323 1.323,-1.323 0.73,0 1.323,0.593 1.323,1.323 M 18.921,3.705 c 0,0.73 -0.593,1.323 -1.324,1.323 -0.73,0 -1.323,-0.593 -1.323,-1.323 0,-0.731 0.593,-1.323 1.323,-1.323 0.731,0 1.324,0.592 1.324,1.323 m 73.168,4.498 c 0,0.731 -0.593,1.323 -1.323,1.323 -0.731,0 -1.324,-0.592 -1.324,-1.323 0,-0.73 0.593,-1.323 1.324,-1.323 0.73,0 1.323,0.593 1.323,1.323 M 14.025,-1.985 c 0,0.731 -0.593,1.323 -1.323,1.323 -0.73,0 -1.323,-0.592 -1.323,-1.323 0,-0.73 0.593,-1.323 1.323,-1.323 0.73,0 1.323,0.593 1.323,1.323 m -5.822,-25.8 c 0,0.73 -0.592,1.323 -1.323,1.323 -0.73,0 -1.323,-0.593 -1.323,-1.323 0,-0.731 0.593,-1.324 1.323,-1.324 0.731,0 1.323,0.593 1.323,1.324 m 16.672,9.261 c 0,0.731 -0.593,1.323 -1.324,1.323 -0.73,0 -1.323,-0.592 -1.323,-1.323 0,-0.73 0.593,-1.323 1.323,-1.323 0.731,0 1.324,0.593 1.324,1.323 m 5.027,27.389 c 0,0.73 -0.592,1.323 -1.323,1.323 -0.73,0 -1.323,-0.593 -1.323,-1.323 0,-0.731 0.593,-1.323 1.323,-1.323 0.731,0 1.323,0.592 1.323,1.323 M 0.529,5.491 c 0,0.73 -0.592,1.323 -1.323,1.323 -0.73,0 -1.323,-0.593 -1.323,-1.323 0,-0.731 0.593,-1.323 1.323,-1.323 0.731,0 1.323,0.592 1.323,1.323 M 40.62,7.409 c 0,0.731 -0.593,1.323 -1.323,1.323 -0.731,0 -1.324,-0.592 -1.324,-1.323 0,-0.73 0.593,-1.323 1.324,-1.323 0.73,0 1.323,0.593 1.323,1.323 M 26.065,-6.351 c 0,0.73 -0.592,1.323 -1.323,1.323 -0.73,0 -1.323,-0.593 -1.323,-1.323 0,-0.73 0.593,-1.323 1.323,-1.323 0.731,0 1.323,0.593 1.323,1.323 m 109.422,13.76 c 0,0.731 -0.593,1.323 -1.323,1.323 -0.731,0 -1.324,-0.592 -1.324,-1.323 0,-0.73 0.593,-1.323 1.324,-1.323 0.73,0 1.323,0.593 1.323,1.323 m 58.217,0.927 c 0,0.73 -0.593,1.323 -1.323,1.323 -0.731,0 -1.324,-0.593 -1.324,-1.323 0,-0.731 0.593,-1.324 1.324,-1.324 0.73,0 1.323,0.593 1.323,1.324 M 42.604,4.631 c 0,0.73 -0.592,1.323 -1.323,1.323 -0.73,0 -1.323,-0.593 -1.323,-1.323 0,-0.731 0.593,-1.323 1.323,-1.323 0.731,0 1.323,0.592 1.323,1.323 m 173.063,7.939 c 0,0.73 -0.592,1.323 -1.323,1.323 -0.73,0 -1.323,-0.593 -1.323,-1.323 0,-0.731 0.593,-1.324 1.323,-1.324 0.731,0 1.323,0.593 1.323,1.324 M 139.588,0.794 c 0,0.73 -0.592,1.323 -1.323,1.323 -0.73,0 -1.323,-0.593 -1.323,-1.323 0,-0.731 0.593,-1.323 1.323,-1.323 0.731,0 1.323,0.592 1.323,1.323 M -6.88,-17.201 c 0,0.731 -0.593,1.324 -1.323,1.324 -0.731,0 -1.323,-0.593 -1.323,-1.324 0,-0.73 0.592,-1.323 1.323,-1.323 0.73,0 1.323,0.593 1.323,1.323 m 113.391,28.712 c 0,0.73 -0.593,1.323 -1.323,1.323 -0.731,0 -1.324,-0.593 -1.324,-1.323 0,-0.73 0.593,-1.323 1.324,-1.323 0.73,0 1.323,0.593 1.323,1.323 M 131.65,-7.806 c 0,0.73 -0.593,1.323 -1.323,1.323 -0.731,0 -1.324,-0.593 -1.324,-1.323 0,-0.731 0.593,-1.324 1.324,-1.324 0.73,0 1.323,0.593 1.323,1.324 m -97.778,-6.087 c 0,0.731 -0.593,1.323 -1.323,1.323 -0.731,0 -1.323,-0.592 -1.323,-1.323 0,-0.73 0.592,-1.323 1.323,-1.323 0.73,0 1.323,0.593 1.323,1.323 m -9.13,22.89 c 0,0.73 -0.592,1.323 -1.323,1.323 -0.73,0 -1.323,-0.593 -1.323,-1.323 0,-0.73 0.593,-1.323 1.323,-1.323 0.731,0 1.323,0.593 1.323,1.323 m -40.09,8.733 c 0,0.73 -0.593,1.323 -1.323,1.323 -0.731,0 -1.323,-0.593 -1.323,-1.323 0,-0.731 0.592,-1.323 1.323,-1.323 0.73,0 1.323,0.592 1.323,1.323 M 26.595,-8.468 c 0,0.73 -0.593,1.323 -1.324,1.323 -0.73,0 -1.323,-0.593 -1.323,-1.323 0,-0.73 0.593,-1.323 1.323,-1.323 0.731,0 1.324,0.593 1.324,1.323 m 20.111,9.129 c 0,0.731 -0.593,1.324 -1.323,1.324 -0.731,0 -1.323,-0.593 -1.323,-1.324 0,-0.73 0.592,-1.323 1.323,-1.323 0.73,0 1.323,0.593 1.323,1.323 M 8.997,-17.068 c 0,0.73 -0.593,1.323 -1.323,1.323 -0.73,0 -1.323,-0.593 -1.323,-1.323 0,-0.731 0.593,-1.323 1.323,-1.323 0.73,0 1.323,0.592 1.323,1.323 m 8.071,24.874 c 0,0.731 -0.593,1.323 -1.323,1.323 -0.73,0 -1.323,-0.592 -1.323,-1.323 0,-0.73 0.593,-1.323 1.323,-1.323 0.73,0 1.323,0.593 1.323,1.323 M -4.895,-12.04 c 0,0.73 -0.593,1.323 -1.324,1.323 -0.73,0 -1.323,-0.593 -1.323,-1.323 0,-0.731 0.593,-1.324 1.323,-1.324 0.731,0 1.324,0.593 1.324,1.324 m 25.469,9.791 c 0,0.73 -0.592,1.323 -1.323,1.323 -0.73,0 -1.323,-0.593 -1.323,-1.323 0,-0.731 0.593,-1.323 1.323,-1.323 0.731,0 1.323,0.592 1.323,1.323 m 16.738,-0.133 c 0,0.731 -0.593,1.323 -1.323,1.323 -0.731,0 -1.323,-0.592 -1.323,-1.323 0,-0.73 0.592,-1.323 1.323,-1.323 0.73,0 1.323,0.593 1.323,1.323 m 7.674,-11.114 c 0,0.731 -0.593,1.323 -1.323,1.323 -0.731,0 -1.323,-0.592 -1.323,-1.323 0,-0.73 0.592,-1.323 1.323,-1.323 0.73,0 1.323,0.593 1.323,1.323 m -7.806,7.807 c 0,0.73 -0.593,1.323 -1.324,1.323 -0.73,0 -1.323,-0.593 -1.323,-1.323 0,-0.731 0.593,-1.323 1.323,-1.323 0.731,0 1.324,0.592 1.324,1.323 m -4.499,-4.896 c 0,0.73 -0.593,1.323 -1.323,1.323 -0.731,0 -1.323,-0.593 -1.323,-1.323 0,-0.73 0.592,-1.323 1.323,-1.323 0.73,0 1.323,0.593 1.323,1.323 m 106.113,19.45 c 0,0.73 -0.592,1.323 -1.323,1.323 -0.73,0 -1.323,-0.593 -1.323,-1.323 0,-0.731 0.593,-1.323 1.323,-1.323 0.731,0 1.323,0.592 1.323,1.323 M 28.579,-3.572 c 0,0.73 -0.592,1.323 -1.323,1.323 -0.73,0 -1.323,-0.593 -1.323,-1.323 0,-0.731 0.593,-1.324 1.323,-1.324 0.731,0 1.323,0.593 1.323,1.324 M 3.043,-7.277 c 0,0.73 -0.593,1.323 -1.323,1.323 -0.73,0 -1.323,-0.593 -1.323,-1.323 0,-0.731 0.593,-1.323 1.323,-1.323 0.73,0 1.323,0.592 1.323,1.323 m -13.363,1.852 c 0,0.731 -0.593,1.323 -1.323,1.323 -0.731,0 -1.323,-0.592 -1.323,-1.323 0,-0.73 0.592,-1.323 1.323,-1.323 0.73,0 1.323,0.593 1.323,1.323 m 14.686,-7.542 c 0,0.731 -0.592,1.324 -1.323,1.324 -0.73,0 -1.323,-0.593 -1.323,-1.324 0,-0.73 0.593,-1.323 1.323,-1.323 0.731,0 1.323,0.593 1.323,1.323 m 177.165,22.89 c 0,0.731 -0.593,1.323 -1.323,1.323 -0.73,0 -1.323,-0.592 -1.323,-1.323 0,-0.73 0.593,-1.323 1.323,-1.323 0.73,0 1.323,0.593 1.323,1.323 M 34.93,-0.132 c 0,0.73 -0.592,1.323 -1.323,1.323 -0.73,0 -1.323,-0.593 -1.323,-1.323 0,-0.731 0.593,-1.323 1.323,-1.323 0.731,0 1.323,0.592 1.323,1.323 m 56.365,4.895 c 0,0.73 -0.593,1.323 -1.323,1.323 -0.731,0 -1.323,-0.593 -1.323,-1.323 0,-0.73 0.592,-1.323 1.323,-1.323 0.73,0 1.323,0.593 1.323,1.323 m -1.72,-1.588 c 0,0.731 -0.593,1.324 -1.323,1.324 -0.731,0 -1.324,-0.593 -1.324,-1.324 0,-0.73 0.593,-1.323 1.324,-1.323 0.73,0 1.323,0.593 1.323,1.323 M 5.954,0.265 c 0,0.73 -0.593,1.323 -1.323,1.323 -0.73,0 -1.323,-0.593 -1.323,-1.323 0,-0.731 0.593,-1.324 1.323,-1.324 0.73,0 1.323,0.593 1.323,1.324 m 1.72,-1.191 c 0,0.73 -0.593,1.323 -1.323,1.323 -0.73,0 -1.323,-0.593 -1.323,-1.323 0,-0.731 0.593,-1.323 1.323,-1.323 0.73,0 1.323,0.592 1.323,1.323 M 32.681,22.89 c 0,0.73 -0.593,1.323 -1.323,1.323 -0.731,0 -1.323,-0.593 -1.323,-1.323 0,-0.73 0.592,-1.323 1.323,-1.323 0.73,0 1.323,0.593 1.323,1.323 m -8.997,2.911 c 0,0.73 -0.593,1.323 -1.323,1.323 -0.731,0 -1.323,-0.593 -1.323,-1.323 0,-0.731 0.592,-1.323 1.323,-1.323 0.73,0 1.323,0.592 1.323,1.323 M 80.71,2.779 c 0,0.73 -0.593,1.323 -1.323,1.323 -0.731,0 -1.323,-0.593 -1.323,-1.323 0,-0.731 0.592,-1.324 1.323,-1.324 0.73,0 1.323,0.593 1.323,1.324 M -3.043,-7.542 c 0,0.731 -0.593,1.323 -1.323,1.323 -0.731,0 -1.323,-0.592 -1.323,-1.323 0,-0.73 0.592,-1.323 1.323,-1.323 0.73,0 1.323,0.593 1.323,1.323 M 8.997,3.969 c 0,0.731 -0.593,1.323 -1.323,1.323 -0.73,0 -1.323,-0.592 -1.323,-1.323 0,-0.73 0.593,-1.323 1.323,-1.323 0.73,0 1.323,0.593 1.323,1.323 m 50.675,-6.218 c 0,0.73 -0.592,1.323 -1.323,1.323 -0.73,0 -1.323,-0.593 -1.323,-1.323 0,-0.731 0.593,-1.323 1.323,-1.323 0.731,0 1.323,0.592 1.323,1.323 m -66.42,1.19 c 0,0.731 -0.593,1.324 -1.323,1.324 -0.73,0 -1.323,-0.593 -1.323,-1.324 0,-0.73 0.593,-1.323 1.323,-1.323 0.73,0 1.323,0.593 1.323,1.323 m 3.308,6.616 c 0,0.73 -0.593,1.323 -1.323,1.323 -0.73,0 -1.323,-0.593 -1.323,-1.323 0,-0.73 0.593,-1.323 1.323,-1.323 0.73,0 1.323,0.593 1.323,1.323 m 14.025,-7.873 c 0,0.731 -0.593,1.324 -1.323,1.324 -0.73,0 -1.323,-0.593 -1.323,-1.324 0,-0.73 0.593,-1.323 1.323,-1.323 0.73,0 1.323,0.593 1.323,1.323 m 47.367,7.608 c 0,0.731 -0.592,1.324 -1.323,1.324 -0.73,0 -1.323,-0.593 -1.323,-1.324 0,-0.73 0.593,-1.323 1.323,-1.323 0.731,0 1.323,0.593 1.323,1.323 m 33.475,-19.846 c 0,0.73 -0.593,1.323 -1.323,1.323 -0.73,0 -1.323,-0.593 -1.323,-1.323 0,-0.731 0.593,-1.323 1.323,-1.323 0.73,0 1.323,0.592 1.323,1.323 M -15.348,-2.911 c 0,0.731 -0.593,1.323 -1.323,1.323 -0.731,0 -1.323,-0.592 -1.323,-1.323 0,-0.73 0.592,-1.323 1.323,-1.323 0.73,0 1.323,0.593 1.323,1.323 M 4.499,-8.733 c 0,0.731 -0.593,1.324 -1.323,1.324 -0.731,0 -1.324,-0.593 -1.324,-1.324 0,-0.73 0.593,-1.323 1.324,-1.323 0.73,0 1.323,0.593 1.323,1.323 m 3.572,2.911 c 0,0.731 -0.593,1.323 -1.323,1.323 -0.73,0 -1.323,-0.592 -1.323,-1.323 0,-0.73 0.593,-1.323 1.323,-1.323 0.73,0 1.323,0.593 1.323,1.323 m 5.292,23.155 c 0,0.73 -0.592,1.323 -1.323,1.323 -0.73,0 -1.323,-0.593 -1.323,-1.323 0,-0.731 0.593,-1.323 1.323,-1.323 0.731,0 1.323,0.592 1.323,1.323 M 106.114,3.969 c 0,0.731 -0.593,1.323 -1.324,1.323 -0.73,0 -1.323,-0.592 -1.323,-1.323 0,-0.73 0.593,-1.323 1.323,-1.323 0.731,0 1.324,0.593 1.324,1.323 M 33.078,0.132 c 0,0.731 -0.593,1.323 -1.323,1.323 -0.731,0 -1.323,-0.592 -1.323,-1.323 0,-0.73 0.592,-1.323 1.323,-1.323 0.73,0 1.323,0.593 1.323,1.323 M -2.249,-27.785 c 0,0.73 -0.593,1.323 -1.323,1.323 -0.731,0 -1.323,-0.593 -1.323,-1.323 0,-0.731 0.592,-1.324 1.323,-1.324 0.73,0 1.323,0.593 1.323,1.324 m 94.47,18.92 c 0,0.73 -0.593,1.323 -1.323,1.323 -0.731,0 -1.323,-0.593 -1.323,-1.323 0,-0.73 0.592,-1.323 1.323,-1.323 0.73,0 1.323,0.593 1.323,1.323 m -95,-0.132 c 0,0.73 -0.592,1.323 -1.323,1.323 -0.73,0 -1.323,-0.593 -1.323,-1.323 0,-0.731 0.593,-1.323 1.323,-1.323 0.731,0 1.323,0.592 1.323,1.323 m 27.786,2.911 c 0,0.73 -0.593,1.323 -1.323,1.323 -0.731,0 -1.323,-0.593 -1.323,-1.323 0,-0.731 0.592,-1.323 1.323,-1.323 0.73,0 1.323,0.592 1.323,1.323 m 73.83,-2.382 c 0,0.73 -0.593,1.323 -1.324,1.323 -0.73,0 -1.323,-0.593 -1.323,-1.323 0,-0.73 0.593,-1.323 1.323,-1.323 0.731,0 1.324,0.593 1.324,1.323 m 17.465,21.17 c 0,0.73 -0.593,1.323 -1.323,1.323 -0.731,0 -1.324,-0.593 -1.324,-1.323 0,-0.731 0.593,-1.323 1.324,-1.323 0.73,0 1.323,0.592 1.323,1.323 M -16.142,-1.72 c 0,0.73 -0.593,1.323 -1.323,1.323 -0.73,0 -1.323,-0.593 -1.323,-1.323 0,-0.73 0.593,-1.323 1.323,-1.323 0.73,0 1.323,0.593 1.323,1.323 m 146.336,-7.939 c 0,0.731 -0.592,1.323 -1.323,1.323 -0.73,0 -1.323,-0.592 -1.323,-1.323 0,-0.73 0.593,-1.323 1.323,-1.323 0.731,0 1.323,0.593 1.323,1.323 m -145.542,7.41 c 0,0.73 -0.593,1.323 -1.323,1.323 -0.731,0 -1.323,-0.593 -1.323,-1.323 0,-0.731 0.592,-1.323 1.323,-1.323 0.73,0 1.323,0.592 1.323,1.323 M 7.939,5.557 c 0,0.73 -0.593,1.323 -1.323,1.323 -0.731,0 -1.324,-0.593 -1.324,-1.323 0,-0.73 0.593,-1.323 1.324,-1.323 0.73,0 1.323,0.593 1.323,1.323 m 64.568,6.086 c 0,0.731 -0.593,1.323 -1.323,1.323 -0.731,0 -1.324,-0.592 -1.324,-1.323 0,-0.73 0.593,-1.323 1.324,-1.323 0.73,0 1.323,0.593 1.323,1.323 M 26.33,6.351 c 0,0.73 -0.593,1.323 -1.323,1.323 -0.73,0 -1.323,-0.593 -1.323,-1.323 0,-0.73 0.593,-1.323 1.323,-1.323 0.73,0 1.323,0.593 1.323,1.323 M -10.32,3.175 c 0,0.731 -0.593,1.324 -1.323,1.324 -0.731,0 -1.323,-0.593 -1.323,-1.324 0,-0.73 0.592,-1.323 1.323,-1.323 0.73,0 1.323,0.593 1.323,1.323 m 21.302,9.262 c 0,0.731 -0.593,1.323 -1.323,1.323 -0.731,0 -1.323,-0.592 -1.323,-1.323 0,-0.73 0.592,-1.323 1.323,-1.323 0.73,0 1.323,0.593 1.323,1.323 m 4.366,-5.028 c 0,0.731 -0.593,1.323 -1.323,1.323 -0.73,0 -1.323,-0.592 -1.323,-1.323 0,-0.73 0.593,-1.323 1.323,-1.323 0.73,0 1.323,0.593 1.323,1.323 M 7.41,4.234 c 0,0.73 -0.593,1.323 -1.324,1.323 -0.73,0 -1.323,-0.593 -1.323,-1.323 0,-0.73 0.593,-1.323 1.323,-1.323 0.731,0 1.324,0.593 1.324,1.323 M 47.103,-10.32 c 0,0.73 -0.593,1.323 -1.323,1.323 -0.731,0 -1.323,-0.593 -1.323,-1.323 0,-0.731 0.592,-1.323 1.323,-1.323 0.73,0 1.323,0.592 1.323,1.323 M 13.76,-6.88 c 0,0.73 -0.592,1.323 -1.323,1.323 -0.73,0 -1.323,-0.593 -1.323,-1.323 0,-0.731 0.593,-1.323 1.323,-1.323 0.731,0 1.323,0.592 1.323,1.323 M -2.514,1.059 c 0,0.73 -0.593,1.323 -1.323,1.323 -0.73,0 -1.323,-0.593 -1.323,-1.323 0,-0.731 0.593,-1.324 1.323,-1.324 0.73,0 1.323,0.593 1.323,1.324 m -1.588,4.763 c 0,0.73 -0.592,1.323 -1.323,1.323 -0.73,0 -1.323,-0.593 -1.323,-1.323 0,-0.731 0.593,-1.323 1.323,-1.323 0.731,0 1.323,0.592 1.323,1.323 M 9.394,5.954 c 0,0.73 -0.593,1.323 -1.323,1.323 -0.73,0 -1.323,-0.593 -1.323,-1.323 0,-0.73 0.593,-1.323 1.323,-1.323 0.73,0 1.323,0.593 1.323,1.323 M 55.571,-7.542 c 0,0.731 -0.593,1.323 -1.323,1.323 -0.731,0 -1.324,-0.592 -1.324,-1.323 0,-0.73 0.593,-1.323 1.324,-1.323 0.73,0 1.323,0.593 1.323,1.323 m 46.573,16.936 c 0,0.73 -0.592,1.323 -1.323,1.323 -0.73,0 -1.323,-0.593 -1.323,-1.323 0,-0.73 0.593,-1.323 1.323,-1.323 0.731,0 1.323,0.593 1.323,1.323 M 21.699,-0.926 c 0,0.73 -0.593,1.323 -1.323,1.323 -0.73,0 -1.323,-0.593 -1.323,-1.323 0,-0.731 0.593,-1.323 1.323,-1.323 0.73,0 1.323,0.592 1.323,1.323 m 28.05,2.514 c 0,0.73 -0.593,1.323 -1.323,1.323 -0.73,0 -1.323,-0.593 -1.323,-1.323 0,-0.731 0.593,-1.323 1.323,-1.323 0.73,0 1.323,0.592 1.323,1.323 M -8.336,6.351 c 0,0.73 -0.592,1.323 -1.323,1.323 -0.73,0 -1.323,-0.593 -1.323,-1.323 0,-0.73 0.593,-1.323 1.323,-1.323 0.731,0 1.323,0.593 1.323,1.323 m -6.88,-27.521 c 0,0.731 -0.593,1.323 -1.323,1.323 -0.73,0 -1.323,-0.592 -1.323,-1.323 0,-0.73 0.593,-1.323 1.323,-1.323 0.73,0 1.323,0.593 1.323,1.323 M 137.207,2.514 c 0,0.73 -0.593,1.323 -1.323,1.323 -0.731,0 -1.323,-0.593 -1.323,-1.323 0,-0.731 0.592,-1.323 1.323,-1.323 0.73,0 1.323,0.592 1.323,1.323 M 77.534,24.61 c 0,0.73 -0.592,1.323 -1.323,1.323 -0.73,0 -1.323,-0.593 -1.323,-1.323 0,-0.731 0.593,-1.323 1.323,-1.323 0.731,0 1.323,0.592 1.323,1.323 M 56.497,-17.994 c 0,0.73 -0.593,1.323 -1.323,1.323 -0.731,0 -1.323,-0.593 -1.323,-1.323 0,-0.731 0.592,-1.324 1.323,-1.324 0.73,0 1.323,0.593 1.323,1.324 M 14.025,-2.117 c 0,0.73 -0.593,1.323 -1.323,1.323 -0.73,0 -1.323,-0.593 -1.323,-1.323 0,-0.73 0.593,-1.323 1.323,-1.323 0.73,0 1.323,0.593 1.323,1.323 m 143.161,14.29 c 0,0.73 -0.593,1.323 -1.323,1.323 -0.731,0 -1.323,-0.593 -1.323,-1.323 0,-0.731 0.592,-1.324 1.323,-1.324 0.73,0 1.323,0.593 1.323,1.324 M -3.043,8.865 c 0,0.73 -0.593,1.323 -1.323,1.323 -0.731,0 -1.323,-0.593 -1.323,-1.323 0,-0.731 0.592,-1.323 1.323,-1.323 0.73,0 1.323,0.592 1.323,1.323 M -3.837,-6.748 c 0,0.73 -0.593,1.323 -1.323,1.323 -0.731,0 -1.323,-0.593 -1.323,-1.323 0,-0.73 0.592,-1.323 1.323,-1.323 0.73,0 1.323,0.593 1.323,1.323 m -9.394,-5.292 c 0,0.73 -0.593,1.323 -1.323,1.323 -0.731,0 -1.323,-0.593 -1.323,-1.323 0,-0.731 0.592,-1.324 1.323,-1.324 0.73,0 1.323,0.593 1.323,1.324 M 24.345,8.997 c 0,0.73 -0.592,1.323 -1.323,1.323 -0.73,0 -1.323,-0.593 -1.323,-1.323 0,-0.73 0.593,-1.323 1.323,-1.323 0.731,0 1.323,0.593 1.323,1.323 m 136.281,2.646 c 0,0.731 -0.593,1.323 -1.323,1.323 -0.731,0 -1.323,-0.592 -1.323,-1.323 0,-0.73 0.592,-1.323 1.323,-1.323 0.73,0 1.323,0.593 1.323,1.323 M 36.253,14.29 c 0,0.73 -0.592,1.323 -1.323,1.323 -0.73,0 -1.323,-0.593 -1.323,-1.323 0,-0.731 0.593,-1.324 1.323,-1.324 0.731,0 1.323,0.593 1.323,1.324 M 26.462,1.455 c 0,0.731 -0.592,1.324 -1.323,1.324 -0.73,0 -1.323,-0.593 -1.323,-1.324 0,-0.73 0.593,-1.323 1.323,-1.323 0.731,0 1.323,0.593 1.323,1.323 m 64.7,-2.91 c 0,0.73 -0.592,1.323 -1.323,1.323 -0.73,0 -1.323,-0.593 -1.323,-1.323 0,-0.731 0.593,-1.324 1.323,-1.324 0.731,0 1.323,0.593 1.323,1.324 M -1.191,-5.689 c 0,0.73 -0.592,1.323 -1.323,1.323 -0.73,0 -1.323,-0.593 -1.323,-1.323 0,-0.731 0.593,-1.323 1.323,-1.323 0.731,0 1.323,0.592 1.323,1.323 m 21.038,8.468 c 0,0.73 -0.593,1.323 -1.323,1.323 -0.731,0 -1.323,-0.593 -1.323,-1.323 0,-0.731 0.592,-1.324 1.323,-1.324 0.73,0 1.323,0.593 1.323,1.324 m 133.766,6.615 c 0,0.73 -0.592,1.323 -1.323,1.323 -0.73,0 -1.323,-0.593 -1.323,-1.323 0,-0.73 0.593,-1.323 1.323,-1.323 0.731,0 1.323,0.593 1.323,1.323 M -6.615,-26.065 c 0,0.73 -0.593,1.323 -1.324,1.323 -0.73,0 -1.323,-0.593 -1.323,-1.323 0,-0.731 0.593,-1.324 1.323,-1.324 0.731,0 1.324,0.593 1.324,1.324 m 48.69,40.355 c 0,0.73 -0.593,1.323 -1.323,1.323 -0.731,0 -1.323,-0.593 -1.323,-1.323 0,-0.731 0.592,-1.324 1.323,-1.324 0.73,0 1.323,0.593 1.323,1.324 m 4.102,-32.549 c 0,0.73 -0.593,1.323 -1.323,1.323 -0.731,0 -1.324,-0.593 -1.324,-1.323 0,-0.73 0.593,-1.323 1.324,-1.323 0.73,0 1.323,0.593 1.323,1.323 M 90.898,4.763 c 0,0.73 -0.593,1.323 -1.323,1.323 -0.731,0 -1.323,-0.593 -1.323,-1.323 0,-0.73 0.592,-1.323 1.323,-1.323 0.73,0 1.323,0.593 1.323,1.323 m 13.363,-2.778 c 0,0.73 -0.592,1.323 -1.323,1.323 -0.73,0 -1.323,-0.593 -1.323,-1.323 0,-0.731 0.593,-1.324 1.323,-1.324 0.731,0 1.323,0.593 1.323,1.324"
             style="fill:#2f3f52;fill-opacity:1;fill-rule:nonzero;stroke:#ffffff;stroke-width:0.052;stroke-linecap:butt;stroke-linejoin:miter;stroke-miterlimit:10;stroke-dasharray:none;stroke-opacity:1"
             id="path106"
             inkscape:connector-curvature="0" /></g></g></g><text
       transform="matrix(0.86724,0,0,-1,18.4946,96.4912)"
       style="font-variant:normal;font-weight:500;font-stretch:normal;font-size:5px;font-family:DINOT;-inkscape-font-specification:DINOT;writing-mode:lr-tb;fill:#7f8c8c;fill-opacity:1;fill-rule:nonzero;stroke:none"
       id="text108"><tspan
         x="0"
         y="0"
         id="tspan110">6</tspan></text>
<g
       id="g112"><g
         id="g114"
         clip-path="url(#clipPath116)"><g
           id="g120"
           transform="translate(27.3498,98.0389)"><path
             d="M 0,0 -3.126,0"
             style="fill:none;stroke:#7f8c8c;stroke-width:0.551;stroke-linecap:butt;stroke-linejoin:miter;stroke-miterlimit:10;stroke-dasharray:none;stroke-opacity:1"
             id="path122"
             inkscape:connector-curvature="0" /></g></g></g><text
       transform="matrix(0.86724,0,0,-1,18.4946,142.2476)"
       style="font-variant:normal;font-weight:500;font-stretch:normal;font-size:5px;font-family:DINOT;-inkscape-font-specification:DINOT;writing-mode:lr-tb;fill:#7f8c8c;fill-opacity:1;fill-rule:nonzero;stroke:none"
       id="text124"><tspan
         x="0"
         y="0"
         id="tspan126">8</tspan></text>
<g
       id="g128"><g
         id="g130"
         clip-path="url(#clipPath132)"><g
           id="g136"
           transform="translate(27.3498,143.7947)"><path
             d="M 0,0 -3.126,0"
             style="fill:none;stroke:#7f8c8c;stroke-width:0.551;stroke-linecap:butt;stroke-linejoin:miter;stroke-miterlimit:10;stroke-dasharray:none;stroke-opacity:1"
             id="path138"
             inkscape:connector-curvature="0" /></g></g></g><text
       transform="matrix(0.86724,0,0,-1,18.4946,50.7344)"
       style="font-variant:normal;font-weight:500;font-stretch:normal;font-size:5px;font-family:DINOT;-inkscape-font-specification:DINOT;writing-mode:lr-tb;fill:#7f8c8c;fill-opacity:1;fill-rule:nonzero;stroke:none"
       id="text140"><tspan
         x="0"
         y="0"
         id="tspan142">4</tspan></text>
<g
       id="g144"><g
         id="g146"
         clip-path="url(#clipPath148)"><g
           id="g152"
           transform="translate(27.3498,52.283)"><path
             d="M 0,0 -3.126,0"
             style="fill:none;stroke:#7f8c8c;stroke-width:0.551;stroke-linecap:butt;stroke-linejoin:miter;stroke-miterlimit:10;stroke-dasharray:none;stroke-opacity:1"
             id="path154"
             inkscape:connector-curvature="0" /></g></g></g><text
       transform="matrix(0.86724,0,0,-1,16.1836,188.0034)"
       style="font-variant:normal;font-weight:500;font-stretch:normal;font-size:5px;font-family:DINOT;-inkscape-font-specification:DINOT;writing-mode:lr-tb;fill:#7f8c8c;fill-opacity:1;fill-rule:nonzero;stroke:none"
       id="text156"><tspan
         x="0 2.665"
         y="0"
         sodipodi:role="line"
         id="tspan158">10</tspan></text>
<g
       id="g160"><g
         id="g162"
         clip-path="url(#clipPath164)"><g
           id="g168"
           transform="translate(27.3498,189.8737)"><path
             d="M 0,0 -3.126,0"
             style="fill:none;stroke:#7f8c8c;stroke-width:0.551;stroke-linecap:butt;stroke-linejoin:miter;stroke-miterlimit:10;stroke-dasharray:none;stroke-opacity:1"
             id="path170"
             inkscape:connector-curvature="0" /></g></g></g><text
       transform="matrix(0.86724,0,0,-1,18.4946,27.8564)"
       style="font-variant:normal;font-weight:500;font-stretch:normal;font-size:5px;font-family:DINOT;-inkscape-font-specification:DINOT;writing-mode:lr-tb;fill:#7f8c8c;fill-opacity:1;fill-rule:nonzero;stroke:none"
       id="text172"><tspan
         x="0"
         y="0"
         id="tspan174">3</tspan></text>
<g
       id="g176"><g
         id="g178"
         clip-path="url(#clipPath180)"><g
           id="g184"
           transform="translate(27.3498,28.8767)"><path
             d="M 0,0 -3.126,0"
             style="fill:none;stroke:#7f8c8c;stroke-width:0.551;stroke-linecap:butt;stroke-linejoin:miter;stroke-miterlimit:10;stroke-dasharray:none;stroke-opacity:1"
             id="path186"
             inkscape:connector-curvature="0" /></g></g></g><text
       transform="matrix(0.86724,0,0,-1,18.6406,165.1255)"
       style="font-variant:normal;font-weight:500;font-stretch:normal;font-size:5px;font-family:DINOT;-inkscape-font-specification:DINOT;writing-mode:lr-tb;fill:#7f8c8c;fill-opacity:1;fill-rule:nonzero;stroke:none"
       id="text188"><tspan
         x="0"
         y="0"
         id="tspan190">9</tspan></text>
<g
       id="g192"><g
         id="g194"
         clip-path="url(#clipPath196)"><g
           id="g200"
           transform="translate(27.496,166.9956)"><path
             d="M 0,0 -3.126,0"
             style="fill:none;stroke:#7f8c8c;stroke-width:0.551;stroke-linecap:butt;stroke-linejoin:miter;stroke-miterlimit:10;stroke-dasharray:none;stroke-opacity:1"
             id="path202"
             inkscape:connector-curvature="0" /></g></g></g><text
       transform="matrix(0.86724,0,0,-1,18.7871,119.3687)"
       style="font-variant:normal;font-weight:500;font-stretch:normal;font-size:5px;font-family:DINOT;-inkscape-font-specification:DINOT;writing-mode:lr-tb;fill:#7f8c8c;fill-opacity:1;fill-rule:nonzero;stroke:none"
       id="text204"><tspan
         x="0"
         y="0"
         id="tspan206">7</tspan></text>
<g
       id="g208"><g
         id="g210"
         clip-path="url(#clipPath212)"><g
           id="g216"
           transform="translate(27.6422,121.2394)"><path
             d="M 0,0 -3.126,0"
             style="fill:none;stroke:#7f8c8c;stroke-width:0.551;stroke-linecap:butt;stroke-linejoin:miter;stroke-miterlimit:10;stroke-dasharray:none;stroke-opacity:1"
             id="path218"
             inkscape:connector-curvature="0" /></g></g></g><text
       transform="matrix(0.86724,0,0,-1,18.4946,73.6133)"
       style="font-variant:normal;font-weight:500;font-stretch:normal;font-size:5px;font-family:DINOT;-inkscape-font-specification:DINOT;writing-mode:lr-tb;fill:#7f8c8c;fill-opacity:1;fill-rule:nonzero;stroke:none"
       id="text220"><tspan
         x="0"
         y="0"
         id="tspan222">5</tspan></text>
<g
       id="g224"><g
         id="g226"
         clip-path="url(#clipPath228)"><g
           id="g232"
           transform="translate(27.3498,75.4833)"><path
             d="M 0,0 -3.126,0"
             style="fill:none;stroke:#7f8c8c;stroke-width:0.551;stroke-linecap:butt;stroke-linejoin:miter;stroke-miterlimit:10;stroke-dasharray:none;stroke-opacity:1"
             id="path234"
             inkscape:connector-curvature="0" /></g></g></g><text
       transform="matrix(1,0,0,-1,296.3223,13.022)"
       style="font-variant:normal;font-weight:300;font-stretch:normal;font-size:5px;font-family:DINOT;-inkscape-font-specification:DINOT;writing-mode:lr-tb;fill:#34495e;fill-opacity:1;fill-rule:nonzero;stroke:none"
       id="text236"><tspan
         x="0 3.3900001 6.0100002 7.6350002 10.255 11.53 14 16.629999 19.424999 21.469999 23.934999 26.549999 28.01 29.285 32.439999 33.665001 35.290001 37.755001 40.549999 42.07 44.700001 46.744999 49.380001 50.700001 53.165001 55.794998"
         y="0"
         sodipodi:role="line"
         id="tspan238">Data source: Pitchfork.com</tspan><tspan
         x="-10.415 -7.0250001 -4.4099998 -1.9450001 -0.72000003 1.98 4.5949998 6.0300002 8.5 11.12 13.915 16.615 19.315001 21.93 24.395 25.620001 30.01 32.630001 34.064999 36.535 37.855 40.32 42.950001 47.34 48.630001 49.904999 52.474998 55.044998 57.615002"
         y="6"
         sodipodi:role="line"
         id="tspan240">Decibelsanddecimals.com, 2015</tspan></text>
</g></svg>