<?xml version="1.0" encoding="UTF-8" standalone="no"?>
<svg
   xmlns:dc="http://purl.org/dc/elements/1.1/"
   xmlns:cc="http://creativecommons.org/ns#"
   xmlns:rdf="http://www.w3.org/1999/02/22-rdf-syntax-ns#"
   xmlns:svg="http://www.w3.org/2000/svg"
   xmlns="http://www.w3.org/2000/svg"
   viewBox="0 0 415.11124 109.76509"
   height="109.76509"
   width="415.11124"
   xml:space="preserve"
   version="1.1"
   id="svg3534"><metadata
     id="metadata3540"><rdf:RDF><cc:Work
         rdf:about=""><dc:format>image/svg+xml</dc:format><dc:type
           rdf:resource="http://purl.org/dc/dcmitype/StillImage" /><dc:title></dc:title></cc:Work></rdf:RDF></metadata><defs
     id="defs3538"><clipPath
       id="clipPath3718"
       clipPathUnits="userSpaceOnUse"><path
         id="path3720"
         d="M 0,0 792,0 792,612 0,612 0,0 Z" /></clipPath><clipPath
       id="clipPath3754"
       clipPathUnits="userSpaceOnUse"><path
         id="path3756"
         d="m 74.56,126.98 703.04,0 0,445.53 -703.04,0 0,-445.53 z" /></clipPath><clipPath
       id="clipPath4550"
       clipPathUnits="userSpaceOnUse"><path
         id="path4552"
         d="M 0,0 792,0 792,612 0,612 0,0 Z" /></clipPath><clipPath
       id="clipPath4586"
       clipPathUnits="userSpaceOnUse"><path
         id="path4588"
         d="m 74.56,46.99 703.04,0 0,525.66 -703.04,0 0,-525.66 z" /></clipPath></defs><g
     transform="matrix(1.25,0,0,-1.25,-157.07375,900)"
     id="g3542"><g
       id="g5145"><g
         id="g3544"
         transform="translate(125.659,719.801)"><path
           d="M 0,0 143.668,0"
           style="fill:none;stroke:#000000;stroke-width:0.398;stroke-linecap:butt;stroke-linejoin:miter;stroke-miterlimit:10;stroke-dasharray:none;stroke-opacity:1"
           id="path3546" /></g><text
         transform="matrix(1,0,0,-1,131.636,711.93)"
         style="font-variant:normal;font-size:8.96640015px;font-family:NimbusRomNo9L;-inkscape-font-specification:NimbusRomNo9L-Regu;writing-mode:lr-tb;fill:#000000;fill-opacity:1;fill-rule:nonzero;stroke:none"
         id="text3548"><tspan
           x="0 4.7611585 9.2443581 15.969158 22.693958 30.665089 35.148289 39.631489 44.114689"
           y="0"
           id="tspan3550">Top5Moods</tspan></text>
<g
         id="g3552"
         transform="translate(222.231,708.643)"><path
           d="M 0,0 0,10.959"
           style="fill:none;stroke:#000000;stroke-width:0.398;stroke-linecap:butt;stroke-linejoin:miter;stroke-miterlimit:10;stroke-dasharray:none;stroke-opacity:1"
           id="path3554" /></g><text
         transform="matrix(1,0,0,-1,228.407,711.93)"
         style="font-variant:normal;font-size:8.96640015px;font-family:NimbusRomNo9L;-inkscape-font-specification:NimbusRomNo9L-Regu;writing-mode:lr-tb;fill:#000000;fill-opacity:1;fill-rule:nonzero;stroke:none"
         id="text3556"><tspan
           x="0 6.7248001 13.198541 15.6912 19.995071 24.478271 31.454132"
           y="0"
           id="tspan3558">#Albums</tspan></text>
<g
         id="g3560"
         transform="translate(125.659,708.443)"><path
           d="M 0,0 143.668,0"
           style="fill:none;stroke:#000000;stroke-width:0.398;stroke-linecap:butt;stroke-linejoin:miter;stroke-miterlimit:10;stroke-dasharray:none;stroke-opacity:1"
           id="path3562" /></g><g
         id="g3564"
         transform="translate(125.659,706.052)"><path
           d="M 0,0 143.668,0"
           style="fill:none;stroke:#000000;stroke-width:0.398;stroke-linecap:butt;stroke-linejoin:miter;stroke-miterlimit:10;stroke-dasharray:none;stroke-opacity:1"
           id="path3566" /></g><text
         transform="matrix(1,0,0,-1,131.636,698.182)"
         style="font-variant:normal;font-size:8.96640015px;font-family:NimbusRomNo9L;-inkscape-font-specification:NimbusRomNo9L-Regu;writing-mode:lr-tb;fill:#000000;fill-opacity:1;fill-rule:nonzero;stroke:none"
         id="text3568"><tspan
           x="0 6.4737406 13.4496 15.942259 19.923342 24.40654 26.8992 30.880281 33.37294 39.846684 44.32988 48.81308 55.53788 62.011623 65.992706 68.485367 72.968567 75.954376 79.935455"
           y="0"
           id="tspan3570">Amiable/GoodNatured</tspan></text>
<g
         id="g3572"
         transform="translate(222.231,694.894)"><path
           d="M 0,0 0,10.959"
           style="fill:none;stroke:#000000;stroke-width:0.398;stroke-linecap:butt;stroke-linejoin:miter;stroke-miterlimit:10;stroke-dasharray:none;stroke-opacity:1"
           id="path3574" /></g><text
         transform="matrix(1,0,0,-1,238.692,698.182)"
         style="font-variant:normal;font-size:8.96640015px;font-family:NimbusRomNo9L;-inkscape-font-specification:NimbusRomNo9L-Regu;writing-mode:lr-tb;fill:#000000;fill-opacity:1;fill-rule:nonzero;stroke:none"
         id="text3576"><tspan
           x="0 4.4832001 8.9664001 11.208 15.6912 20.1744"
           y="0"
           id="tspan3578">44,151</tspan><tspan
           x="-107.056 -102.07068 -99.578026 -95.596939 -91.113739 -88.12793 -83.64473"
           y="10.959"
           id="tspan3580">Playful</tspan></text>
<g
         id="g3582"
         transform="translate(222.231,683.935)"><path
           d="M 0,0 0,10.959"
           style="fill:none;stroke:#000000;stroke-width:0.398;stroke-linecap:butt;stroke-linejoin:miter;stroke-miterlimit:10;stroke-dasharray:none;stroke-opacity:1"
           id="path3584" /></g><text
         transform="matrix(1,0,0,-1,238.692,687.223)"
         style="font-variant:normal;font-size:8.96640015px;font-family:NimbusRomNo9L;-inkscape-font-specification:NimbusRomNo9L-Regu;writing-mode:lr-tb;fill:#000000;fill-opacity:1;fill-rule:nonzero;stroke:none"
         id="text3586"><tspan
           x="0 4.4832001 8.9664001 11.208 15.6912 20.1744"
           y="0"
           id="tspan3588">41,832</tspan><tspan
           x="-107.056 -101.57753 -97.596451 -94.610634 -90.127434 -86.146355 -82.658424"
           y="10.959"
           id="tspan3590">Earnest</tspan></text>
<g
         id="g3592"
         transform="translate(222.231,672.976)"><path
           d="M 0,0 0,10.959"
           style="fill:none;stroke:#000000;stroke-width:0.398;stroke-linecap:butt;stroke-linejoin:miter;stroke-miterlimit:10;stroke-dasharray:none;stroke-opacity:1"
           id="path3594" /></g><text
         transform="matrix(1,0,0,-1,238.692,676.264)"
         style="font-variant:normal;font-size:8.96640015px;font-family:NimbusRomNo9L;-inkscape-font-specification:NimbusRomNo9L-Regu;writing-mode:lr-tb;fill:#000000;fill-opacity:1;fill-rule:nonzero;stroke:none"
         id="text3596"><tspan
           x="0 4.4832001 8.9664001 11.208 15.6912 20.1744"
           y="0"
           id="tspan3598">40,195</tspan><tspan
           x="-107.056 -101.07541 -96.592209 -92.109009 -88.621078 -86.128426 -81.645226"
           y="10.959"
           id="tspan3600">Rousing</tspan></text>
<g
         id="g3602"
         transform="translate(222.231,662.017)"><path
           d="M 0,0 0,10.959"
           style="fill:none;stroke:#000000;stroke-width:0.398;stroke-linecap:butt;stroke-linejoin:miter;stroke-miterlimit:10;stroke-dasharray:none;stroke-opacity:1"
           id="path3604" /></g><text
         transform="matrix(1,0,0,-1,238.692,665.305)"
         style="font-variant:normal;font-size:8.96640015px;font-family:NimbusRomNo9L;-inkscape-font-specification:NimbusRomNo9L-Regu;writing-mode:lr-tb;fill:#000000;fill-opacity:1;fill-rule:nonzero;stroke:none"
         id="text3606"><tspan
           x="0 4.4832001 8.9664001 11.208 15.6912 20.1744"
           y="0"
           id="tspan3608">39,498</tspan><tspan
           x="-107.056 -101.57753 -97.09433 -93.113251 -90.288834 -85.805634 -81.824547 -79.331894 -76.839233"
           y="10.959"
           id="tspan3610">Energetic</tspan></text>
<g
         id="g3612"
         transform="translate(222.231,651.059)"><path
           d="M 0,0 0,10.959"
           style="fill:none;stroke:#000000;stroke-width:0.398;stroke-linecap:butt;stroke-linejoin:miter;stroke-miterlimit:10;stroke-dasharray:none;stroke-opacity:1"
           id="path3614" /></g><text
         transform="matrix(1,0,0,-1,238.692,654.346)"
         style="font-variant:normal;font-size:8.96640015px;font-family:NimbusRomNo9L;-inkscape-font-specification:NimbusRomNo9L-Regu;writing-mode:lr-tb;fill:#000000;fill-opacity:1;fill-rule:nonzero;stroke:none"
         id="text3616"><tspan
           x="0 4.4832001 8.9664001 11.208 15.6912 20.1744"
           y="0"
           id="tspan3618">38,663</tspan></text>
<g
         id="g3620"
         transform="translate(125.659,650.859)"><path
           d="M 0,0 143.668,0"
           style="fill:none;stroke:#000000;stroke-width:0.398;stroke-linecap:butt;stroke-linejoin:miter;stroke-miterlimit:10;stroke-dasharray:none;stroke-opacity:1"
           id="path3622" /></g><g
         id="g3624"
         transform="translate(337.715,719.801)"><path
           d="M 0,0 120.033,0"
           style="fill:none;stroke:#000000;stroke-width:0.398;stroke-linecap:butt;stroke-linejoin:miter;stroke-miterlimit:10;stroke-dasharray:none;stroke-opacity:1"
           id="path3626" /></g><text
         transform="matrix(1,0,0,-1,343.692,711.93)"
         style="font-variant:normal;font-size:8.96640015px;font-family:NimbusRomNo9L;-inkscape-font-specification:NimbusRomNo9L-Regu;writing-mode:lr-tb;fill:#000000;fill-opacity:1;fill-rule:nonzero;stroke:none"
         id="text3628"><tspan
           x="0 5.9805889 10.463789 12.956448 15.449107 19.932306 29.149767 35.874565 43.845695 48.328896 52.812096 57.295296"
           y="0"
           id="tspan3630">Bottom5Moods</tspan></text>
<g
         id="g3632"
         transform="translate(410.652,708.643)"><path
           d="M 0,0 0,10.959"
           style="fill:none;stroke:#000000;stroke-width:0.398;stroke-linecap:butt;stroke-linejoin:miter;stroke-miterlimit:10;stroke-dasharray:none;stroke-opacity:1"
           id="path3634" /></g><text
         transform="matrix(1,0,0,-1,416.828,711.93)"
         style="font-variant:normal;font-size:8.96640015px;font-family:NimbusRomNo9L;-inkscape-font-specification:NimbusRomNo9L-Regu;writing-mode:lr-tb;fill:#000000;fill-opacity:1;fill-rule:nonzero;stroke:none"
         id="text3636"><tspan
           x="0 6.7248001 13.198541 15.6912 19.995071 24.478271 31.454132"
           y="0"
           id="tspan3638">#Albums</tspan></text>
<g
         id="g3640"
         transform="translate(337.715,708.443)"><path
           d="M 0,0 120.033,0"
           style="fill:none;stroke:#000000;stroke-width:0.398;stroke-linecap:butt;stroke-linejoin:miter;stroke-miterlimit:10;stroke-dasharray:none;stroke-opacity:1"
           id="path3642" /></g><g
         id="g3644"
         transform="translate(337.715,706.052)"><path
           d="M 0,0 120.033,0"
           style="fill:none;stroke:#000000;stroke-width:0.398;stroke-linecap:butt;stroke-linejoin:miter;stroke-miterlimit:10;stroke-dasharray:none;stroke-opacity:1"
           id="path3646" /></g><text
         transform="matrix(1,0,0,-1,343.692,698.182)"
         style="font-variant:normal;font-size:8.96640015px;font-family:NimbusRomNo9L;-inkscape-font-specification:NimbusRomNo9L-Regu;writing-mode:lr-tb;fill:#000000;fill-opacity:1;fill-rule:nonzero;stroke:none"
         id="text3648"><tspan
           x="0 6.4737406 9.4595518 11.952211"
           y="0"
           id="tspan3650">Arid</tspan></text>
<g
         id="g3652"
         transform="translate(410.652,694.894)"><path
           d="M 0,0 0,10.959"
           style="fill:none;stroke:#000000;stroke-width:0.398;stroke-linecap:butt;stroke-linejoin:miter;stroke-miterlimit:10;stroke-dasharray:none;stroke-opacity:1"
           id="path3654" /></g><text
         transform="matrix(1,0,0,-1,442.804,698.182)"
         style="font-variant:normal;font-size:8.96640015px;font-family:NimbusRomNo9L;-inkscape-font-specification:NimbusRomNo9L-Regu;writing-mode:lr-tb;fill:#000000;fill-opacity:1;fill-rule:nonzero;stroke:none"
         id="text3656"><tspan
           x="0 4.4832001"
           y="0"
           id="tspan3658">63</tspan><tspan
           x="-99.112 -94.126678 -90.145599 -86.16452 -83.178711 -79.197624"
           y="10.959"
           id="tspan3660">Sacred</tspan></text>
<g
         id="g3662"
         transform="translate(410.652,683.935)"><path
           d="M 0,0 0,10.959"
           style="fill:none;stroke:#000000;stroke-width:0.398;stroke-linecap:butt;stroke-linejoin:miter;stroke-miterlimit:10;stroke-dasharray:none;stroke-opacity:1"
           id="path3664" /></g><text
         transform="matrix(1,0,0,-1,442.804,687.223)"
         style="font-variant:normal;font-size:8.96640015px;font-family:NimbusRomNo9L;-inkscape-font-specification:NimbusRomNo9L-Regu;writing-mode:lr-tb;fill:#000000;fill-opacity:1;fill-rule:nonzero;stroke:none"
         id="text3666"><tspan
           x="0 4.4832001"
           y="0"
           id="tspan3668">54</tspan><tspan
           x="-99.112 -94.126678 -89.643478 -85.160278 -81.179199 -78.19339 -74.212311 -70.231224"
           y="10.959"
           id="tspan3670">Funereal</tspan></text>
<g
         id="g3672"
         transform="translate(410.652,672.976)"><path
           d="M 0,0 0,10.959"
           style="fill:none;stroke:#000000;stroke-width:0.398;stroke-linecap:butt;stroke-linejoin:miter;stroke-miterlimit:10;stroke-dasharray:none;stroke-opacity:1"
           id="path3674" /></g><text
         transform="matrix(1,0,0,-1,442.804,676.264)"
         style="font-variant:normal;font-size:8.96640015px;font-family:NimbusRomNo9L;-inkscape-font-specification:NimbusRomNo9L-Regu;writing-mode:lr-tb;fill:#000000;fill-opacity:1;fill-rule:nonzero;stroke:none"
         id="text3676"><tspan
           x="0 4.4832001"
           y="0"
           id="tspan3678">52</tspan><tspan
           x="-99.112 -94.126678 -91.634026 -87.652939 -85.160278"
           y="10.959"
           id="tspan3680">Plain</tspan></text>
<g
         id="g3682"
         transform="translate(410.652,662.017)"><path
           d="M 0,0 0,10.959"
           style="fill:none;stroke:#000000;stroke-width:0.398;stroke-linecap:butt;stroke-linejoin:miter;stroke-miterlimit:10;stroke-dasharray:none;stroke-opacity:1"
           id="path3684" /></g><text
         transform="matrix(1,0,0,-1,442.804,665.305)"
         style="font-variant:normal;font-size:8.96640015px;font-family:NimbusRomNo9L;-inkscape-font-specification:NimbusRomNo9L-Regu;writing-mode:lr-tb;fill:#000000;fill-opacity:1;fill-rule:nonzero;stroke:none"
         id="text3686"><tspan
           x="0 4.4832001"
           y="0"
           id="tspan3688">35</tspan><tspan
           x="-99.112 -91.140869 -86.657669 -82.174469 -78.19339 -74.70546 -72.212799 -69.720139"
           y="10.959"
           id="tspan3690">Monastic</tspan></text>
<g
         id="g3692"
         transform="translate(410.652,651.059)"><path
           d="M 0,0 0,10.959"
           style="fill:none;stroke:#000000;stroke-width:0.398;stroke-linecap:butt;stroke-linejoin:miter;stroke-miterlimit:10;stroke-dasharray:none;stroke-opacity:1"
           id="path3694" /></g><text
         transform="matrix(1,0,0,-1,442.804,654.346)"
         style="font-variant:normal;font-size:8.96640015px;font-family:NimbusRomNo9L;-inkscape-font-specification:NimbusRomNo9L-Regu;writing-mode:lr-tb;fill:#000000;fill-opacity:1;fill-rule:nonzero;stroke:none"
         id="text3696"><tspan
           x="0 4.4832001"
           y="0"
           id="tspan3698">15</tspan></text>
<g
         id="g3700"
         transform="translate(337.715,650.859)"><path
           d="M 0,0 120.033,0"
           style="fill:none;stroke:#000000;stroke-width:0.398;stroke-linecap:butt;stroke-linejoin:miter;stroke-miterlimit:10;stroke-dasharray:none;stroke-opacity:1"
           id="path3702" /></g><text
         transform="matrix(1,0,0,-1,189.374,632.329)"
         style="font-variant:normal;font-size:9.96259975px;font-family:NimbusRomNo9L;-inkscape-font-specification:NimbusRomNo9L-Regu;writing-mode:lr-tb;fill:#000000;fill-opacity:1;fill-rule:nonzero;stroke:none"
         id="text3704"><tspan
           x="0 5.2901406 9.7135353 14.694835 17.464437 24.378483 29.359781 35.217793 41.304939 46.28624 53.200283 60.951187 65.932487 69.807938 75.068192 79.491585 84.472885 92.223785 99.974693 104.95599 112.42794 116.85133 121.83263 129.30458 132.07419 136.49759 140.92097 144.79643 150.05669 154.48007 159.46138 167.21228 174.96318 179.94449 187.41643 195.16733 200.14864 205.12993 210.11124 213.98668"
           y="0"
           id="tspan3706">Table1:Themostcommonandleastcommonmoods.</tspan></text>
<flowRoot
         xml:space="preserve"
         id="flowRoot5137"
         style="font-style:normal;font-weight:normal;font-size:40px;line-height:125%;font-family:sans-serif;letter-spacing:0px;word-spacing:0px;fill:#000000;fill-opacity:1;stroke:none;stroke-width:1px;stroke-linecap:butt;stroke-linejoin:miter;stroke-opacity:1"><flowRegion
           id="flowRegion5139"><rect
             id="rect5141"
             width="458.2861"
             height="157.21141"
             x="131.99826"
             y="60.079678" /></flowRegion><flowPara
           id="flowPara5143"></flowPara></flowRoot></g></g></svg>